<svg xmlns="http://www.w3.org/2000/svg" xmlns:xlink="http://www.w3.org/1999/xlink" width="129.063" height="62.606" viewBox="0 0 129.063 62.606">
  <defs>
    <clipPath id="clip-path">
      <path id="path4029" d="M0-682.665H62.606v62.606H0Z" transform="translate(0 682.665)"/>
    </clipPath>
  </defs>
  <g id="Grupo_1200490" data-name="Grupo 1200490" transform="translate(-8528.41 10225.17)">
    <g id="Grupo_1200407" data-name="Grupo 1200407" transform="translate(7732.629 -12228.799)">
      <g id="Rectángulo_410589" data-name="Rectángulo 410589" transform="translate(795.781 2013.422)" fill="#ffe9b5" stroke="#dfab32" stroke-width="1">
        <rect width="129.063" height="43.021" rx="8" stroke="none"/>
        <rect x="0.5" y="0.5" width="128.063" height="42.021" rx="7.5" fill="none"/>
      </g>
    </g>
    <g id="g4023" transform="translate(8561.639 -9542.505)">
      <g id="g4025" transform="translate(0 -682.665)">
        <g id="g4027" clip-path="url(#clip-path)">
          <g id="g4033" transform="translate(6.045 16.141)">
            <path id="path4035" d="M-401-201.035a20.271,20.271,0,0,1-20.244,20.3,20.271,20.271,0,0,1-20.244-20.3,20.271,20.271,0,0,1,20.244-20.3A20.271,20.271,0,0,1-401-201.035" transform="translate(441.494 221.333)" fill="#97c9e8"/>
          </g>
          <g id="g4037" transform="translate(23.233 16.141)">
            <path id="path4039" d="M-30.276,0a20.354,20.354,0,0,0-3.057.23A20.286,20.286,0,0,1-16.146,20.3,20.286,20.286,0,0,1-33.333,40.366a20.353,20.353,0,0,0,3.057.23A20.271,20.271,0,0,0-10.032,20.3,20.271,20.271,0,0,0-30.276,0" transform="translate(33.333 0)" fill="#60b6ff"/>
          </g>
          <g id="g4041" transform="translate(19.354 16.181)">
            <path id="path4043" d="M-42.636-77.725c-3.119,1.954-5.458,5.081-3.7,8.6s5.652,2.15,9.258,1.661.877,10.651,3.021,13.387,8.186-2.736,7.6-6.254c-.866-5.208-1.17-7.035,5.847-10.748l.019-.007A20.267,20.267,0,0,0-38.737-85.573v.031s-.78,5.863-3.9,7.817" transform="translate(46.941 85.573)" fill="#baeb6c"/>
          </g>
          <g id="g4045" transform="translate(27.558 16.181)">
            <path id="path4047" d="M0,0Z" fill="#baeb6c"/>
          </g>
          <g id="g4049" transform="translate(38.974 20.62)">
            <path id="path4051" d="M0,0,0,0,0,0" fill="#baeb6c"/>
          </g>
          <g id="g4053" transform="translate(41.449 22.988)">
            <path id="path4055" d="M0,0H0" fill="#baeb6c"/>
          </g>
          <g id="g4057" transform="translate(6.045 29.366)">
            <path id="path4059" d="M-67.3-161.021c-.936-1.428,1.657-4.788,2.241-7.328s-2.924-2.345-4-3.225-2.534-4.69-3.606-5.57l-.172-.135a20.3,20.3,0,0,0-1.264,7.073,20.285,20.285,0,0,0,8.251,16.353l.006-.425a9.344,9.344,0,0,0-1.462-6.742" transform="translate(74.1 177.28)" fill="#baeb6c"/>
          </g>
          <g id="g4061" transform="translate(38.142 41.346)">
            <path id="path4063" d="M-16.783-.752-16.8-.828a20.192,20.192,0,0,1-1.682,4.455,5.919,5.919,0,0,0,1.695-4.38" transform="translate(18.477 0.828)" fill="#baeb6c"/>
          </g>
          <g id="g4065" transform="translate(27.324 16.182)">
            <path id="path4067" d="M-2.314,0V.031S-2.38.52-2.548,1.262A20.306,20.306,0,0,1,10.464,18.393c.895-1.223,2.531-2.41,5.348-3.9l.019-.007A20.267,20.267,0,0,0-2.314,0" transform="translate(2.548)" fill="#96d629"/>
          </g>
          <g id="g4069" transform="translate(4.832 0.955)">
            <path id="path4071" d="M-157.109-219.394c-9.79-1.661-15.863-13.987-15.863-13.987s9.8-9.633,19.589-7.973,15.863,13.987,15.863,13.987-9.8,9.633-19.589,7.973" transform="translate(172.972 241.546)" fill="#49cb5c"/>
          </g>
          <g id="g4073" transform="translate(18.881 0.955)">
            <path id="path4075" d="M-54.87-1.9a15.2,15.2,0,0,0-5.54.139C-51.03.343-45.244,12.084-45.244,12.084s-6.415,6.3-14.049,7.833c.23.052.462.1.7.139,9.79,1.661,19.589-7.972,19.589-7.972S-45.08-.242-54.87-1.9" transform="translate(60.411 2.095)" fill="#07b128"/>
          </g>
          <g id="g4077" transform="translate(46.162 2.836)">
            <path id="path4079" d="M-7.732-82.27c2.626-6.214,11.726-8.307,11.726-8.307s4.842,7.983,2.215,14.2S-5.517-68.073-5.517-68.073s-4.842-7.983-2.215-14.2" transform="translate(8.513 90.577)" fill="#49cb5c"/>
          </g>
          <g id="g4081" transform="translate(48.297 2.836)">
            <path id="path4083" d="M-102.719,0a24.331,24.331,0,0,0-4.519,1.648c1.257,2.663,3.249,8.066,1.354,12.55-1.374,3.251-4.519,5.373-7.207,6.659.485,1.028.861,1.648.861,1.648s9.1-2.092,11.726-8.307S-102.719,0-102.719,0" transform="translate(113.09)" fill="#07b128"/>
          </g>
          <g id="g4085" transform="translate(0.022 0.005)">
            <path id="path4087" d="M-441.637-301.136c-3.306,1.761-4.925,3.145-5.694,4.833-.825,1.813-.522,3.758-.1,6.45.247,1.587-1.64,4.544-4.112,5.6-.914.392-1.566.345-1.937-.138-.729-.949-.709-3.819-.693-6.125.022-3.191.041-5.946-1.275-7.117a2.162,2.162,0,0,0-1.752-.516c-.577.072-1.162.165-1.727.255-3.371.538-5.493.753-6.592-1.507-1.78-3.66,1.824-6.37,3.456-7.366a5.852,5.852,0,0,0,.928-.707,26.669,26.669,0,0,0,11-4.284,19.465,19.465,0,0,1,8.507,10.619m-24.886-17.909,7.606,1.483-9.762,7.156a18.983,18.983,0,0,1-4.948-3.431Zm.571-1.757-5.395-7.359a20.628,20.628,0,0,1,5.126-1.418l7.463,10.179Zm-7.1-6.586,4.45,6.069-10.7-2.087a36.106,36.106,0,0,1,6.255-3.983m-1.879,12.235a35.7,35.7,0,0,1-4.675-6.442l10.636,2.073Zm9.276,5.738c-.324-.064-.644-.141-.959-.229l10.151-7.441,8.357,1.629c-3.044,2.4-10.454,7.43-17.548,6.041m33.07.522a24.429,24.429,0,0,1-2.807,1.188l2.763-6.606,7.033-2.9a8.877,8.877,0,0,1-.613,2.318c-1.243,2.94-4.153,4.887-6.376,6m-5.876-11.179a8.707,8.707,0,0,1,1.024-1.78l2.967,7.189-2.663,6.366a24.5,24.5,0,0,1-1.188-3.02c-.75-2.371-1.382-5.815-.14-8.755m10.965-6.511a24.483,24.483,0,0,1,1.147,2.932,17.5,17.5,0,0,1,.831,4.421l-6.108,2.52Zm-5.975,9.532-2.606-6.316a17.165,17.165,0,0,1,3.993-2.708,24.455,24.455,0,0,1,2.9-1.22Zm-44.372,18.023a11.425,11.425,0,0,0,2,3.077,5.255,5.255,0,0,0,1.836.815c1.793.551,2,.821,1.829,1.53a16.027,16.027,0,0,1-1.212,2.919c-.947,1.938-1.842,3.767-.994,5.089A8.724,8.724,0,0,1-473-280.731a19.545,19.545,0,0,1-5.652-19.777c.27.462.553,1,.807,1.479m53.229-25.217a25.216,25.216,0,0,0-2.182-4.966.936.936,0,0,0-.99-.418,25.219,25.219,0,0,0-5.082,1.9c-3.6,1.8-6.123,4.2-7.283,6.947a13.455,13.455,0,0,0-.419,8.167,26.015,26.015,0,0,0-4.89-4.256,37.914,37.914,0,0,0-4.25-6.514.918.918,0,0,0-1.423,1.157,36.665,36.665,0,0,1,3.384,4.977l-8.353-1.628-7.938-10.827a12.992,12.992,0,0,1,2.314.236,15.839,15.839,0,0,1,7.164,3.692.918.918,0,0,0,1.19-1.4,17.639,17.639,0,0,0-8-4.1c-4.2-.823-9.1.257-14.174,3.123a36.621,36.621,0,0,0-6.413,4.581.971.971,0,0,0-.109,1.259,37.438,37.438,0,0,0,4.113,6.457,28.67,28.67,0,0,0,4.335,4.456q-.641.536-1.245,1.126a21.145,21.145,0,0,0-4.875,7.292,21.185,21.185,0,0,0-1.5,7.627,21.072,21.072,0,0,0,3.64,12.112,21.171,21.171,0,0,0,9.591,7.768.918.918,0,0,0,.69-1.7,19.353,19.353,0,0,1-3.967-2.182,10.331,10.331,0,0,0-1.557-7.233c-.291-.453.579-2.231,1.1-3.293a17.217,17.217,0,0,0,1.347-3.292,2.509,2.509,0,0,0-.892-2.749,6.762,6.762,0,0,0-2.181-.966,4.667,4.667,0,0,1-1.2-.469,12.2,12.2,0,0,1-1.553-2.526,15.677,15.677,0,0,0-1.676-2.755,19.506,19.506,0,0,1,5.789-7.628,16.037,16.037,0,0,0,7.728,2.872c-3.241,2.511-4.29,5.718-2.791,8.8,1.75,3.6,5.352,3.022,8.53,2.516.55-.088,1.119-.178,1.664-.246.2-.026.266.03.307.066.7.619.675,3.575.66,5.734-.02,2.986-.04,5.807,1.073,7.255a2.8,2.8,0,0,0,2.3,1.116,4.628,4.628,0,0,0,1.81-.409c2.766-1.185,5.641-4.75,5.2-7.57-.383-2.466-.637-4.1-.039-5.409.553-1.216,1.89-2.341,4.522-3.777a19.341,19.341,0,0,1,.458,4.411,19.234,19.234,0,0,1-5.82,13.628,19.474,19.474,0,0,1-15.682,5.4.918.918,0,0,0-.2,1.823,21.319,21.319,0,0,0,17.165-5.917,21.056,21.056,0,0,0,6.372-14.919,21.2,21.2,0,0,0-9.634-17.989c1.212-.864,2.114-1.611,2.615-2.045a24.383,24.383,0,0,1,5.612,5.624,24.183,24.183,0,0,1,4.23,18.145A24.37,24.37,0,0,1-464.01-271.1a24.185,24.185,0,0,1-15.822-9.839,24.182,24.182,0,0,1-4.23-18.145.918.918,0,0,0-1.81-.3,26,26,0,0,0,4.549,19.512,26.008,26.008,0,0,0,17.014,10.58,26.511,26.511,0,0,0,4.321.356,25.988,25.988,0,0,0,15.192-4.9,26.005,26.005,0,0,0,10.581-17.013,25.994,25.994,0,0,0-1.818-14.713,26.45,26.45,0,0,0,4.228-1.666c3.6-1.8,6.123-4.2,7.283-6.947s1.128-6.225-.094-10.064" transform="translate(486.228 331.542)"/>
          </g>
        </g>
      </g>
    </g>
  </g>
</svg>
