<svg xmlns="http://www.w3.org/2000/svg" width="90.346" height="82.723" viewBox="0 0 90.346 82.723">
  <g id="aviso" transform="translate(-13.01 -33.505)">
    <path id="Trazado_1241342" data-name="Trazado 1241342" d="M131.934,133.476l-14.086-24.4-14.091-24.4a8.209,8.209,0,0,0-14.218,0l-14.091,24.4-14.084,24.4a8.209,8.209,0,0,0,7.106,12.313h56.352a8.209,8.209,0,0,0,7.112-12.312Z" transform="translate(-38.47 -38.317)" fill="#ffe177"/>
    <path id="Trazado_1241343" data-name="Trazado 1241343" d="M72.864,41.984a16.962,16.962,0,0,0-29.377,0l-28.176,48.8A16.964,16.964,0,0,0,30,116.227H86.352A16.964,16.964,0,0,0,101.04,90.785Zm25.6,64.272a13.833,13.833,0,0,1-12.112,7H30A13.989,13.989,0,0,1,17.888,92.271l28.176-48.8a13.987,13.987,0,0,1,24.224,0l28.177,48.8a13.829,13.829,0,0,1,0,13.985ZM81.954,69.274l-14.091-24.4a11.183,11.183,0,0,0-19.369,0L34.4,69.275l-14.085,24.4A11.183,11.183,0,0,0,30,110.446H86.352a11.183,11.183,0,0,0,9.687-16.774Zm11.51,34.093a8.027,8.027,0,0,1-7.112,4.1H30a8.209,8.209,0,0,1-7.106-12.313l14.085-24.4,14.091-24.4a8.209,8.209,0,0,1,14.219,0l14.091,24.4,14.084,24.4a8.016,8.016,0,0,1,0,8.208ZM58.176,59.451a6.25,6.25,0,0,0-4.491,1.923,5.775,5.775,0,0,0-1.637,4.271l.711,16.241a5.42,5.42,0,0,0,10.839,0L64.3,65.648a5.763,5.763,0,0,0-1.629-4.27,6.254,6.254,0,0,0-4.5-1.927Zm2.451,22.294a2.449,2.449,0,1,1-4.9.01l-.712-16.24a2.827,2.827,0,0,1,.814-2.085,3.237,3.237,0,0,1,4.692,0,2.816,2.816,0,0,1,.808,2.082ZM58.176,88.67A5.424,5.424,0,1,0,63.6,94.094a5.423,5.423,0,0,0-5.428-5.424Zm0,7.873a2.449,2.449,0,1,1,2.454-2.449,2.449,2.449,0,0,1-2.454,2.449ZM13.767,66.25A22.274,22.274,0,0,1,29.5,39a1.487,1.487,0,1,1,.77,2.873,19.3,19.3,0,0,0-13.629,23.6,1.487,1.487,0,1,1-2.873.77ZM31.48,46.4a1.487,1.487,0,0,1,.771,2.873A11.632,11.632,0,0,0,24.038,63.5a1.487,1.487,0,1,1-2.873.771A14.61,14.61,0,0,1,31.48,46.4Zm68.885,2.971a22.092,22.092,0,0,1,2.22,16.883,1.487,1.487,0,1,1-2.873-.771,19.268,19.268,0,0,0-13.624-23.6A1.487,1.487,0,1,1,86.858,39a22.1,22.1,0,0,1,13.507,10.364Zm-17.309-1.92A1.487,1.487,0,0,1,84.877,46.4,14.61,14.61,0,0,1,95.192,64.269,1.487,1.487,0,1,1,92.32,63.5,11.632,11.632,0,0,0,84.107,49.27a1.487,1.487,0,0,1-1.051-1.822Z" transform="translate(0)"/>
    <g id="Grupo_1200370" data-name="Grupo 1200370" transform="translate(16.015 36.478)">
      <path id="Trazado_1241344" data-name="Trazado 1241344" d="M83.448,56.492a13.987,13.987,0,0,0-24.224,0l-28.176,48.8A13.989,13.989,0,0,0,43.16,126.275H99.512a13.989,13.989,0,0,0,12.112-20.981ZM109.2,117.877a10.934,10.934,0,0,1-9.687,5.591H43.16a11.183,11.183,0,0,1-9.682-16.775L47.563,82.3l14.091-24.4a11.183,11.183,0,0,1,19.369,0L95.114,82.3l14.085,24.4a10.923,10.923,0,0,1,0,11.184Z" transform="translate(-29.175 -49.5)" fill="#fe646f"/>
      <path id="Trazado_1241345" data-name="Trazado 1241345" d="M245.271,346.261a2.449,2.449,0,1,0,2.454,2.449A2.449,2.449,0,0,0,245.271,346.261Z" transform="translate(-203.109 -291.094)" fill="#fe646f"/>
      <path id="Trazado_1241346" data-name="Trazado 1241346" d="M242.147,189.081a3.262,3.262,0,0,0-2.342,1.006,2.827,2.827,0,0,0-.814,2.085l.711,16.24a2.449,2.449,0,1,0,4.9-.01l.706-16.229a2.815,2.815,0,0,0-.808-2.082A3.265,3.265,0,0,0,242.147,189.081Z" transform="translate(-199.986 -163.133)" fill="#fe646f"/>
    </g>
  </g>
</svg>
