<svg xmlns="http://www.w3.org/2000/svg" width="129.063" height="57.52" viewBox="0 0 129.063 57.52">
  <g id="Grupo_1200494" data-name="Grupo 1200494" transform="translate(-9193 10222.838)">
    <g id="Grupo_1200409" data-name="Grupo 1200409" transform="translate(8397.219 -12228.799)">
      <g id="Rectángulo_410589" data-name="Rectángulo 410589" transform="translate(795.781 2013.422)" fill="#ffe9b5" stroke="#dfab32" stroke-width="1">
        <rect width="129.063" height="43.021" rx="8" stroke="none"/>
        <rect x="0.5" y="0.5" width="128.063" height="42.021" rx="7.5" fill="none"/>
      </g>
    </g>
    <g id="campesino" transform="translate(9229 -10222.838)">
      <g id="Grupo_1200492" data-name="Grupo 1200492" transform="translate(2.21 0.842)">
        <path id="Trazado_1241544" data-name="Trazado 1241544" d="M130.471,342a1.431,1.431,0,0,0,1.445-1.631,28.161,28.161,0,0,0-2.049-6.914h0a5.994,5.994,0,0,0-3.355-3.159l-10.61-4.058a1.474,1.474,0,0,1-.961-1.37v-3.315l-11.625-.12v3.434a1.474,1.474,0,0,1-.961,1.37l-10.61,4.058a5.994,5.994,0,0,0-3.355,3.159h0a28.164,28.164,0,0,0-2.049,6.913A1.431,1.431,0,0,0,87.785,342h42.686Z" transform="translate(-78.835 -286.163)" fill="#dc8758"/>
        <path id="Trazado_1241545" data-name="Trazado 1241545" d="M131.914,386.224a28.161,28.161,0,0,0-2.049-6.914h0a5.994,5.994,0,0,0-3.355-3.159l-8-3.059c-1.624,3.679-5.3,10.542-9.582,10.542-4.231,0-7.873-6.8-9.524-10.415l-7.666,2.932a6,6,0,0,0-3.355,3.159h0a28.165,28.165,0,0,0-2.049,6.914,1.431,1.431,0,0,0,1.445,1.631h42.686A1.431,1.431,0,0,0,131.914,386.224Z" transform="translate(-78.834 -332.021)" fill="#fccd7f"/>
        <path id="Trazado_1241546" data-name="Trazado 1241546" d="M205.173,19.8H180.787l1.829-10.187a2.521,2.521,0,0,1,3.428-1.891l4.911,1.989a5.009,5.009,0,0,0,3.7.023l5.28-2.062a2.521,2.521,0,0,1,3.4,1.9Z" transform="translate(-162.687 -7.5)" fill="#9e5528"/>
        <path id="Trazado_1241547" data-name="Trazado 1241547" d="M181.54,79.674l-.753,4.195h24.386l-.753-4.195Z" transform="translate(-162.687 -71.566)" fill="#fccd7f"/>
        <circle id="Elipse_12350" data-name="Elipse 12350" cx="3.571" cy="3.571" r="3.571" transform="translate(37.918 18.187)" fill="#dc8758"/>
        <path id="Trazado_1241548" data-name="Trazado 1241548" d="M205.182,148.484H182.07a24.842,24.842,0,0,0-.273,5.767c.34,5.195,1.927,10.774,6.573,13.719a9.811,9.811,0,0,0,10.517,0c5.66-3.587,7.058-11.171,6.535-17.56C205.369,149.763,205.289,149.12,205.182,148.484Z" transform="translate(-163.533 -132.645)" fill="#dc8758"/>
        <path id="Trazado_1241549" data-name="Trazado 1241549" d="M286.7,150.41c-.053-.646-.133-1.29-.24-1.926h-3.2c.107.636.187,1.279.24,1.926.522,6.389-.875,13.973-6.535,17.56a9.821,9.821,0,0,1-3.657,1.4,9.81,9.81,0,0,0,6.86-1.4C285.826,164.382,287.223,156.8,286.7,150.41Z" transform="translate(-244.812 -132.645)" fill="#d4773f"/>
        <path id="Trazado_1241550" data-name="Trazado 1241550" d="M113.985,117.014h32.476a2.964,2.964,0,0,1,2.669,1.675l1.1,2.275a1.283,1.283,0,0,1-1.155,1.84h-37.7a1.283,1.283,0,0,1-1.155-1.84l1.1-2.275A2.965,2.965,0,0,1,113.985,117.014Z" transform="translate(-99.931 -104.711)" fill="#9e5528"/>
        <path id="Trazado_1241551" data-name="Trazado 1241551" d="M89.169,353.83H85.644a1.124,1.124,0,0,1-1.124-1.124V334.78h4.649Z" transform="translate(-77.235 -298.012)" fill="#c86d36"/>
        <path id="Trazado_1241552" data-name="Trazado 1241552" d="M37.105,147.283a1.993,1.993,0,0,0-2.2,1.983h0v9.2a1.815,1.815,0,0,1-1.815,1.815h0a1.815,1.815,0,0,1-1.815-1.815v-9.2a1.992,1.992,0,0,0-1.993-1.993h0a1.993,1.993,0,0,0-1.752,1.043l-.006.013a1.97,1.97,0,0,0-.234.937v9.2a1.815,1.815,0,0,1-1.815,1.815h0a1.815,1.815,0,0,1-1.815-1.815v-9.2a1.992,1.992,0,0,0-1.993-1.993h0a1.993,1.993,0,0,0-1.752,1.043l-.006.013a1.97,1.97,0,0,0-.234.937v11.62a7.453,7.453,0,0,0,7.453,7.453h4.314a7.453,7.453,0,0,0,7.453-7.453v-.6h0V149.265h0A1.993,1.993,0,0,0,37.105,147.283Z" transform="translate(-19.676 -131.57)" fill="#a8d3d8"/>
      </g>
      <g id="Grupo_1200493" data-name="Grupo 1200493" transform="translate(0 0)">
        <path id="Trazado_1241553" data-name="Trazado 1241553" d="M121.577,324.8a.843.843,0,0,1-.4-1.585,6.99,6.99,0,0,1,.81-.37l10.61-4.058a.63.63,0,0,0,.42-.583v-3.434a.843.843,0,1,1,1.685,0v3.434a2.3,2.3,0,0,1-1.5,2.157l-10.61,4.058a5.312,5.312,0,0,0-.615.281A.839.839,0,0,1,121.577,324.8Z" transform="translate(-107.17 -278.663)"/>
        <path id="Trazado_1241554" data-name="Trazado 1241554" d="M158.948,335.352h-39.7a.843.843,0,1,1,0-1.685h39.7a.637.637,0,0,0,.487-.22.536.536,0,0,0,.126-.435,27.341,27.341,0,0,0-1.988-6.707,5.185,5.185,0,0,0-2.885-2.713l-10.61-4.058a2.3,2.3,0,0,1-1.5-2.157v-3.539a.843.843,0,1,1,1.685,0v3.539a.63.63,0,0,0,.42.583l10.61,4.058a6.881,6.881,0,0,1,3.824,3.605,29.025,29.025,0,0,1,2.11,7.12,2.222,2.222,0,0,1-.507,1.8A2.319,2.319,0,0,1,158.948,335.352Z" transform="translate(-105.102 -277.832)"/>
        <path id="Línea_573" data-name="Línea 573" d="M-3.589-5.815H-6.657A.843.843,0,0,1-7.5-6.657.843.843,0,0,1-6.657-7.5h3.069a.843.843,0,0,1,.843.843A.843.843,0,0,1-3.589-5.815Z" transform="translate(20.695 25.593)"/>
        <path id="Trazado_1241555" data-name="Trazado 1241555" d="M145.539,116.99H115.663a.843.843,0,0,1,0-1.685h29.877a.44.44,0,0,0,.4-.631l-1.1-2.275a2.134,2.134,0,0,0-1.911-1.2H110.449a2.134,2.134,0,0,0-1.911,1.2l-.833,1.724a.843.843,0,0,1-1.517-.733l.833-1.724a3.828,3.828,0,0,1,3.428-2.151h32.476a3.828,3.828,0,0,1,3.428,2.151l1.1,2.275a2.125,2.125,0,0,1-1.913,3.049Z" transform="translate(-94.184 -97.211)"/>
        <path id="Trazado_1241556" data-name="Trazado 1241556" d="M386.74,171.3a.843.843,0,0,1-.115-1.677,2.729,2.729,0,0,0,.192-5.37.843.843,0,1,1,.351-1.648,4.414,4.414,0,0,1-.312,8.687A.851.851,0,0,1,386.74,171.3Z" transform="translate(-342.545 -144.317)"/>
        <path id="Trazado_1241557" data-name="Trazado 1241557" d="M195.354,181.885a10.663,10.663,0,0,1-5.709-1.649,14.37,14.37,0,0,1-5.924-8.339.843.843,0,1,1,1.613-.488,12.741,12.741,0,0,0,5.213,7.4,9.019,9.019,0,0,0,9.615,0c6.352-4.026,6.429-12.815,6.167-16.407a.843.843,0,1,1,1.681-.123c.284,3.895.176,13.44-6.945,17.953A10.663,10.663,0,0,1,195.354,181.885Z" transform="translate(-163.048 -143.358)"/>
        <path id="Trazado_1241558" data-name="Trazado 1241558" d="M198.516,13.988H174.13A.843.843,0,0,1,173.3,13L175.13,2.809A3.36,3.36,0,0,1,179.7.286l4.911,1.989a4.147,4.147,0,0,0,1.564.3,4.149,4.149,0,0,0,1.516-.286l5.28-2.062a3.36,3.36,0,0,1,4.535,2.539L199.345,13a.843.843,0,0,1-.829.992ZM175.137,12.3h22.372L195.85,3.068A1.675,1.675,0,0,0,193.587,1.8l-5.28,2.062a5.827,5.827,0,0,1-2.129.4,5.825,5.825,0,0,1-2.2-.428l-4.911-1.989a1.675,1.675,0,0,0-2.283,1.259Z" transform="translate(-153.819 0)"/>
        <path id="Línea_574" data-name="Línea 574" d="M15.763-5.815H-6.657A.843.843,0,0,1-7.5-6.657.843.843,0,0,1-6.657-7.5H15.763a.843.843,0,0,1,.843.843A.843.843,0,0,1,15.763-5.815Z" transform="translate(27.851 15.608)"/>
        <path id="Trazado_1241559" data-name="Trazado 1241559" transform="translate(0 0)"/>
        <path id="Trazado_1241560" data-name="Trazado 1241560" transform="translate(0 0)"/>
        <path id="Trazado_1241561" data-name="Trazado 1241561" d="M15.012,139.772a2.834,2.834,0,0,1,2.836,2.836v9.2a.973.973,0,0,0,1.945,0v-9.2a2.836,2.836,0,1,1,5.671,0v9.2a.973.973,0,0,0,1.945,0v-9.2a2.826,2.826,0,0,1,2.547-2.821,2.881,2.881,0,0,1,.578,0,2.826,2.826,0,0,1,2.546,2.821v11.619a8.3,8.3,0,0,1-8.3,8.3H20.471a8.3,8.3,0,0,1-8.3-8.3v-11.62a2.836,2.836,0,0,1,2.836-2.835Zm3.808,14.7a2.661,2.661,0,0,1-2.658-2.658v-9.2a1.146,1.146,0,0,0-1.032-1.144,1.153,1.153,0,0,0-1.131.6,1.213,1.213,0,0,0-.087.206,1.149,1.149,0,0,0-.052.342v11.62a6.617,6.617,0,0,0,6.61,6.61h4.314a6.617,6.617,0,0,0,6.61-6.61v-11.62a1.146,1.146,0,0,0-1.032-1.144,1.172,1.172,0,0,0-.237,0,1.146,1.146,0,0,0-1.032,1.144v9.2a2.658,2.658,0,0,1-5.315,0v-9.2a1.146,1.146,0,0,0-1.032-1.144,1.153,1.153,0,0,0-1.131.6,1.212,1.212,0,0,0-.087.206,1.148,1.148,0,0,0-.052.342v9.2A2.661,2.661,0,0,1,18.82,154.469Z" transform="translate(-10.808 -124.07)"/>
        <path id="Trazado_1241562" data-name="Trazado 1241562" d="M82.512,348.015H78.986a1.969,1.969,0,0,1-1.966-1.966V328.123a.843.843,0,0,1,.843-.843h4.649a.843.843,0,0,1,.843.843v19.05A.843.843,0,0,1,82.512,348.015Zm-3.807-19.05v17.084a.282.282,0,0,0,.281.281h2.683V328.965Z" transform="translate(-68.367 -290.512)"/>
        <path id="Trazado_1241563" data-name="Trazado 1241563" d="M205.678,377.818c-4.382,0-8.015-5.932-10.29-10.908a.843.843,0,0,1,1.532-.7c2.884,6.306,6.076,9.923,8.758,9.923,4.065,0,7.771-7.685,8.811-10.04a.843.843,0,1,1,1.542.68C214.21,370.9,210.445,377.818,205.678,377.818Z" transform="translate(-173.369 -324.519)"/>
      </g>
    </g>
  </g>
</svg>
