<svg xmlns="http://www.w3.org/2000/svg" width="129.063" height="53.1" viewBox="0 0 129.063 53.1">
  <g id="Grupo_1200497" data-name="Grupo 1200497" transform="translate(-9518 10222.474)">
    <g id="Grupo_1200410" data-name="Grupo 1200410" transform="translate(8722.219 -12228.799)">
      <g id="Rectángulo_410589" data-name="Rectángulo 410589" transform="translate(795.781 2013.422)" fill="#ffe9b5" stroke="#dfab32" stroke-width="1">
        <rect width="129.063" height="43.021" rx="8" stroke="none"/>
        <rect x="0.5" y="0.5" width="128.063" height="42.021" rx="7.5" fill="none"/>
      </g>
    </g>
    <g id="tierra_1_" data-name="tierra (1)" transform="translate(9546.999 -10286.2)">
      <g id="Grupo_1200495" data-name="Grupo 1200495" transform="translate(1.036 64.768)">
        <path id="Trazado_1241553" data-name="Trazado 1241553" d="M45.822,85.483l-.84-1.631c-2.173-4.456-.847-9.243,3.609-11.416a12.746,12.746,0,0,0,1.387-.873,8.991,8.991,0,0,1,8.563,2.28s.76,2.391,1.221,3.336l-3.119,4.853Z" transform="translate(-38.924 -71.271)" fill="#fee97d"/>
        <path id="Trazado_1241554" data-name="Trazado 1241554" d="M56.031,78.14l-3.205,4.988-.47.731L40.737,87.641,39.9,86.01a7.609,7.609,0,0,1-.775-2.377,8.981,8.981,0,0,1,4.908-9.627,8.867,8.867,0,0,1,1.663-.617,8.986,8.986,0,0,0-3.354,7.85.7.7,0,0,0,.767.625,6.062,6.062,0,0,1,.718-.028.531.531,0,0,0,.418-.189,7.967,7.967,0,0,1,5.8-2.806.558.558,0,0,0,.421-.213,9.968,9.968,0,0,1,3.791-2.959A8.915,8.915,0,0,1,56.031,78.14Z" transform="translate(-34.637 -73.097)" fill="#ffdc6e"/>
        <path id="Trazado_1241555" data-name="Trazado 1241555" d="M40.63,150.84c.036.151.075.3.117.45C40.7,151.141,40.665,150.991,40.63,150.84Z" transform="translate(-36.055 -139.852)" fill="#ffdc6e"/>
        <path id="Trazado_1241556" data-name="Trazado 1241556" d="M8.722,95.669l1.349-.25a6.725,6.725,0,0,0,4.3-1.49,3.888,3.888,0,0,1,3.214-.819,1.329,1.329,0,0,0,1.363-.6,5.376,5.376,0,0,1,4.529-2.475q.242,0,.479.021a1.359,1.359,0,0,0,1.275-.614,7.4,7.4,0,0,1,7.4-3.347,1.325,1.325,0,0,0,1.241-.473A7.049,7.049,0,0,1,39.415,82.7a9.315,9.315,0,0,1,4.237.951c.172.121.31.228.47.363a1.343,1.343,0,0,0,1.348.231,8.285,8.285,0,0,1,8.52,1.529,1.327,1.327,0,0,0,1.384.23,7.4,7.4,0,0,1,9.011,2.828,1.4,1.4,0,0,0,1.176.652h.012a5.378,5.378,0,0,1,4.463,2.372,7.1,7.1,0,0,0,5.578,3.008.549.549,0,0,1,.522.551V99.01L43.9,101.94,7.5,99.01l.666-2.789A.552.552,0,0,1,8.722,95.669Z" transform="translate(-7.503 -81.125)" fill="#c1e9af"/>
        <path id="Trazado_1241557" data-name="Trazado 1241557" d="M43.649,81.075a7.342,7.342,0,0,0-5.5,2.8,1.326,1.326,0,0,1-1.241.474,7.4,7.4,0,0,0-7.4,3.346,1.361,1.361,0,0,1-1.276.615c-.157-.014-.318-.022-.479-.022a5.375,5.375,0,0,0-4.528,2.476,1.33,1.33,0,0,1-1.363.6,3.971,3.971,0,0,0-.742-.07,3.87,3.87,0,0,0-2.473.889,6.725,6.725,0,0,1-4.3,1.49h0a2.292,2.292,0,0,0-2.292,2.292v2.7L7.5,96.429V92.839a.552.552,0,0,1,.552-.552h1.74a6.725,6.725,0,0,0,4.3-1.49,3.87,3.87,0,0,1,2.473-.889,3.972,3.972,0,0,1,.742.07,1.33,1.33,0,0,0,1.363-.6A5.375,5.375,0,0,1,23.2,86.906c.162,0,.322.007.479.022a1.361,1.361,0,0,0,1.276-.615,7.4,7.4,0,0,1,7.4-3.346,1.326,1.326,0,0,0,1.241-.474,7.381,7.381,0,0,1,5.779-2.784A7.248,7.248,0,0,1,43.649,81.075Z" transform="translate(-7.5 -78.545)" fill="#ade194"/>
        <path id="Trazado_1241558" data-name="Trazado 1241558" d="M8.764,201.692l3.293-.909H76.134v4.035L43.9,206.8,7.5,204.818Z" transform="translate(-7.5 -182.898)" fill="#b56e5a"/>
        <path id="Trazado_1241559" data-name="Trazado 1241559" d="M195.225,394.369l-4.9,4.136H163.258l-4.3-4.136,17.156-2.629Z" transform="translate(-138.045 -347.484)" fill="#b56e5a"/>
        <path id="Trazado_1241560" data-name="Trazado 1241560" d="M20.044,230v16.247l15.926,8.718H75.492L86.946,245.3v-4.933l-.654-2.457.654-.572V230Z" transform="translate(-18.312 -208.08)" fill="#c38678"/>
        <path id="Trazado_1241561" data-name="Trazado 1241561" d="M12.057,200.78v4.035L9.466,206.8,7.5,204.815V200.78Z" transform="translate(-7.5 -182.895)" fill="#a8604f"/>
        <path id="Trazado_1241562" data-name="Trazado 1241562" d="M12.057,230v17.794L7.5,245.3v-4.933l1.108-2.652L7.5,237.337V230Z" transform="translate(-7.5 -208.08)" fill="#b56e5a"/>
        <path id="Trazado_1241563" data-name="Trazado 1241563" d="M126.733,390.354h8.683a2.706,2.706,0,0,0,2.715-2.689,2.651,2.651,0,0,0-1.985-2.528.4.4,0,0,1-.293-.3,3.324,3.324,0,0,0-4.735-2.2l-1.319.811Z" transform="translate(-110.267 -339.333)" fill="#9ddd7f"/>
        <path id="Trazado_1241564" data-name="Trazado 1241564" d="M371.508,326.175s-1.094-2.34-4.607-2.34a4.594,4.594,0,0,0-3.461,1.568.275.275,0,0,1-.323.062,6.214,6.214,0,0,0-8.716,4.477.28.28,0,0,1-.222.223,4.956,4.956,0,0,0-3.979,4.846,5.055,5.055,0,0,0,5.057,4.967h8.7l6.193-1.19a.552.552,0,0,0,.552-.552l.8-7.176Z" transform="translate(-302.874 -288.957)" fill="#ade194"/>
        <path id="Trazado_1241565" data-name="Trazado 1241565" d="M7.506,326.175s1.065-2.34,4.606-2.34a4.593,4.593,0,0,1,3.4,1.5.4.4,0,0,0,.457.1,6.214,6.214,0,0,1,8.631,4.441.4.4,0,0,0,.305.306,4.957,4.957,0,0,1,3.909,4.832,5.055,5.055,0,0,1-5.058,4.967H16.189l-7.419-.839a.552.552,0,0,1-.552-.552l-.711-7.977Z" transform="translate(-7.505 -288.957)" fill="#ade194"/>
        <path id="Trazado_1241566" data-name="Trazado 1241566" d="M18.9,376.519a2.706,2.706,0,0,1-2.715,2.689H8.054a.552.552,0,0,1-.552-.552v-8.816A3.621,3.621,0,0,1,12.358,371a.413.413,0,0,0,.431.179,3.471,3.471,0,0,1,3.842,2.5.407.407,0,0,0,.3.312A2.651,2.651,0,0,1,18.9,376.519Z" transform="translate(-7.502 -328.186)" fill="#c1e9af"/>
        <path id="Trazado_1241567" data-name="Trazado 1241567" d="M429.171,378.911a3.31,3.31,0,1,1,.536-6.576.275.275,0,0,0,.314-.2,4.143,4.143,0,0,1,6.7-2.138v8.365a.552.552,0,0,1-.552.552h-7Z" transform="translate(-368.087 -327.89)" fill="#c1e9af"/>
      </g>
      <g id="Grupo_1200496" data-name="Grupo 1200496" transform="translate(0.001 63.726)">
        <path id="Trazado_1241568" data-name="Trazado 1241568" d="M77.517,70.5a1.035,1.035,0,0,1-.911-.542,7.921,7.921,0,0,0-10.457-3.344q-.244.119-.476.252a1.036,1.036,0,0,1-1.03-1.8q.292-.167.6-.317a9.988,9.988,0,0,1,13.186,4.219,1.036,1.036,0,0,1-.909,1.53Z" transform="translate(-55.267 -63.726)"/>
        <path id="Trazado_1241569" data-name="Trazado 1241569" d="M33.455,107.427a1.036,1.036,0,0,1-.932-.582,10.024,10.024,0,0,1,.261-9.278,1.036,1.036,0,1,1,1.809,1.01,7.952,7.952,0,0,0-.207,7.36,1.036,1.036,0,0,1-.93,1.49Z" transform="translate(-27.16 -92.437)"/>
        <path id="Línea_573" data-name="Línea 573" d="M-4.967,8.15a1.036,1.036,0,0,1-1.028-.922l-1.5-13.579a1.036,1.036,0,0,1,.916-1.143,1.036,1.036,0,0,1,1.143.916L-3.936,7a1.036,1.036,0,0,1-.916,1.143A1.047,1.047,0,0,1-4.967,8.15Z" transform="translate(45.936 29.535)"/>
        <path id="Trazado_1241570" data-name="Trazado 1241570" d="M213.563,250.211H199.837a1.036,1.036,0,0,1-1.029-1.149l2.745-24.857a1.036,1.036,0,0,1,2.059.227l-2.618,23.708h11.414l-.591-5.35a1.036,1.036,0,0,1,2.059-.227l.718,6.5a1.036,1.036,0,0,1-1.029,1.149Z" transform="translate(-171.347 -201.248)"/>
        <path id="Línea_574" data-name="Línea 574" d="M-.858,11.5a1.036,1.036,0,0,1-.983-.71L-7.449-6.14a1.036,1.036,0,0,1,.657-1.309,1.036,1.036,0,0,1,1.309.657L.125,10.134a1.036,1.036,0,0,1-.657,1.309A1.035,1.035,0,0,1-.858,11.5Z" transform="translate(54.173 29.536)"/>
        <path id="Línea_575" data-name="Línea 575" d="M-.291-5.429H-6.464A1.036,1.036,0,0,1-7.5-6.464,1.036,1.036,0,0,1-6.464-7.5H-.291A1.036,1.036,0,0,1,.745-6.464,1.036,1.036,0,0,1-.291-5.429Z" transform="translate(48.68 54.392)"/>
        <path id="Línea_576" data-name="Línea 576" d="M1.706,8.021a1.035,1.035,0,0,1-.886-.5L-7.35-5.928A1.036,1.036,0,0,1-7-7.35,1.036,1.036,0,0,1-5.58-7L2.59,6.447a1.036,1.036,0,0,1-.884,1.574Z" transform="translate(61.035 29.535)"/>
        <path id="Línea_577" data-name="Línea 577" d="M1.73,3.314a1.033,1.033,0,0,1-.756-.327L-7.22-5.756A1.036,1.036,0,0,1-7.173-7.22a1.036,1.036,0,0,1,1.464.047L2.486,1.57A1.036,1.036,0,0,1,1.73,3.314Z" transform="translate(67.939 29.534)"/>
        <path id="Línea_578" data-name="Línea 578" d="M-6.465,3.314a1.032,1.032,0,0,1-.708-.28A1.036,1.036,0,0,1-7.22,1.57L.975-7.173A1.036,1.036,0,0,1,2.438-7.22a1.036,1.036,0,0,1,.047,1.464L-5.709,2.987A1.033,1.033,0,0,1-6.465,3.314Z" transform="translate(7.5 29.534)"/>
        <path id="Línea_579" data-name="Línea 579" d="M-6.466.877A1.035,1.035,0,0,1-6.792.824,1.036,1.036,0,0,1-7.449-.485l2.09-6.307A1.036,1.036,0,0,1-4.05-7.449,1.036,1.036,0,0,1-3.393-6.14L-5.483.167A1.036,1.036,0,0,1-6.466.877Z" transform="translate(23.854 40.162)"/>
        <path id="Línea_580" data-name="Línea 580" d="M-6.466.607A1.034,1.034,0,0,1-6.792.554,1.036,1.036,0,0,1-7.449-.755l2-6.037A1.036,1.036,0,0,1-4.14-7.449,1.036,1.036,0,0,1-3.483-6.14l-2,6.037A1.036,1.036,0,0,1-6.466.607Z" transform="translate(27.464 29.536)"/>
        <path id="Línea_581" data-name="Línea 581" d="M-6.466,8.025A1.031,1.031,0,0,1-7,7.874,1.036,1.036,0,0,1-7.35,6.451L.822-7A1.036,1.036,0,0,1,2.245-7.35a1.036,1.036,0,0,1,.348,1.423L-5.58,7.527A1.035,1.035,0,0,1-6.466,8.025Z" transform="translate(14.428 29.535)"/>
        <path id="Trazado_1241571" data-name="Trazado 1241571" d="M69.673,86.861h-.3A7.991,7.991,0,0,1,62.714,83.4a4.344,4.344,0,0,0-3.609-1.916A2.377,2.377,0,0,1,57.078,80.4,6.364,6.364,0,0,0,49.3,77.924a2.374,2.374,0,0,1-2.466-.415,7.249,7.249,0,0,0-7.454-1.338,2.375,2.375,0,0,1-2.391-.4,6.356,6.356,0,0,0-9.053.909,2.363,2.363,0,0,1-2.211.85,6.364,6.364,0,0,0-6.364,2.879,2.389,2.389,0,0,1-2.241,1.09q-.191-.017-.388-.017a4.333,4.333,0,0,0-3.658,2,2.351,2.351,0,0,1-2.432,1.053,2.852,2.852,0,0,0-2.357.6,7.77,7.77,0,0,1-4.958,1.728H1.04a1.036,1.036,0,0,1,0-2.071H3.331a5.7,5.7,0,0,0,3.637-1.252A4.924,4.924,0,0,1,11.041,82.5a.294.294,0,0,0,.295-.14,6.4,6.4,0,0,1,5.4-2.951q.288,0,.57.025a.326.326,0,0,0,.31-.137,8.436,8.436,0,0,1,8.435-3.815.291.291,0,0,0,.271-.1,8.427,8.427,0,0,1,12-1.2.309.309,0,0,0,.3.06,9.321,9.321,0,0,1,9.587,1.72.29.29,0,0,0,.3.046,8.435,8.435,0,0,1,10.307,3.277.322.322,0,0,0,.275.125,6.42,6.42,0,0,1,5.33,2.828,5.923,5.923,0,0,0,4.94,2.553h.3a1.036,1.036,0,0,1,0,2.071Z" transform="translate(-0.004 -71.041)"/>
        <path id="Línea_582" data-name="Línea 582" d="M9.471-5.429H-6.464A1.036,1.036,0,0,1-7.5-6.464,1.036,1.036,0,0,1-6.464-7.5H9.471a1.036,1.036,0,0,1,1.036,1.036A1.036,1.036,0,0,1,9.471-5.429Z" transform="translate(60.198 25.391)"/>
        <path id="Línea_583" data-name="Línea 583" d="M41.4-5.429H-6.464A1.036,1.036,0,0,1-7.5-6.464,1.036,1.036,0,0,1-6.464-7.5H41.4a1.036,1.036,0,0,1,1.036,1.036A1.036,1.036,0,0,1,41.4-5.429Z" transform="translate(7.5 25.391)"/>
        <path id="Línea_584" data-name="Línea 584" d="M62.169-5.429H-6.464A1.036,1.036,0,0,1-7.5-6.464,1.036,1.036,0,0,1-6.464-7.5H62.169A1.036,1.036,0,0,1,63.2-6.464,1.036,1.036,0,0,1,62.169-5.429Z" transform="translate(7.5 29.426)"/>
        <path id="Trazado_1241572" data-name="Trazado 1241572" d="M129.015,384.927h-8.747a1.036,1.036,0,1,1,0-2.071h8.747a1.615,1.615,0,0,0,.258-3.209,1.036,1.036,0,0,1-.86-.862,2.288,2.288,0,0,0-3.292-1.683,1.036,1.036,0,1,1-.936-1.848,4.362,4.362,0,0,1,6.112,2.528,3.688,3.688,0,0,1-1.282,7.145Z" transform="translate(-102.767 -331.828)"/>
        <path id="Trazado_1241573" data-name="Trazado 1241573" d="M365.043,334.549H348.69a5.992,5.992,0,0,1-1.664-11.748,7.255,7.255,0,0,1,9.564-4.951,5.613,5.613,0,0,1,3.847-1.515c4.124,0,5.489,2.818,5.545,2.938a1.036,1.036,0,0,1-1.871.888c-.048-.094-.935-1.755-3.674-1.755a3.557,3.557,0,0,0-2.784,1.336,1.036,1.036,0,0,1-1.275.275,5.178,5.178,0,0,0-7.451,3.809,1.036,1.036,0,0,1-.86.862,3.92,3.92,0,0,0,.624,7.789h16.353a1.036,1.036,0,0,1,0,2.071Z" transform="translate(-295.374 -281.451)"/>
        <path id="Trazado_1241574" data-name="Trazado 1241574" d="M17.391,334.549H9.785a1.036,1.036,0,0,1,0-2.071h7.606a3.92,3.92,0,0,0,.624-7.789,1.036,1.036,0,0,1-.86-.862A5.178,5.178,0,0,0,9.7,320.017a1.036,1.036,0,0,1-1.275-.275,3.557,3.557,0,0,0-2.784-1.336c-2.8,0-3.656,1.716-3.664,1.734A1.036,1.036,0,0,1,.1,319.282c.055-.12,1.389-2.947,5.549-2.947a5.612,5.612,0,0,1,3.847,1.515,7.255,7.255,0,0,1,9.564,4.951,5.992,5.992,0,0,1-1.665,11.748Z" transform="translate(-0.002 -281.451)"/>
        <path id="Línea_585" data-name="Línea 585" d="M20.6-5.429H-6.464A1.036,1.036,0,0,1-7.5-6.464,1.036,1.036,0,0,1-6.464-7.5H20.6a1.036,1.036,0,0,1,1.036,1.036A1.036,1.036,0,0,1,20.6-5.429Z" transform="translate(32.713 58.527)"/>
        <path id="Trazado_1241575" data-name="Trazado 1241575" d="M9.784,373.775H1.037a1.036,1.036,0,0,1,0-2.071H9.784a1.615,1.615,0,0,0,.258-3.209,1.036,1.036,0,0,1-.86-.862,2.284,2.284,0,0,0-2.865-1.846,1.036,1.036,0,0,1-1.186-.508,2.586,2.586,0,0,0-3.574-1.013,1.036,1.036,0,1,1-1.042-1.79,4.658,4.658,0,0,1,6.019,1.175q.193-.017.387-.017a4.335,4.335,0,0,1,4.144,3,3.688,3.688,0,0,1-1.282,7.145Z" transform="translate(-0.001 -320.677)"/>
        <path id="Trazado_1241576" data-name="Trazado 1241576" d="M422.707,373.483a4.345,4.345,0,1,1,.045-8.691,5.179,5.179,0,0,1,8.177-2.051,1.036,1.036,0,0,1-1.343,1.577,3.107,3.107,0,0,0-5.067,1.8,1.036,1.036,0,0,1-1.266.816,2.274,2.274,0,1,0-.546,4.482,1.036,1.036,0,1,1,0,2.071Z" transform="translate(-360.587 -320.385)"/>
      </g>
    </g>
  </g>
</svg>
