<svg xmlns="http://www.w3.org/2000/svg" width="129.063" height="60.857" viewBox="0 0 129.063 60.857">
  <g id="Grupo_1200433" data-name="Grupo 1200433" transform="translate(-1102.103 -4665.431)">
    <g id="Grupo_1200327" data-name="Grupo 1200327" transform="translate(306.321 2660.928)">
      <g id="Rectángulo_410589" data-name="Rectángulo 410589" transform="translate(795.781 2013.422)" fill="#ffe9b5" stroke="#dfab32" stroke-width="1">
        <rect width="129.063" height="43.021" rx="8" stroke="none"/>
        <rect x="0.5" y="0.5" width="128.063" height="42.021" rx="7.5" fill="none"/>
      </g>
    </g>
    <g id="Layer_24" data-name="Layer 24" transform="translate(1136.455 4664.431)">
      <path id="Trazado_1241385" data-name="Trazado 1241385" d="M32,10.855C34.685,5.813,38.1,2,41.816,2,50.49,2,57.521,22.773,57.521,31.447A15.711,15.711,0,0,1,47.683,46.02H32" transform="translate(-0.571 -0.018)" fill="#c49a99"/>
      <path id="Trazado_1241386" data-name="Trazado 1241386" d="M57.521,31.447C57.521,22.773,50.49,2,41.816,2c-.124,0-.246.015-.369.024C37.571,4.345,34.23,10.381,32,16.611V39.594a15.886,15.886,0,0,0,1.178,1.472l3.207,2.683A15.623,15.623,0,0,0,42.6,46.016H46.83c.478-.063.949-.143,1.412-.248A15.705,15.705,0,0,0,57.521,31.447Z" transform="translate(-0.571 -0.018)" fill="#f4d6ce"/>
      <path id="Trazado_1241387" data-name="Trazado 1241387" d="M36.968,24.511a8.833,8.833,0,1,1,9.553,14.861L37,38.707Z" transform="translate(-0.663 -0.407)" fill="#e3c748"/>
      <path id="Trazado_1241388" data-name="Trazado 1241388" d="M37.391,30.618C36.978,21.521,30.113,2,21.705,2,13.031,2,6,22.773,6,31.447a15.648,15.648,0,0,0,1.262,6.184" transform="translate(-0.092 -0.018)" fill="#deb2ae"/>
      <path id="Trazado_1241389" data-name="Trazado 1241389" d="M23.753,2.375C16.011,5.148,10.02,23.448,10.02,31.454a15.626,15.626,0,0,0,.949,5.334l26.5-6.163C37.085,22.252,31.238,5.061,23.753,2.375Z" transform="translate(-0.166 -0.025)" fill="#fbe2d9"/>
      <path id="Trazado_1241390" data-name="Trazado 1241390" d="M13.435,34.584a8.834,8.834,0,1,1,17.023-4.672" transform="translate(-0.221 -0.407)" fill="#fae150"/>
      <path id="Trazado_1241391" data-name="Trazado 1241391" d="M44.733,54.084A15.705,15.705,0,0,0,31.447,30C22.773,30,2,37.031,2,45.705S22.773,61.41,31.447,61.41a15.653,15.653,0,0,0,10.6-4.123" transform="translate(-0.018 -0.535)" fill="#fbe2d9"/>
      <path id="Trazado_1241392" data-name="Trazado 1241392" d="M31.5,30c-6.162,0-18.425,3.551-25.014,8.716A6.879,6.879,0,0,0,5,42.76c0,8.674,20.773,15.705,29.447,15.705a15.621,15.621,0,0,0,9.147-2.955l1.195-1.427A15.705,15.705,0,0,0,31.5,30Z" transform="translate(-0.074 -0.535)" fill="#fff2ee"/>
      <circle id="Elipse_12339" data-name="Elipse 12339" cx="8.619" cy="8.619" r="8.619" transform="translate(22.835 36.575)" fill="#fae150"/>
      <path id="Trazado_1241393" data-name="Trazado 1241393" d="M46.834,55.779l-5.889-5.889L38,52.834l8.834,8.834L61.558,46.945,58.613,44Z" transform="translate(-0.682 -0.793)" fill="#8fc66b"/>
      <path id="Trazado_1241394" data-name="Trazado 1241394" d="M58.625,42.513a.982.982,0,0,0-1.388,0L46.152,53.6l-.209-.209a16.612,16.612,0,0,0,2.1-6.73,16.607,16.607,0,0,0,9.889-15.231C57.931,22.6,50.709,1,41.244,1c-3.4,0-6.781,2.719-9.836,7.871C28.711,4.325,25.362,1,21.613,1,12.148,1,4.926,22.6,4.926,31.429a16.554,16.554,0,0,0,1.091,5.884C3,39.633,1,42.3,1,45.171c0,9.465,21.6,16.687,30.429,16.687a16.628,16.628,0,0,0,10.543-3.774l3.487,3.487a.982.982,0,0,0,1.388,0L61.57,46.846a.982.982,0,0,0,0-1.388ZM38.24,29.956a38.366,38.366,0,0,0-.836-5.351A7.841,7.841,0,0,1,46.229,37.5a16.777,16.777,0,0,0-7.989-7.541Zm3-26.993c7.605,0,14.724,19.572,14.724,28.465A14.652,14.652,0,0,1,48.08,44.465a16.588,16.588,0,0,0-1.04-5.136A9.8,9.8,0,0,0,36.925,22.621,58.2,58.2,0,0,0,32.52,10.882C35.326,5.775,38.415,2.963,41.244,2.963ZM6.889,31.429c0-8.893,7.118-28.465,14.724-28.465,7,0,13.591,16.554,14.591,26.226a16.617,16.617,0,0,0-4.775-.7c-.143,0-.294.007-.448.011A9.816,9.816,0,0,0,12.059,33.68a38.9,38.9,0,0,0-4.385,2.46,14.62,14.62,0,0,1-.785-4.712ZM13.9,32.837a7.844,7.844,0,0,1,15.048-4.2,55.949,55.949,0,0,0-15.048,4.2Zm17.53,27.057c-8.893,0-28.465-7.118-28.465-14.724S22.536,30.447,31.429,30.447a14.719,14.719,0,0,1,13.07,21.5L40.957,48.4a.934.934,0,0,0-.218-.144,9.847,9.847,0,1,0-3.664,4.927l3.5,3.5a14.671,14.671,0,0,1-9.15,3.2Zm0-6.871a7.853,7.853,0,1,1,7.853-7.853,7.853,7.853,0,0,1-7.853,7.853Zm14.724,6.465-7.446-7.446,1.557-1.557,5.2,5.2a.982.982,0,0,0,1.388,0L57.931,44.6l1.557,1.557Z" transform="translate(0 0)"/>
    </g>
  </g>
</svg>
