<svg xmlns="http://www.w3.org/2000/svg" width="129.063" height="61.535" viewBox="0 0 129.063 61.535">
  <g id="Grupo_1200436" data-name="Grupo 1200436" transform="translate(6764 6944.265)">
    <g id="Grupo_1200328" data-name="Grupo 1200328" transform="translate(-7559.781 -8947.072)">
      <g id="Rectángulo_410589" data-name="Rectángulo 410589" transform="translate(795.781 2013.422)" fill="#ffe9b5" stroke="#dfab32" stroke-width="1">
        <rect width="129.063" height="43.021" rx="8" stroke="none"/>
        <rect x="0.5" y="0.5" width="128.063" height="42.021" rx="7.5" fill="none"/>
      </g>
    </g>
    <g id="incubadora" transform="translate(-6733.01 -6947.282)">
      <g id="Grupo_1200434" data-name="Grupo 1200434" transform="translate(8.061 4.063)">
        <path id="Trazado_1241395" data-name="Trazado 1241395" d="M56.165,31.051A29.69,29.69,0,0,0,42.124,6.494a16.7,16.7,0,0,0-17.553,0,29.69,29.69,0,0,0-14.04,24.558L10,53.784H56.7Z" transform="translate(-7.877 -4.003)" fill="#ecc865"/>
        <ellipse id="Elipse_12340" data-name="Elipse 12340" cx="6.368" cy="10.878" rx="6.368" ry="10.878" transform="translate(6.452 31.973)" fill="#d3dce5"/>
        <ellipse id="Elipse_12341" data-name="Elipse 12341" cx="6.368" cy="10.878" rx="6.368" ry="10.878" transform="translate(19.188 31.973)" fill="#b8c3d5"/>
        <ellipse id="Elipse_12342" data-name="Elipse 12342" cx="6.368" cy="10.878" rx="6.368" ry="10.878" transform="translate(31.923 31.973)" fill="#d3dce5"/>
        <path id="Trazado_1241396" data-name="Trazado 1241396" d="M10.123,48h46.7a2.129,2.129,0,0,1,2.123,2.123V56.49A4.244,4.244,0,0,1,54.7,60.735H12.245A4.244,4.244,0,0,1,8,56.49V50.123A2.129,2.129,0,0,1,10.123,48Z" transform="translate(-8 -1.307)" fill="#536882"/>
        <path id="Trazado_1241397" data-name="Trazado 1241397" d="M25,52H39.858v4.245H25Z" transform="translate(-6.959 -1.062)" fill="#d3dce5"/>
      </g>
      <g id="Grupo_1200435" data-name="Grupo 1200435" transform="translate(7.01 3.017)">
        <path id="Trazado_1241398" data-name="Trazado 1241398" d="M57.844,49.864l-.435-18.774A30.654,30.654,0,0,0,42.87,5.652a17.851,17.851,0,0,0-18.668,0A30.629,30.629,0,0,0,9.663,31.091L9.228,49.864A3.176,3.176,0,0,0,7.01,52.878v6.368a5.308,5.308,0,0,0,5.306,5.306h42.44a5.308,5.308,0,0,0,5.306-5.306V52.878A3.166,3.166,0,0,0,57.844,49.864ZM25.317,7.456a15.7,15.7,0,0,1,16.439,0A28.544,28.544,0,0,1,55.3,31.133l.435,18.561H53.557a18.544,18.544,0,0,0,.233-2.781c0-6.7-3.269-11.939-7.429-11.939-2.738,0-5.083,2.271-6.368,5.731-1.284-3.46-3.63-5.731-6.368-5.731s-5.083,2.271-6.368,5.731c-1.284-3.46-3.63-5.731-6.368-5.731-4.16,0-7.429,5.243-7.429,11.939a18.544,18.544,0,0,0,.233,2.781H11.361L11.8,31.133A28.53,28.53,0,0,1,25.338,7.456ZM15.829,49.694a17.034,17.034,0,0,1-.255-2.781c0-5.317,2.43-9.817,5.306-9.817s5.306,4.5,5.306,9.817a15.936,15.936,0,0,1-.255,2.781Zm12.735,0a17.034,17.034,0,0,1-.255-2.781c0-5.317,2.43-9.817,5.306-9.817s5.306,4.5,5.306,9.817a15.936,15.936,0,0,1-.255,2.781H28.554Zm12.735,0a17.034,17.034,0,0,1-.255-2.781c0-5.317,2.43-9.817,5.306-9.817s5.306,4.5,5.306,9.817a15.936,15.936,0,0,1-.255,2.781H41.289ZM57.94,59.246a3.193,3.193,0,0,1-3.184,3.184H12.306a3.193,3.193,0,0,1-3.184-3.184V52.878a1.064,1.064,0,0,1,1.061-1.061h46.7a1.064,1.064,0,0,1,1.061,1.061Z" transform="translate(-7.01 -3.017)" fill="#1a2c3d"/>
        <path id="Trazado_1241399" data-name="Trazado 1241399" d="M39.919,51H25.061A1.064,1.064,0,0,0,24,52.061v4.245a1.064,1.064,0,0,0,1.061,1.061H39.919a1.064,1.064,0,0,0,1.061-1.061V52.061A1.064,1.064,0,0,0,39.919,51Zm-1.061,4.245H26.123V53.123H38.858Z" transform="translate(-5.969 -0.078)" fill="#1a2c3d"/>
        <circle id="Elipse_12343" data-name="Elipse 12343" cx="2.123" cy="2.123" r="2.123" transform="translate(38.195 51.983)" fill="#1a2c3d"/>
        <circle id="Elipse_12344" data-name="Elipse 12344" cx="2.123" cy="2.123" r="2.123" transform="translate(10.602 51.983)" fill="#1a2c3d"/>
        <path id="Trazado_1241400" data-name="Trazado 1241400" d="M32.061,19.368a1.064,1.064,0,0,0,1.061-1.061V14.061a1.061,1.061,0,0,0-2.123,0v4.245A1.064,1.064,0,0,0,32.061,19.368Z" transform="translate(-5.54 -2.406)" fill="#1a2c3d"/>
        <path id="Trazado_1241401" data-name="Trazado 1241401" d="M38.74,16.65a1.062,1.062,0,0,0,.817.393,1,1,0,0,0,.669-.244,1.062,1.062,0,0,0,.149-1.5l-2.7-3.279a1.063,1.063,0,0,0-1.645,1.348l2.7,3.279Z" transform="translate(-5.247 -2.49)" fill="#1a2c3d"/>
        <path id="Trazado_1241402" data-name="Trazado 1241402" d="M24.722,17.042a1.014,1.014,0,0,0,.817-.393l2.7-3.279a1.063,1.063,0,1,0-1.645-1.348l-2.7,3.279a1.062,1.062,0,0,0,.149,1.5,1.082,1.082,0,0,0,.669.244Z" transform="translate(-5.99 -2.49)" fill="#1a2c3d"/>
      </g>
    </g>
  </g>
</svg>
