<svg xmlns="http://www.w3.org/2000/svg" width="129.063" height="62" viewBox="0 0 129.063 62">
  <g id="Grupo_1200454" data-name="Grupo 1200454" transform="translate(6408.948 6943.141)">
    <g id="Grupo_1200329" data-name="Grupo 1200329" transform="translate(-7204.729 -8947.072)">
      <g id="Rectángulo_410589" data-name="Rectángulo 410589" transform="translate(795.781 2013.422)" fill="#ffe9b5" stroke="#dfab32" stroke-width="1">
        <rect width="129.063" height="43.021" rx="8" stroke="none"/>
        <rect x="0.5" y="0.5" width="128.063" height="42.021" rx="7.5" fill="none"/>
      </g>
    </g>
    <g id="Layer_20" data-name="Layer 20" transform="translate(-6382.416 -6944.141)">
      <path id="Trazado_1241403" data-name="Trazado 1241403" d="M36,2c-7.709,0-14.528,8.634-18.7,19.124L22,27h7L39,39,28,35,18,37l-4.267-3.2A49.556,49.556,0,0,0,13,42c0,16.569,10.3,20,23,20s23-3.431,23-20S48.7,2,36,2Z" transform="translate(3.807)" fill="#f5b95b"/>
      <g id="Grupo_1200437" data-name="Grupo 1200437" transform="translate(5 2)">
        <path id="Trazado_1241404" data-name="Trazado 1241404" d="M38.245,2C29.783,2,22.3,10.634,17.72,21.124L22.878,27h7.683L41.538,39,29.464,35,18.488,37,13.8,33.8A45.274,45.274,0,0,0,13,42c0,4.882.988,8.616,2.729,11.465A29.177,29.177,0,0,0,25.074,55c16.973,0,30.733-14.551,30.733-32.5a34.206,34.206,0,0,0-1.259-9.2C50.15,6.664,44.462,2,38.245,2Z" transform="translate(-5 -2)" fill="#f9d18f"/>
        <path id="Trazado_1241405" data-name="Trazado 1241405" d="M6,20l5-2,2,4Z" transform="translate(-5 -2)" fill="#f9d18f"/>
        <path id="Trazado_1241406" data-name="Trazado 1241406" d="M5,31l5,2,2-4Z" transform="translate(-5 -2)" fill="#f9d18f"/>
      </g>
      <path id="Trazado_1241407" data-name="Trazado 1241407" d="M5.726,20.961l7,2A.986.986,0,0,0,13,23a1,1,0,0,0,.9-1.447l-2-4a1,1,0,0,0-1.266-.482l-5,2a1,1,0,0,0,.1,1.89Zm4.791-1.691.572,1.144-2-.572Z" transform="translate(0 0)"/>
      <path id="Trazado_1241408" data-name="Trazado 1241408" d="M12.77,28.361a1,1,0,0,0-1.044-.322l-7,2a1,1,0,0,0-.1,1.89l5,2A.986.986,0,0,0,10,34a1,1,0,0,0,.895-.553l2-4a1,1,0,0,0-.125-1.086ZM9.517,31.73l-1.43-.572,2-.572Z" transform="translate(0 0)"/>
      <path id="Trazado_1241409" data-name="Trazado 1241409" d="M8,37h2v2H8Z" transform="translate(0 0)"/>
      <path id="Trazado_1241410" data-name="Trazado 1241410" d="M5,24H7v2H5Z" transform="translate(0 0)"/>
      <path id="Trazado_1241411" data-name="Trazado 1241411" d="M15,27h2v2H15Z" transform="translate(0.775 0)"/>
      <path id="Trazado_1241412" data-name="Trazado 1241412" d="M37.9,1C29.949,1,22.028,8.385,16.717,20.754a.941.941,0,0,0,.16,1l5.073,5.876a1.114,1.114,0,0,0,.844.375h7.049l7.91,8.794-8.114-2.733a1.153,1.153,0,0,0-.581-.041l-10.32,1.912L14.517,33a1.15,1.15,0,0,0-1.048-.129,1.02,1.02,0,0,0-.664.762A46.919,46.919,0,0,0,12,42c0,18.613,13.843,21,25.9,21s25.9-2.387,25.9-21c0-16.128-11.123-41-25.9-41ZM53.777,26.293,49.143,22h8.08a57.724,57.724,0,0,1,4.246,16.417l-7.376-6.831V27a.964.964,0,0,0-.316-.707ZM23.311,26l-4.355-5.044C23.853,9.864,31.081,3,37.9,3c7.441,0,14.083,7.607,18.438,17h-9.8a1.124,1.124,0,0,0-.763.293L39.615,26ZM37.9,61c-11.742,0-23.745-2.258-23.745-19a43.176,43.176,0,0,1,.5-6.4l3.166,2.2a1.146,1.146,0,0,0,.863.18l10.5-1.945,11.587,3.9a1.129,1.129,0,0,0,1.253-.364.943.943,0,0,0-.054-1.216L32.653,28h7.409a1.124,1.124,0,0,0,.763-.293l5.713-5.293,5.4,5V32a.964.964,0,0,0,.316.707l9.39,8.7c0,.2.013.4.013.6C61.648,51.4,58.827,61,37.9,61Z" transform="translate(0 0)"/>
    </g>
  </g>
</svg>
