<svg xmlns="http://www.w3.org/2000/svg" width="129.063" height="69.849" viewBox="0 0 129.063 69.849">
  <g id="Grupo_1200439" data-name="Grupo 1200439" transform="translate(6071 6947.065)">
    <g id="Grupo_1200330" data-name="Grupo 1200330" transform="translate(-6866.781 -8947.072)">
      <g id="Rectángulo_410589" data-name="Rectángulo 410589" transform="translate(795.781 2013.422)" fill="#ffe9b5" stroke="#dfab32" stroke-width="1">
        <rect width="129.063" height="43.021" rx="8" stroke="none"/>
        <rect x="0.5" y="0.5" width="128.063" height="42.021" rx="7.5" fill="none"/>
      </g>
    </g>
    <g id="pollo" transform="translate(-6071.763 -6947.064)">
      <g id="Grupo_1200438" data-name="Grupo 1200438" transform="translate(35.857 31.801)">
        <path id="Trazado_1241413" data-name="Trazado 1241413" d="M51.059,249.231a9.333,9.333,0,0,0,10.331-8.214L42.845,238.9A9.332,9.332,0,0,0,51.059,249.231Z" transform="translate(-42.783 -238.111)" fill="#f5e038"/>
        <path id="Trazado_1241414" data-name="Trazado 1241414" d="M344.974,244.193a9.332,9.332,0,0,0,7.171-11.08l-18.251,3.908A9.333,9.333,0,0,0,344.974,244.193Z" transform="translate(-294.18 -233.113)" fill="#f5e038"/>
      </g>
      <circle id="Elipse_12345" data-name="Elipse 12345" cx="15.165" cy="15.165" r="15.165" transform="translate(50.931 27.958)" fill="#f9c900"/>
      <path id="Trazado_1241415" data-name="Trazado 1241415" d="M200,206.518a15.171,15.171,0,0,0-18.034,3.392,11.665,11.665,0,0,0,22.656.172A15.122,15.122,0,0,0,200,206.518Z" transform="translate(-127.124 -176.959)" fill="#f9aa0c"/>
      <circle id="Elipse_12346" data-name="Elipse 12346" cx="11.666" cy="11.666" r="11.666" transform="translate(54.527 14.763)" fill="#f9c900"/>
      <path id="Trazado_1241416" data-name="Trazado 1241416" d="M160.313,325.193l-4.666-9.333-4.666,9.333-4.666-4.666-4.666,7-4.666-9.333-4.666,7-4.388-5.851a24.322,24.322,0,0,0-.278,3.518,18.665,18.665,0,0,0,37.33,0,24.32,24.32,0,0,0-.278-3.518Z" transform="translate(-80.214 -272.77)" fill="#f1ede8"/>
      <path id="Trazado_1241417" data-name="Trazado 1241417" d="M133.645,345.239l-1.328,1.992-4.388-5.851a24.32,24.32,0,0,0-.278,3.518,18.665,18.665,0,0,0,18.665,18.665,18.865,18.865,0,0,0,1.936-.1A22.186,22.186,0,0,1,133.645,345.239Z" transform="translate(-80.216 -294.808)" fill="#e3dcd2"/>
      <path id="Trazado_1241418" data-name="Trazado 1241418" d="M134.219,31.456l4.772,9.279,4.586-7.052,4.719,4.613,4.56-9.385,4.772,9.279,4.321-5.9c-1.645-10.343-9.456-24.373-18.665-24.269s-16.7,14.31-18.107,24.688l4.455,5.8Z" transform="translate(-78.081 -6.925)" fill="#f1ede8"/>
      <path id="Trazado_1241419" data-name="Trazado 1241419" d="M132.515,27.85A21.005,21.005,0,0,1,145.761,8.33a9.373,9.373,0,0,0-2.476-.311c-9.209.105-16.7,14.31-18.107,24.687l4.455,5.8,3.536-5.438A21.031,21.031,0,0,1,132.515,27.85Z" transform="translate(-78.081 -6.925)" fill="#e3dcd2"/>
      <path id="Trazado_1241420" data-name="Trazado 1241420" d="M94.892,31.572a1.094,1.094,0,0,0-1.3-.84L79.4,33.771A16.374,16.374,0,0,0,77.765,31.8q.2-.438.372-.887l.438.852a1.1,1.1,0,0,0,1.855.146l4.321-5.9a1.093,1.093,0,0,0,.2-.818,41.8,41.8,0,0,0-3.836-11.66,1.094,1.094,0,1,0-1.959.974,39.917,39.917,0,0,1,3.56,10.584l-3,4.1-3.963-7.705a1.1,1.1,0,0,0-1.956.022l-3.9,8.02-3.634-3.552a1.1,1.1,0,0,0-1.681.186l-3.559,5.472-3.91-7.6a1.1,1.1,0,0,0-1.889-.1L51.478,29.69l-3.233-4.209c1.487-9.812,8.529-23.2,16.972-23.293h.092c4.47,0,8.18,3.71,10.511,6.834a1.094,1.094,0,1,0,1.753-1.308C73.772,2.618,69.492-.052,65.192,0,55.068.116,47.426,15.23,46.014,25.634a1.094,1.094,0,0,0,.216.813l4.455,5.8a1.1,1.1,0,0,0,1.784-.07l1.456-2.239a12.746,12.746,0,0,0,.629,1.729,16.151,16.151,0,0,0-1.523,1.774L36.042,31.5a1.094,1.094,0,0,0-1.211.963,10.426,10.426,0,0,0,9.177,11.541,10.4,10.4,0,0,0,5.832-1.027,16.289,16.289,0,0,0,1.137,6.12l-2.389-3.186a1.1,1.1,0,0,0-1.957.5,25.42,25.42,0,0,0-.29,3.677,19.57,19.57,0,0,0,2.006,8.685,1.094,1.094,0,0,0,1.964-.962,17.4,17.4,0,0,1-1.783-7.722q0-.292.01-.595l2.688,3.584a1.1,1.1,0,0,0,1.785-.05L56.632,47.6l3.824,7.647a1.1,1.1,0,0,0,1.888.118l3.926-5.889L69.993,53.2a1.1,1.1,0,0,0,1.752-.284l3.688-7.376,3.688,7.376a1.1,1.1,0,0,0,1.853.167L83.662,49.5q.01.3.009.595A17.571,17.571,0,0,1,53.812,62.65a1.094,1.094,0,0,0-1.53,1.564A19.759,19.759,0,0,0,85.858,50.09a25.407,25.407,0,0,0-.29-3.678,1.1,1.1,0,0,0-1.957-.5l-2.4,3.2a16.246,16.246,0,0,0,1.135-5.206A10.426,10.426,0,0,0,94.892,31.572ZM56.028,26.706l3.91,7.6a1.1,1.1,0,0,0,1.889.1l3.859-5.934,3.765,3.68a1.1,1.1,0,0,0,1.748-.3l3.6-7.418,1.843,3.584a10.573,10.573,0,0,1-20.977-.561,1.1,1.1,0,0,0-.028-.154ZM44.256,41.835a8.242,8.242,0,0,1-7.3-8.025L51.741,35.5c-.063.118-.127.235-.187.354a16.228,16.228,0,0,0-1.463,4.427c-.025.015-.051.031-.075.049A8.22,8.22,0,0,1,44.256,41.835ZM75.432,42a1.093,1.093,0,0,0-.978.6l-3.988,7.975-3.593-3.594a1.1,1.1,0,0,0-1.683.167l-3.621,5.431-3.824-7.647a1.1,1.1,0,0,0-1.888-.118l-2.644,3.966a14.086,14.086,0,0,1,2.461-15.117,12.771,12.771,0,0,0,17.382,3.526,12.67,12.67,0,0,0,3.568-3.41A14.017,14.017,0,0,1,79.215,48.21L76.41,42.6A1.094,1.094,0,0,0,75.432,42Zm10.99-.184a8.222,8.222,0,0,1-4.122-.173,16.185,16.185,0,0,0-1.7-5.887l12.312-2.637A8.252,8.252,0,0,1,86.422,41.812Z" transform="translate(0 0)"/>
    </g>
  </g>
</svg>
