<svg xmlns="http://www.w3.org/2000/svg" width="129.063" height="62.583" viewBox="0 0 129.063 62.583">
  <g id="Grupo_1200455" data-name="Grupo 1200455" transform="translate(5732.948 6943.432)">
    <g id="Grupo_1200331" data-name="Grupo 1200331" transform="translate(-6528.729 -8947.072)">
      <g id="Rectángulo_410589" data-name="Rectángulo 410589" transform="translate(795.781 2013.422)" fill="#ffe9b5" stroke="#dfab32" stroke-width="1">
        <rect width="129.063" height="43.021" rx="8" stroke="none"/>
        <rect x="0.5" y="0.5" width="128.063" height="42.021" rx="7.5" fill="none"/>
      </g>
    </g>
    <g id="pollo3" transform="translate(-5707 -6949.021)">
      <g id="Grupo_1200440" data-name="Grupo 1200440" transform="translate(25.309 55.927)">
        <path id="Trazado_1241421" data-name="Trazado 1241421" d="M33.6,85.83a2.208,2.208,0,0,0,2.2,2.2h9.5c3.388,0,3.049-5.511,0-5.5l-1.065,0-4.52.011V77.066c-1.676,0-3.42-.006-5.22-.014q-.457,0-.9-.021v8.8Z" transform="translate(-33.599 -77.031)" fill="#ffc561" fill-rule="evenodd"/>
      </g>
      <g id="Grupo_1200441" data-name="Grupo 1200441" transform="translate(35.921 55.798)">
        <path id="Trazado_1241422" data-name="Trazado 1241422" d="M49.767,87.988H60.685c3.417,0,3.417-5.511,0-5.5l-5.864.015v-5.61c-1.893.085-3.941.113-6.119.117v5.482l1.065,0c3.05-.007,3.388,5.5,0,5.5Z" transform="translate(-48.672 -76.859)" fill="#ffc561" fill-rule="evenodd"/>
        <path id="Trazado_1241423" data-name="Trazado 1241423" d="M60.673,88.006H49.754a.031.031,0,0,1-.03-.03.03.03,0,0,1,.03-.03,2.224,2.224,0,0,0,1.8-.809,2.88,2.88,0,0,0,.583-1.807A2.592,2.592,0,0,0,49.761,82.5l-1.07,0h0a.028.028,0,0,1-.02-.008.031.031,0,0,1-.009-.022V76.994a.03.03,0,0,1,.03-.03c2.489,0,4.433-.042,6.118-.117a.034.034,0,0,1,.022.008.028.028,0,0,1,.009.022v5.58l5.834-.015a2.585,2.585,0,0,1,2.593,2.78,2.991,2.991,0,0,1-.648,1.912,2.437,2.437,0,0,1-1.945.872Zm-10.333-.06H60.673a2.376,2.376,0,0,0,1.9-.85,2.935,2.935,0,0,0,.633-1.874A2.525,2.525,0,0,0,60.68,82.5l-5.871.014a.032.032,0,0,1-.022-.009.03.03,0,0,1-.008-.021V76.908c-1.671.074-3.6.111-6.059.115v5.423l1.034,0A2.651,2.651,0,0,1,52.2,85.33a2.937,2.937,0,0,1-.6,1.844,2.179,2.179,0,0,1-1.265.772Z" transform="translate(-48.66 -76.847)" fill="#221f20"/>
      </g>
      <g id="Grupo_1200442" data-name="Grupo 1200442" transform="translate(34.613 54.58)">
        <path id="Trazado_1241424" data-name="Trazado 1241424" d="M60.124,88.711H48.049a1.247,1.247,0,0,1,0-2.494H60.124a1.152,1.152,0,0,0,1.087-.59,1.942,1.942,0,0,0,0-1.835,1.146,1.146,0,0,0-1.079-.585h0l-5.863.014h0a1.247,1.247,0,0,1-1.247-1.246V77.66c-1.077.034-2.267.055-3.625.063v4.24a1.247,1.247,0,1,1-2.494,0V76.482a1.246,1.246,0,0,1,1.245-1.247c2.471,0,4.4-.041,6.065-.116a1.247,1.247,0,0,1,1.3,1.246v4.36l4.614-.011h.009a3.637,3.637,0,0,1,3.238,1.828,4.456,4.456,0,0,1,0,4.33,3.643,3.643,0,0,1-3.247,1.839Z" transform="translate(-46.803 -75.118)" fill="#333"/>
      </g>
      <g id="Grupo_1200443" data-name="Grupo 1200443" transform="translate(54.37 21.156)">
        <path id="Trazado_1241425" data-name="Trazado 1241425" d="M74.885,32.3l4.948,4.74,7.6-4.824-8.538-4.5v0Z" transform="translate(-74.855 -27.695)" fill="#ffc561" fill-rule="evenodd"/>
        <path id="Trazado_1241426" data-name="Trazado 1241426" d="M79.821,37.062a.027.027,0,0,1-.02-.008l-4.948-4.739a.03.03,0,0,1,0-.042L78.858,27.7a.025.025,0,0,1,.011-.012.028.028,0,0,1,.03,0l8.538,4.5a.029.029,0,0,1,.016.025.03.03,0,0,1-.014.027l-7.6,4.824a.028.028,0,0,1-.016,0Zm-4.907-4.771,4.91,4.7,7.536-4.784-8.469-4.459Z" transform="translate(-74.843 -27.682)" fill="#221f20"/>
      </g>
      <g id="Grupo_1200444" data-name="Grupo 1200444" transform="translate(6.742 6.806)">
        <path id="Trazado_1241427" data-name="Trazado 1241427" d="M9.978,26.013c-5.8,5.027-2.939,29.62,15.849,30.436v-.011c.265.014.53.018.8.021,1.847,0,3.622.015,5.32.007v.017a109.494,109.494,0,0,0,12.305-.495c6.408-.768,15.4-5.914,15.548-19.234l.063-5.726-4.948-4.74,4.011-4.576v0c-.753-5.334-5.309-10.258-10.745-10.572-1.118-1.673-3.675-2.854-5.878-3.777a11.009,11.009,0,0,1,1.114,3.583,11.3,11.3,0,0,0-6.257-1.418,10.26,10.26,0,0,1,2.9,3.876c-4.5.87-5.6,6.656-5.988,10.349a6.947,6.947,0,0,1-3.89,5.7C24.5,32.422,14.615,30.512,9.978,26.013Z" transform="translate(-7.26 -7.329)" fill="#ffff87" fill-rule="evenodd"/>
        <path id="Trazado_1241428" data-name="Trazado 1241428" d="M31.937,56.5a.029.029,0,0,1-.021-.008.027.027,0,0,1-.006-.009c-1.191,0-2.42,0-3.684,0l-1.608,0c-.256,0-.519-.007-.781-.02h0a.028.028,0,0,1-.022.008A17.649,17.649,0,0,1,14.649,52.13,21.487,21.487,0,0,1,8.7,42.985,25.433,25.433,0,0,1,7.315,32.838c.254-3.174,1.189-5.61,2.631-6.859a.029.029,0,0,1,.04,0c2.995,2.906,8.431,4.858,13.527,4.858a14.461,14.461,0,0,0,6.644-1.425,6.916,6.916,0,0,0,3.875-5.678,21.246,21.246,0,0,1,1.455-6.242c1.029-2.345,2.549-3.733,4.521-4.127A10.2,10.2,0,0,0,37.13,9.533a.03.03,0,0,1,.02-.053,11.245,11.245,0,0,1,6.22,1.388,10.991,10.991,0,0,0-1.1-3.509.03.03,0,0,1,0-.034.028.028,0,0,1,.033-.007c2.417,1.013,4.8,2.171,5.883,3.776a11.053,11.053,0,0,1,7.133,3.412,12.914,12.914,0,0,1,3.625,7.186V21.7a.03.03,0,0,1-.007.02l-3.992,4.555,4.927,4.719a.029.029,0,0,1,.009.022l-.064,5.726a23.234,23.234,0,0,1-1.593,8.528,17.367,17.367,0,0,1-3.842,5.817,17.631,17.631,0,0,1-10.139,4.918,110.991,110.991,0,0,1-12.307.5Zm0-.078a.03.03,0,0,1,.021.008l.006.009a111.087,111.087,0,0,0,12.274-.495c7.071-.847,15.379-6.385,15.522-19.2l.063-5.714L54.886,26.3a.03.03,0,0,1,0-.042l4-4.567c-.8-5.607-5.5-10.234-10.716-10.536a.03.03,0,0,1-.023-.013c-1.057-1.582-3.4-2.73-5.791-3.736a10.965,10.965,0,0,1,1.082,3.521.03.03,0,0,1-.014.03.029.029,0,0,1-.032,0,11.018,11.018,0,0,0-6.16-1.413,10.169,10.169,0,0,1,2.847,3.835.032.032,0,0,1,0,.025.031.031,0,0,1-.021.015c-3.343.646-5.294,4.023-5.964,10.323a6.972,6.972,0,0,1-3.906,5.725A14.523,14.523,0,0,1,23.515,30.9a22.723,22.723,0,0,1-7.485-1.3,16.815,16.815,0,0,1-6.064-3.552c-3,2.632-3.544,10.212-1.207,16.923,2.852,8.188,9.059,13.085,17.035,13.441h0a.031.031,0,0,1,.023-.008c.268.014.54.017.8.02l1.608,0c1.273,0,2.51.006,3.71,0Z" transform="translate(-7.247 -7.316)" fill="#221f20"/>
      </g>
      <g id="Grupo_1200445" data-name="Grupo 1200445" transform="translate(5.536 5.589)">
        <path id="Trazado_1241429" data-name="Trazado 1241429" d="M31.119,57.208q-1.765,0-3.624-.009l-1.288,0a19.1,19.1,0,0,1-12.355-4.228,22.281,22.281,0,0,1-6.623-9.585C4.5,36.033,5.137,27.585,8.645,24.549a1.246,1.246,0,0,1,1.684.048c2.783,2.7,7.88,4.515,12.68,4.515a13.262,13.262,0,0,0,6.081-1.287,5.692,5.692,0,0,0,3.229-4.73,22.4,22.4,0,0,1,1.551-6.6,8.078,8.078,0,0,1,3.9-4.347,10.264,10.264,0,0,0-1.94-2.2,1.247,1.247,0,0,1,.816-2.189,16.7,16.7,0,0,1,4.415.5q-.174-.433-.39-.87a1.247,1.247,0,0,1,1.6-1.7c2.361.989,4.7,2.125,6.055,3.733,5.363.61,10.12,5.257,11.213,10.951l7.992,4.208a1.247,1.247,0,0,1,.087,2.156L60.587,31.2l-.056,5.05c-.07,6.244-2.073,11.5-5.795,15.194A18.873,18.873,0,0,1,43.883,56.7a111.687,111.687,0,0,1-12.765.5ZM9.573,27.248C7.738,30,7.276,36.342,9.566,42.515,11.25,47.053,15.653,54.67,26.214,54.7l1.289,0q1.853.006,3.615.008a109.931,109.931,0,0,0,12.469-.485c6.582-.789,14.315-5.979,14.45-18.01l.064-5.726a1.245,1.245,0,0,1,.578-1.039l5.784-3.671L57.9,22.324a1.241,1.241,0,0,1-.719-.96c-.7-4.976-5-9.24-9.583-9.505a1.249,1.249,0,0,1-.965-.552,7.614,7.614,0,0,0-2.669-2.091,10.523,10.523,0,0,1,.18,1.059,1.247,1.247,0,0,1-1.926,1.185,6.925,6.925,0,0,0-2.545-.967A9.832,9.832,0,0,1,40.7,12.416,1.247,1.247,0,0,1,39.78,14.1c-2.748.531-4.378,3.559-4.984,9.257a8.231,8.231,0,0,1-4.552,6.675A15.727,15.727,0,0,1,23.007,31.6,22.362,22.362,0,0,1,9.573,27.248Z" transform="translate(-5.536 -5.589)" fill="#333"/>
      </g>
      <g id="Grupo_1200446" data-name="Grupo 1200446" transform="translate(15.452 33.556)">
        <path id="Trazado_1241430" data-name="Trazado 1241430" d="M48.387,47.164c3.937-1.079,2.346,5.779.881,8.453-4.063,7.414-21.4,7.491-15.1,1.333-8.153.683-13.472-3.286-12.719-9.228,11.093,2.847,18.962,1.63,26.937-.559Z" transform="translate(-20.132 -45.803)" fill="#ffc561" fill-rule="evenodd"/>
        <path id="Trazado_1241431" data-name="Trazado 1241431" d="M36.687,62.111c-2.907,0-4.845-.829-5.459-2.333a2.759,2.759,0,0,1,0-2.037c-4.1-.123-7.46-1.462-9.52-3.8a8.514,8.514,0,0,1-2.021-6.9,1.246,1.246,0,0,1,1.547-1.051,48.261,48.261,0,0,0,12.1,1.627h0a52.611,52.611,0,0,0,14.191-2.18,4.179,4.179,0,0,1,1.1-.159,2.678,2.678,0,0,1,2.394,1.342c1.389,2.344-.087,7.064-1.185,9.071-2.31,4.213-8.364,6.418-13.152,6.418C36.687,62.111,36.687,62.111,36.687,62.111Zm-3.04-6.93a1.247,1.247,0,0,1,.872,2.138c-.95.928-1.016,1.432-.982,1.517.1.245,1.031.781,3.15.781h0c3.954,0,9.142-1.8,10.965-5.122,1.055-1.926,1.854-5.543,1.227-6.6-.049-.082-.071-.12-.249-.12a1.693,1.693,0,0,0-.436.07,54.94,54.94,0,0,1-14.851,2.269h0a49.574,49.574,0,0,1-11.22-1.339,5.865,5.865,0,0,0,1.46,3.52c1.685,1.911,4.624,2.964,8.278,2.964h0c.546,0,1.112-.025,1.681-.073.035,0,.07,0,.1,0Z" transform="translate(-19.61 -45.28)" fill="#333"/>
      </g>
      <g id="Grupo_1200447" data-name="Grupo 1200447" transform="translate(53.153 19.942)">
        <path id="Trazado_1241432" data-name="Trazado 1241432" d="M79.311,37.769a1.242,1.242,0,0,1-.862-.347L73.5,32.683a1.246,1.246,0,0,1-.075-1.722l4.011-4.577a1.247,1.247,0,0,1,1.876,1.643l-3.225,3.68,4.087,3.914a1.247,1.247,0,0,1-.863,2.148Z" transform="translate(-73.116 -25.958)" fill="#333"/>
      </g>
      <g id="Grupo_1200448" data-name="Grupo 1200448" transform="translate(41.467 16.596)">
        <path id="Trazado_1241433" data-name="Trazado 1241433" d="M57.777,25.8a1.247,1.247,0,0,1-1.141-1.748,4.716,4.716,0,0,1,4.3-2.844,4.862,4.862,0,0,1,4.5,2.811,1.247,1.247,0,0,1-2.253,1.068A2.392,2.392,0,0,0,60.971,23.7a2.221,2.221,0,0,0-2.051,1.352,1.249,1.249,0,0,1-1.143.746Z" transform="translate(-56.531 -21.21)" fill="#333"/>
      </g>
      <g id="Grupo_1200449" data-name="Grupo 1200449" transform="translate(24.063 54.669)">
        <path id="Trazado_1241434" data-name="Trazado 1241434" d="M44.783,88.749h-9.5A3.452,3.452,0,0,1,31.83,85.3v-8.81a1.247,1.247,0,0,1,1.313-1.245c.241.013.5.016.746.02l1.6,0c1.272,0,2.507.008,3.7,0H39.2a1.247,1.247,0,0,1,1.247,1.247v4.242l4.335-.011a3.834,3.834,0,0,1,3.666,4.1,4.152,4.152,0,0,1-.865,2.607,3.506,3.506,0,0,1-2.8,1.287ZM34.323,77.76V85.3a.956.956,0,0,0,.957.953h9.5a.989.989,0,0,0,.855-.356,1.691,1.691,0,0,0,.314-1.044c0-.647-.31-1.611-1.163-1.611l-5.588.014h0a1.247,1.247,0,0,1-1.247-1.246V77.769q-1.21,0-2.469,0l-1.16,0Z" transform="translate(-31.83 -75.244)" fill="#333"/>
      </g>
    </g>
  </g>
</svg>
