<svg xmlns="http://www.w3.org/2000/svg" width="129.063" height="68.789" viewBox="0 0 129.063 68.789">
  <g id="Grupo_1200453" data-name="Grupo 1200453" transform="translate(6764 6493.511)">
    <g id="Grupo_1200332" data-name="Grupo 1200332" transform="translate(-7559.781 -8493.072)">
      <g id="Rectángulo_410589" data-name="Rectángulo 410589" transform="translate(795.781 2013.422)" fill="#ffe9b5" stroke="#dfab32" stroke-width="1">
        <rect width="129.063" height="43.021" rx="8" stroke="none"/>
        <rect x="0.5" y="0.5" width="128.063" height="42.021" rx="7.5" fill="none"/>
      </g>
    </g>
    <g id="vacunacion" transform="translate(-6734 -6496.345)">
      <g id="Grupo_1200451" data-name="Grupo 1200451" transform="translate(1.021 14.075)">
        <path id="Trazado_1241435" data-name="Trazado 1241435" d="M70.476,85.578H73.53a1.056,1.056,0,0,1,1.055,1.052V92.46a1.057,1.057,0,0,1-1.055,1.055H70.476a1.059,1.059,0,0,1-1.055-1.055V86.63A1.059,1.059,0,0,1,70.476,85.578Z" transform="translate(-61.01 -85.578)" fill="#bed8fb" fill-rule="evenodd"/>
        <path id="Trazado_1241436" data-name="Trazado 1241436" d="M35.858,126.544a2.591,2.591,0,0,1,2.58-2.584h9.123a2.592,2.592,0,0,1,2.584,2.584v33.709H35.858Z" transform="translate(-32.007 -118.746)" fill="#faf8f9" fill-rule="evenodd"/>
        <path id="Trazado_1241437" data-name="Trazado 1241437" d="M69.422,405.246h5.164v10.513H69.422Z" transform="translate(-61.011 -361.817)" fill="#bed8fb" fill-rule="evenodd"/>
        <path id="Trazado_1241438" data-name="Trazado 1241438" d="M29.088,468.8H40.749a2.582,2.582,0,1,0,0-5.164H29.088a2.582,2.582,0,1,0,0,5.164Z" transform="translate(-23.924 -412.277)" fill="#0c5e7f" fill-rule="evenodd"/>
        <path id="Trazado_1241439" data-name="Trazado 1241439" d="M10.092,391.418H26.922a2.582,2.582,0,0,0,0-5.164H10.092a2.582,2.582,0,0,0,0,5.164Z" transform="translate(-7.512 -345.405)" fill="#0c5e7f" fill-rule="evenodd"/>
        <path id="Trazado_1241440" data-name="Trazado 1241440" d="M46.849,123.961h.712a2.592,2.592,0,0,1,2.584,2.584V159.6H35.858v-3.3H44.87a1.984,1.984,0,0,0,1.979-1.979V123.961Z" transform="translate(-32.007 -118.746)" fill="#ede9fb" fill-rule="evenodd"/>
        <path id="Trazado_1241441" data-name="Trazado 1241441" d="M227.483,265.309c0-2.892,4.359-1.282,4.359-6.974l3.273-.662,3.555.662c0,5.692,4.359,4.082,4.359,6.974v23.33a2.185,2.185,0,0,1-2.18,2.18H229.663a2.188,2.188,0,0,1-2.18-2.18Z" transform="translate(-197.599 -234.292)" fill="#faf8f9" fill-rule="evenodd"/>
        <path id="Trazado_1241442" data-name="Trazado 1241442" d="M390.053,265.309c0-2.892,4.359-1.282,4.359-6.974l3.012-.662,3.82.662c0,5.692,4.359,4.082,4.359,6.974v23.33a2.188,2.188,0,0,1-2.18,2.18H392.233a2.188,2.188,0,0,1-2.18-2.18Z" transform="translate(-338.082 -234.292)" fill="#faf8f9" fill-rule="evenodd"/>
        <path id="Trazado_1241443" data-name="Trazado 1241443" d="M235.385,262.547h3.285c0,5.692,4.359,4.082,4.359,6.974v23.33a2.185,2.185,0,0,1-2.18,2.18H229.663a2.188,2.188,0,0,1-2.18-2.18v-1.117h10.071a2.185,2.185,0,0,0,2.18-2.18v-17.4C239.733,268.027,235.609,270.827,235.385,262.547Z" transform="translate(-197.599 -238.505)" fill="#ede9fb" fill-rule="evenodd"/>
        <path id="Trazado_1241444" data-name="Trazado 1241444" d="M397.955,262.547h3.289c0,5.692,4.359,4.082,4.359,6.974v23.33a2.188,2.188,0,0,1-2.18,2.18H392.233a2.188,2.188,0,0,1-2.18-2.18v-1.117h10.074a2.188,2.188,0,0,0,2.18-2.18v-17.4C402.307,268.027,398.182,270.827,397.955,262.547Z" transform="translate(-338.082 -238.505)" fill="#ede9fb" fill-rule="evenodd"/>
        <path id="Trazado_1241445" data-name="Trazado 1241445" d="M229.663,216.544H240.85a2.185,2.185,0,0,0,2.18-2.18v-2.873a2.185,2.185,0,0,0-2.18-2.18H229.663a2.188,2.188,0,0,0-2.18,2.18v2.873A2.188,2.188,0,0,0,229.663,216.544Z" transform="translate(-197.599 -192.502)" fill="#cbe2ff" fill-rule="evenodd"/>
        <path id="Trazado_1241446" data-name="Trazado 1241446" d="M392.233,216.544h11.191a2.188,2.188,0,0,0,2.18-2.18v-2.873a2.188,2.188,0,0,0-2.18-2.18H392.233a2.188,2.188,0,0,0-2.18,2.18v2.873A2.187,2.187,0,0,0,392.233,216.544Z" transform="translate(-338.082 -192.502)" fill="#cbe2ff" fill-rule="evenodd"/>
        <path id="Trazado_1241447" data-name="Trazado 1241447" d="M229.663,216.544H240.85a2.185,2.185,0,0,0,2.18-2.18v-2.873a2.185,2.185,0,0,0-2.18-2.18h-1.117v1.3a2.644,2.644,0,0,1-2.638,2.634h-9.612v1.121A2.187,2.187,0,0,0,229.663,216.544Z" transform="translate(-197.599 -192.502)" fill="#bed8fb" fill-rule="evenodd"/>
        <path id="Trazado_1241448" data-name="Trazado 1241448" d="M392.233,216.544h11.191a2.188,2.188,0,0,0,2.18-2.18v-2.873a2.188,2.188,0,0,0-2.18-2.18h-1.117v1.3a2.646,2.646,0,0,1-2.638,2.634h-9.616v1.121A2.187,2.187,0,0,0,392.233,216.544Z" transform="translate(-338.082 -192.502)" fill="#bed8fb" fill-rule="evenodd"/>
        <path id="Trazado_1241449" data-name="Trazado 1241449" d="M278.622,342.485h-8.9a1.057,1.057,0,0,0-1.055,1.055v13.3a1.057,1.057,0,0,0,1.055,1.055h8.9Z" transform="translate(-233.191 -307.583)" fill="#ffbe83" fill-rule="evenodd"/>
        <path id="Trazado_1241450" data-name="Trazado 1241450" d="M441.2,342.485h-8.9a1.057,1.057,0,0,0-1.055,1.055v13.3A1.057,1.057,0,0,0,432.3,357.9h8.9Z" transform="translate(-373.674 -307.583)" fill="#ffbe83" fill-rule="evenodd"/>
        <g id="Grupo_1200450" data-name="Grupo 1200450" transform="translate(42.135 34.902)">
          <path id="Trazado_1241451" data-name="Trazado 1241451" d="M317.654,342.485h3.3V357.9h-3.3Z" transform="translate(-317.654 -342.485)" fill="#ffab68" fill-rule="evenodd"/>
          <path id="Trazado_1241452" data-name="Trazado 1241452" d="M480.252,342.485h3.3V357.9h-3.3Z" transform="translate(-458.162 -342.485)" fill="#ffab68" fill-rule="evenodd"/>
        </g>
      </g>
      <path id="Trazado_1241453" data-name="Trazado 1241453" d="M6.185,69.581H17.846a1.562,1.562,0,0,0,0-3.123H6.185a1.562,1.562,0,1,0,0,3.123ZM67.521,50H59.607V63.369h7.914Zm-8.935-2.037h8.935V45.092c0-.608-.512-.9-1.113-1.236a5.242,5.242,0,0,1-3.2-4.721H58.325a5.247,5.247,0,0,1-3.2,4.721c-.6.339-1.113.628-1.113,1.236v9.358a1.019,1.019,0,0,1-2.037,0V45.092c0-1.8.994-2.357,2.157-3.012a3.532,3.532,0,0,0,2.137-2.946h-1.1a3.208,3.208,0,0,1-3.2-3.2V33.065a3.208,3.208,0,0,1,3.2-3.2H66.362a3.2,3.2,0,0,1,3.2,3.2v2.873a3.2,3.2,0,0,1-3.2,3.2h-1.1a3.544,3.544,0,0,0,2.137,2.95c1.163.651,2.157,1.209,2.157,3.008v23.33a3.2,3.2,0,0,1-3.2,3.2H55.171a3.208,3.208,0,0,1-3.2-3.2V59.064a1.019,1.019,0,0,1,2.037,0v9.358a1.163,1.163,0,0,0,1.159,1.159H66.362a1.164,1.164,0,0,0,1.159-1.159V65.407H58.587a1.019,1.019,0,0,1-1.021-1.016V48.978a1.019,1.019,0,0,1,1.021-1.016ZM45.435,50H37.517V63.369h7.918ZM36.5,47.961h8.935V45.092c0-.608-.516-.9-1.117-1.236a5.248,5.248,0,0,1-3.2-4.721H36.239a5.247,5.247,0,0,1-3.2,4.721c-.6.339-1.113.628-1.113,1.236v9.358a1.021,1.021,0,0,1-2.041,0V45.092c0-1.8,1-2.357,2.16-3.012a3.529,3.529,0,0,0,2.133-2.946H33.085a3.208,3.208,0,0,1-3.2-3.2V33.065a3.208,3.208,0,0,1,3.2-3.2H44.272a3.208,3.208,0,0,1,3.2,3.2v2.873a3.208,3.208,0,0,1-3.2,3.2H43.178a3.537,3.537,0,0,0,2.137,2.95c1.163.651,2.157,1.209,2.157,3.008v23.33a3.208,3.208,0,0,1-3.2,3.2H33.084a3.208,3.208,0,0,1-3.2-3.2V59.064a1.021,1.021,0,0,1,2.041,0v9.358a1.157,1.157,0,0,0,1.159,1.159H44.272a1.17,1.17,0,0,0,.82-.339,1.156,1.156,0,0,0,.343-.82V65.407H36.5A1.019,1.019,0,0,1,35.48,64.39V48.978A1.019,1.019,0,0,1,36.5,47.961ZM55.171,37.1H66.362a1.17,1.17,0,0,0,1.159-1.159V33.065a1.17,1.17,0,0,0-1.159-1.159H55.171a1.17,1.17,0,0,0-1.159,1.159v2.873A1.17,1.17,0,0,0,55.171,37.1Zm-22.086,0H44.272a1.17,1.17,0,0,0,1.163-1.159V33.065a1.17,1.17,0,0,0-1.163-1.159H33.085a1.164,1.164,0,0,0-1.159,1.159v2.873A1.163,1.163,0,0,0,33.085,37.1ZM16.147,25.217a1.019,1.019,0,1,1,0-2.037h1.991V21.874a1.565,1.565,0,0,0-1.564-1.563H7.452a1.571,1.571,0,0,0-1.564,1.563V36.092a1.019,1.019,0,0,1-2.037,0V21.874a3.609,3.609,0,0,1,3.6-3.6h.963v-4.2a1.017,1.017,0,0,1,1.017-1.021h1.564v-9.2a1.019,1.019,0,1,1,2.037,0v9.2H14.6a1.02,1.02,0,0,1,1.021,1.021v4.2h.959a3.6,3.6,0,0,1,3.6,3.6V53.9a3.624,3.624,0,0,1,2.8,1.059,3.6,3.6,0,0,1-2.542,6.142H15.616v3.312h2.23a3.6,3.6,0,0,1,0,7.206H6.185a3.6,3.6,0,0,1,0-7.206h2.23V61.105H3.6a3.6,3.6,0,1,1,.25-7.2v-13.2a1.019,1.019,0,0,1,2.037,0V53.9h12.25V51.038H13.822a1.021,1.021,0,0,1,0-2.041h4.317V45.874H16.148a1.021,1.021,0,1,1,0-2.041h1.991V40.709H13.822a1.019,1.019,0,0,1,0-2.037h4.317V35.545H16.148a1.019,1.019,0,1,1,0-2.037h1.991V30.381H13.822a1.019,1.019,0,0,1,0-2.037h4.317V25.217H16.147ZM13.579,15.092H10.452v3.181h3.127V15.092ZM10.452,61.105v3.312h3.127V61.105ZM3.6,59.068H20.43A1.565,1.565,0,0,0,21.99,57.5a1.571,1.571,0,0,0-1.56-1.564H3.6a1.564,1.564,0,0,0,0,3.127Z"/>
    </g>
  </g>
</svg>
