<svg xmlns="http://www.w3.org/2000/svg" xmlns:xlink="http://www.w3.org/1999/xlink" width="129.063" height="59.808" viewBox="0 0 129.063 59.808">
  <defs>
    <clipPath id="clip-path">
      <path id="path1302" d="M0-682.665H59.808v59.808H0Z" transform="translate(0 682.665)"/>
    </clipPath>
  </defs>
  <g id="Grupo_1200452" data-name="Grupo 1200452" transform="translate(6408.698 6489.021)">
    <g id="Grupo_1200333" data-name="Grupo 1200333" transform="translate(-7204.479 -8493.072)">
      <g id="Rectángulo_410589" data-name="Rectángulo 410589" transform="translate(795.781 2013.422)" fill="#ffe9b5" stroke="#dfab32" stroke-width="1">
        <rect width="129.063" height="43.021" rx="8" stroke="none"/>
        <rect x="0.5" y="0.5" width="128.063" height="42.021" rx="7.5" fill="none"/>
      </g>
    </g>
    <g id="g1296" transform="translate(-6378.417 -5806.356)">
      <g id="g1298" transform="translate(0 -682.665)">
        <g id="g1300" clip-path="url(#clip-path)">
          <g id="g1306" transform="translate(27.381 46.36)">
            <path id="path1308" d="M-83.4-71.942V-78.85h-4.617v6.872A1.082,1.082,0,0,1-89.1-70.9a2.309,2.309,0,0,0-2.309,2.309A2.309,2.309,0,0,0-89.1-66.279h7.99a1.687,1.687,0,0,0,1.687-1.687A2.931,2.931,0,0,0-82.357-70.9,1.046,1.046,0,0,1-83.4-71.942" transform="translate(91.412 78.85)" fill="#fccb88"/>
          </g>
          <g id="g1310" transform="translate(16.622 46.36)">
            <path id="path1312" d="M-83.4-71.942V-78.85h-4.617v6.872A1.082,1.082,0,0,1-89.1-70.9a2.309,2.309,0,0,0-2.309,2.309A2.309,2.309,0,0,0-89.1-66.279h7.99a1.687,1.687,0,0,0,1.687-1.687A2.931,2.931,0,0,0-82.357-70.9,1.046,1.046,0,0,1-83.4-71.942" transform="translate(91.412 78.85)" fill="#f9f097"/>
          </g>
          <g id="g1314" transform="translate(44.851 27.537)">
            <path id="path1316" d="M-9.141-105.931a3,3,0,0,0,.079,4.314,3.044,3.044,0,0,0,4.21-.127l.452-.452a8.218,8.218,0,0,0,.826-10.658,9.495,9.495,0,0,0-4.19-3.249Z" transform="translate(10.019 116.102)" fill="#fab659"/>
          </g>
          <g id="g1318" transform="translate(30.772 46.36)">
            <path id="path1320" d="M0,0V6.466A23.21,23.21,0,0,0,4.617,5.49V0Z" fill="#f7ac3e"/>
          </g>
          <g id="g1322" transform="translate(20.013 46.36)">
            <path id="path1324" d="M-48.088-66.97V-73.4h-4.617v5.634a30.04,30.04,0,0,0,4.617.8" transform="translate(52.705 73.401)" fill="#fccb88"/>
          </g>
          <g id="g1326" transform="translate(9.01 0.876)">
            <path id="path1328" d="M-306.522-63.275a4.811,4.811,0,0,0,.782-.608,2.6,2.6,0,0,0,0-3.676,2.6,2.6,0,0,0-3.676,0,5.086,5.086,0,0,0-.687.907,3.083,3.083,0,0,0-3.058-2.7,3.083,3.083,0,0,0-3.083,3.083,6.966,6.966,0,0,0,.327,1.866A16.933,16.933,0,0,0-330.09-47.7v9.389a5.853,5.853,0,0,0-5.37,8.188c3.158,7.228,10.371,9.934,18.763,9.934h0a20.466,20.466,0,0,0,20.466-20.466V-47.7a16.933,16.933,0,0,0-10.29-15.577" transform="translate(335.955 69.35)" fill="#fccb88"/>
          </g>
          <g id="g1330" transform="translate(36.001 21.301)">
            <path id="path1332" d="M-83.569-19.147a3.856,3.856,0,0,1-4.012,3.676,3.855,3.855,0,0,1-4.012-3.676l4.012-1.839Z" transform="translate(91.593 20.985)" fill="#fab659"/>
          </g>
          <g id="g1334" transform="translate(36.001 19.462)">
            <path id="path1336" d="M-83.569-38.294h-8.024a3.856,3.856,0,0,1,4.012-3.677,3.856,3.856,0,0,1,4.012,3.677" transform="translate(91.593 41.971)" fill="#f9f097"/>
          </g>
          <g id="g1338" transform="translate(9.01 6.835)">
            <path id="path1340" d="M-106-174.7a25.563,25.563,0,0,1,6.259-16.775,16.933,16.933,0,0,0-10.573,15.694v9.389a5.853,5.853,0,0,0-5.37,8.188c3.159,7.228,10.371,9.934,18.763,9.934h0a20.385,20.385,0,0,0,8.7-1.939A25.883,25.883,0,0,1-106-174.7" transform="translate(116.181 191.474)" fill="#fab659"/>
          </g>
          <g id="g1342" transform="translate(6.931 26.865)">
            <path id="path1344" d="M-201.325-40.836h0A9.556,9.556,0,0,0-215.8-41.958l-3.979,3.979a3,3,0,0,0,.079,4.314,3.044,3.044,0,0,0,4.21-.127l2.155-2.155a3,3,0,0,0,.079,4.314,3.044,3.044,0,0,0,4.21-.127l2.154-2.155a3,3,0,0,0,.079,4.314,3.044,3.044,0,0,0,4.21-.127l.452-.452a8.218,8.218,0,0,0,.826-10.658" transform="translate(220.657 44.757)" fill="#f9f097"/>
          </g>
          <g id="g1346" transform="translate(28.636 16.877)">
            <path id="path1348" d="M-9.124-6.3A.876.876,0,0,1-10-7.179V-9.124A.876.876,0,0,1-9.124-10a.876.876,0,0,1,.876.876v1.945A.876.876,0,0,1-9.124-6.3Z" transform="translate(10 10)"/>
          </g>
          <g id="g1350" transform="translate(41.89 16.877)">
            <path id="path1352" d="M-9.124-6.3A.876.876,0,0,1-10-7.179V-9.124A.876.876,0,0,1-9.124-10a.876.876,0,0,1,.876.876v1.945A.876.876,0,0,1-9.124-6.3Z" transform="translate(10 10)"/>
          </g>
          <g id="g1354" transform="translate(35.125 22.263)">
            <path id="path1356" d="M-100.717-10h8.024a.876.876,0,0,1,.876.876A4.735,4.735,0,0,1-96.7-4.572a4.734,4.734,0,0,1-4.888-4.552A.876.876,0,0,1-100.717-10Zm6.991,1.752h-5.958A3.13,3.13,0,0,0-96.7-6.324,3.13,3.13,0,0,0-93.726-8.248Z" transform="translate(101.593 10)"/>
          </g>
          <g id="g1358" transform="translate(35.125 18.586)">
            <path id="path1360" d="M-92.693-46.541h-8.024a.876.876,0,0,1-.876-.876A4.735,4.735,0,0,1-96.7-51.971a4.735,4.735,0,0,1,4.888,4.553A.876.876,0,0,1-92.693-46.541Zm-6.991-1.752h5.958A3.129,3.129,0,0,0-96.7-50.218,3.129,3.129,0,0,0-99.684-48.293Z" transform="translate(101.593 51.971)"/>
          </g>
          <g id="g1362" transform="translate(44.277 27.495)">
            <path id="path1364" d="M-75.661-37.569a.876.876,0,0,1,.472.138,10.4,10.4,0,0,1,2.8,2.636A9.049,9.049,0,0,1-73.3-23l-.452.452a4.011,4.011,0,0,1-2.816,1.168,3.814,3.814,0,0,1-2.61-1.02,3.866,3.866,0,0,1-.845-1.141.876.876,0,0,1,.065-.879A19.48,19.48,0,0,0-76.537-35.49v-1.2a.876.876,0,0,1,.456-.769A.875.875,0,0,1-75.661-37.569Zm-.912,14.437A2.247,2.247,0,0,0-75-23.787l.452-.452a7.306,7.306,0,0,0,.738-9.522,8.755,8.755,0,0,0-.988-1.135A21.209,21.209,0,0,1-78.2-23.908a2.152,2.152,0,0,0,.21.226A2.068,2.068,0,0,0-76.573-23.133Z" transform="translate(80.117 37.569)"/>
          </g>
          <g id="g1366" transform="translate(6.055 25.989)">
            <path id="path1368" d="M-218.174-54.757h0a10.337,10.337,0,0,1,8.432,4.281,9.049,9.049,0,0,1-.914,11.794l-.452.452a4.012,4.012,0,0,1-2.817,1.168,3.814,3.814,0,0,1-2.61-1.02,3.843,3.843,0,0,1-1.156-2.048,4.014,4.014,0,0,1-2.677,1.035,3.815,3.815,0,0,1-2.61-1.02,3.843,3.843,0,0,1-1.156-2.048,4.013,4.013,0,0,1-2.677,1.035,3.814,3.814,0,0,1-2.61-1.02,3.844,3.844,0,0,1-1.235-2.767,3.841,3.841,0,0,1,1.134-2.808l3.979-3.979A10.356,10.356,0,0,1-218.174-54.757Zm4.25,15.942a2.247,2.247,0,0,0,1.578-.655l.452-.452a7.306,7.306,0,0,0,.738-9.522,8.6,8.6,0,0,0-7.017-3.562,8.613,8.613,0,0,0-6.131,2.543l-3.979,3.979a2.1,2.1,0,0,0-.621,1.538,2.106,2.106,0,0,0,.677,1.516,2.068,2.068,0,0,0,1.416.55,2.247,2.247,0,0,0,1.577-.655l2.155-2.155a.876.876,0,0,1,1.239,0,.873.873,0,0,1,.257.619.873.873,0,0,1-.257.619,2.1,2.1,0,0,0-.621,1.538,2.106,2.106,0,0,0,.677,1.516,2.068,2.068,0,0,0,1.416.55,2.247,2.247,0,0,0,1.577-.655l2.154-2.155h0a.876.876,0,0,1,1.239,0,.876.876,0,0,1,0,1.239,2.1,2.1,0,0,0-.621,1.538,2.106,2.106,0,0,0,.677,1.516A2.068,2.068,0,0,0-213.924-38.815Z" transform="translate(230.657 54.757)"/>
          </g>
          <g id="g1370" transform="translate(19.523 0)">
            <path id="path1372" d="M-237.07-462.371a.874.874,0,0,1-.638-.276.876.876,0,0,1,.038-1.238,19.407,19.407,0,0,0,6.17-14.27V-485.2a16.039,16.039,0,0,0-9.758-14.772.876.876,0,0,1-.529-.732.876.876,0,0,1,.4-.81,4.018,4.018,0,0,0,.636-.491,1.725,1.725,0,0,0,0-2.437,1.712,1.712,0,0,0-1.218-.5,1.711,1.711,0,0,0-1.218.5,4.276,4.276,0,0,0-.56.747.876.876,0,0,1-.932.4.876.876,0,0,1-.683-.748,2.207,2.207,0,0,0-2.189-1.931,2.209,2.209,0,0,0-2.207,2.207,6.152,6.152,0,0,0,.291,1.615.876.876,0,0,1-.1.716.876.876,0,0,1-.6.4,15.975,15.975,0,0,0-8.2,3.978.876.876,0,0,1-1.238-.057.876.876,0,0,1,.057-1.238,17.73,17.73,0,0,1,8.166-4.234,6.262,6.262,0,0,1-.13-1.179,3.963,3.963,0,0,1,3.959-3.959,3.964,3.964,0,0,1,3.347,1.845,3.449,3.449,0,0,1,2.236-.814,3.452,3.452,0,0,1,2.457,1.018,3.48,3.48,0,0,1,.2,4.694,17.786,17.786,0,0,1,9.562,15.787v7.045a21.142,21.142,0,0,1-6.721,15.546A.873.873,0,0,1-237.07-462.371Z" transform="translate(259.834 507.729)"/>
          </g>
          <g id="g1374" transform="translate(8.198 11.763)">
            <path id="path1376" d="M-92.529,29.153c-9.809,0-16.575-3.617-19.565-10.459a6.79,6.79,0,0,1-.493-1.7.876.876,0,0,1,.287-.789.876.876,0,0,1,.819-.185,2.209,2.209,0,0,0,2.163-.573l2.154-2.155h0a.876.876,0,0,1,1.239,0,.876.876,0,0,1,0,1.239l0,0a2.1,2.1,0,0,0-.618,1.535,2.106,2.106,0,0,0,.677,1.516,2.176,2.176,0,0,0,2.994-.105l2.154-2.155h0a.876.876,0,0,1,1.239,0,.876.876,0,0,1,0,1.239A2.1,2.1,0,0,0-100.1,18.1a2.106,2.106,0,0,0,.677,1.516,2.176,2.176,0,0,0,2.994-.1l.452-.452a7.306,7.306,0,0,0,.738-9.522,8.659,8.659,0,0,0-10.345-2.9.876.876,0,0,1-.823-.08.876.876,0,0,1-.39-.729V.766a17.676,17.676,0,0,1,3.354-10.4.876.876,0,0,1,1.223-.2.876.876,0,0,1,.2,1.223A15.934,15.934,0,0,0-105.045.766V4.6a10.4,10.4,0,0,1,11.22,3.9A9.049,9.049,0,0,1-94.74,20.3l-.452.452a3.943,3.943,0,0,1-5.427.148,3.843,3.843,0,0,1-1.156-2.048,3.941,3.941,0,0,1-5.288.016,3.843,3.843,0,0,1-1.156-2.048,3.981,3.981,0,0,1-2.335,1.021q.03.076.063.152c3.4,7.776,11.642,9.409,17.96,9.409a19.5,19.5,0,0,0,10.77-3.226.876.876,0,0,1,1.214.249.876.876,0,0,1-.249,1.214A21.252,21.252,0,0,1-92.529,29.153Z" transform="translate(112.597 10.001)"/>
          </g>
          <g id="g1378" transform="translate(26.954 47.89)">
            <path id="path1380" d="M-97.494-61.415h-7.99a3.183,3.183,0,0,1-2.085-.78.876.876,0,0,1-.3-.606.876.876,0,0,1,.221-.639.8.8,0,0,0,.207-.538,2.048,2.048,0,0,0-.545-1.393.876.876,0,0,1-.062-1.113,3.2,3.2,0,0,1,2.565-1.3.206.206,0,0,0,.206-.206v-3.344a.876.876,0,0,1,.77-.87,19.5,19.5,0,0,0,4.419-1.073.876.876,0,0,1,.805.1.876.876,0,0,1,.376.719v4.5a.17.17,0,0,0,.17.17,3.811,3.811,0,0,1,3.807,3.807A2.566,2.566,0,0,1-97.494-61.415Zm-8.316-1.79a1.418,1.418,0,0,0,.325.038h7.99a.811.811,0,0,0,.81-.811,2.057,2.057,0,0,0-2.055-2.055,1.925,1.925,0,0,1-1.922-1.922v-3.282a21.281,21.281,0,0,1-2.865.662v2.583a1.961,1.961,0,0,1-1.958,1.958,1.418,1.418,0,0,0-.7.182,3.8,3.8,0,0,1,.492,1.873A2.551,2.551,0,0,1-105.81-63.2Z" transform="translate(108.22 73.333)"/>
          </g>
          <g id="g1382" transform="translate(15.746 48.09)">
            <path id="path1384" d="M-102.179-59.326h-7.99a3.188,3.188,0,0,1-3.185-3.185,3.188,3.188,0,0,1,3.185-3.185.206.206,0,0,0,.206-.206v-4.266a.876.876,0,0,1,.351-.7.876.876,0,0,1,.772-.139,25.332,25.332,0,0,0,4.463.858.876.876,0,0,1,.784.871v3.413a.17.17,0,0,0,.17.17,3.811,3.811,0,0,1,3.807,3.807A2.566,2.566,0,0,1-102.179-59.326Zm-6.032-9.7V-65.9a1.961,1.961,0,0,1-1.958,1.958,1.434,1.434,0,0,0-1.433,1.433,1.434,1.434,0,0,0,1.433,1.433h7.99a.811.811,0,0,0,.81-.811,2.057,2.057,0,0,0-2.055-2.055,1.925,1.925,0,0,1-1.922-1.922V-68.5A27.546,27.546,0,0,1-108.211-69.028Z" transform="translate(113.354 71.044)"/>
          </g>
        </g>
      </g>
    </g>
  </g>
</svg>
