<svg xmlns="http://www.w3.org/2000/svg" xmlns:xlink="http://www.w3.org/1999/xlink" width="129.063" height="62.636" viewBox="0 0 129.063 62.636">
  <defs>
    <clipPath id="clip-path">
      <path id="path9849" d="M0-682.665H62.636v62.636H0Z" transform="translate(0 682.665)"/>
    </clipPath>
  </defs>
  <g id="Grupo_1200463" data-name="Grupo 1200463" transform="translate(-420.527 -1379.683)">
    <g id="Grupo_1200404" data-name="Grupo 1200404" transform="translate(-375.254 -620.799)">
      <g id="Rectángulo_410589" data-name="Rectángulo 410589" transform="translate(795.781 2013.422)" fill="#ffe9b5" stroke="#dfab32" stroke-width="1">
        <rect width="129.063" height="43.021" rx="8" stroke="none"/>
        <rect x="0.5" y="0.5" width="128.063" height="42.021" rx="7.5" fill="none"/>
      </g>
    </g>
    <g id="g9843" transform="translate(454.771 2062.348)">
      <g id="g9845" transform="translate(0 -682.665)">
        <g id="g9847" transform="translate(0 0)" clip-path="url(#clip-path)">
          <g id="g9853" transform="translate(35.679 38.403)">
            <path id="path9855" d="M0-83.258q2.632,1.265,5.266,2.526l6.3-7.041a2.338,2.338,0,0,0-.357-3.442,2.337,2.337,0,0,0-2.991.185Z" transform="translate(0 91.668)" fill="#f89f8e"/>
          </g>
          <g id="g9857" transform="translate(34.762 37.485)">
            <path id="path9859" d="M-3.816-88.9a.915.915,0,0,1-.4-.09q-2.635-1.261-5.268-2.527a.918.918,0,0,1-.509-.686.918.918,0,0,1,.276-.808l8.22-7.772a3.243,3.243,0,0,1,2.237-.89,3.233,3.233,0,0,1,1.928.633,3.261,3.261,0,0,1,1.309,2.286,3.262,3.262,0,0,1-.812,2.507l-6.3,7.041A.917.917,0,0,1-3.816-88.9Zm-3.667-3.693,3.442,1.651L1.8-97.466a1.4,1.4,0,0,0,.354-1.093,1.4,1.4,0,0,0-.571-1,1.41,1.41,0,0,0-.841-.276,1.415,1.415,0,0,0-.976.388Z" transform="translate(10 101.668)"/>
          </g>
          <g id="g9861" transform="translate(39.508 40.712)">
            <path id="path9863" d="M0-78.648q2.571,1.387,5.143,2.77l6.623-6.739a2.338,2.338,0,0,0-.2-3.455,2.338,2.338,0,0,0-3,.045Z" transform="translate(0 86.593)" fill="#fdb0a0"/>
          </g>
          <g id="g9865" transform="translate(38.591 39.794)">
            <path id="path9867" d="M-3.94-84.043a.915.915,0,0,1-.434-.109q-2.573-1.383-5.144-2.77a.918.918,0,0,1-.477-.709.918.918,0,0,1,.314-.794l8.574-7.379a3.257,3.257,0,0,1,2.123-.788,3.265,3.265,0,0,1,2.049.726,3.262,3.262,0,0,1,1.2,2.345,3.261,3.261,0,0,1-.928,2.466l-6.623,6.739A.917.917,0,0,1-3.94-84.043Zm-3.533-3.862,3.362,1.81,6.14-6.248a1.4,1.4,0,0,0,.4-1.076,1.4,1.4,0,0,0-.524-1.023,1.424,1.424,0,0,0-.894-.317,1.421,1.421,0,0,0-.926.344Z" transform="translate(10 96.593)"/>
          </g>
          <g id="g9869" transform="translate(8.822 4.734)">
            <path id="path9871" d="M-408.679-204.339A20.643,20.643,0,0,1-429.322-183.7a20.643,20.643,0,0,1-20.643-20.643,20.643,20.643,0,0,1,20.643-20.643,20.643,20.643,0,0,1,20.643,20.643" transform="translate(449.964 224.982)" fill="#64b9fc"/>
          </g>
          <g id="g9873" transform="translate(27.411 4.733)">
            <path id="path9875" d="M-224.661-204.344A20.643,20.643,0,0,1-245.3-183.7c-.693,0-1.379-.034-2.054-.1a20.645,20.645,0,0,0,18.587-20.542,20.645,20.645,0,0,0-18.587-20.542c.675-.067,1.361-.1,2.054-.1a20.643,20.643,0,0,1,20.642,20.643" transform="translate(247.357 224.987)" fill="#31a7fb"/>
          </g>
          <g id="g9877" transform="translate(17.18 4.858)">
            <path id="path9879" d="M-325.934-203.108a20.545,20.545,0,0,1-3.69,11.781l-6.038-2.011a1.223,1.223,0,0,0-1.415.5l-1.3,2.016a1.224,1.224,0,0,1-.512.447l-3.508,1.636a1.223,1.223,0,0,1-1.221-.108l-4.324-3.039a1.223,1.223,0,0,1-.417-1.491l.645-1.475a1.224,1.224,0,0,1,.823-.7l4.7-1.181a1.223,1.223,0,0,0,.791-.629l1.591-3.105a1.223,1.223,0,0,0-.045-1.2l-1.712-2.8a1.223,1.223,0,0,0-1.044-.585h-1.358a1.223,1.223,0,0,0-1.029.563l-2.371,3.694a1.224,1.224,0,0,1-1.384.51l-1.917-.581a1.223,1.223,0,0,0-1.228.314l-1.079,1.1a1.223,1.223,0,0,1-1.548.163l-2.392-1.583a1.224,1.224,0,0,1-.458-.558l-1.4-3.435a1.223,1.223,0,0,1,.082-1.089l2.15-3.605a1.223,1.223,0,0,1,1.434-.535l3.636,1.2a1.223,1.223,0,0,0,.943-.074l5.717-2.945a1.223,1.223,0,0,0,.66-1.171l-.173-2.543a1.224,1.224,0,0,0-.575-.956l-1.243-.773a1.223,1.223,0,0,1-.454-1.574l2.288-4.7a20.645,20.645,0,0,1,18.37,20.518" transform="translate(358.861 223.626)" fill="#99d53b"/>
          </g>
          <g id="g9881" transform="translate(31.365 4.858)">
            <path id="path9883" d="M-185.524-203.108a20.546,20.546,0,0,1-3.69,11.781l-3.378-1.125a20.549,20.549,0,0,0,2.959-10.656,20.648,20.648,0,0,0-14.634-19.754l.372-.765a20.645,20.645,0,0,1,18.37,20.518" transform="translate(204.266 223.626)" fill="#8dc637"/>
          </g>
          <g id="g9885" transform="translate(16.264 3.94)">
            <path id="path9887" d="M-311.768-325.194a2.143,2.143,0,0,1-1.233-.389l-4.324-3.039a2.148,2.148,0,0,1-.73-2.609l.645-1.475a2.156,2.156,0,0,1,1.44-1.219l4.7-1.181a.306.306,0,0,0,.2-.157l1.591-3.105a.308.308,0,0,0-.011-.3l-1.712-2.8a.308.308,0,0,0-.261-.146h-1.358a.3.3,0,0,0-.257.141l-2.371,3.694a2.149,2.149,0,0,1-2.423.892l-1.917-.581a.3.3,0,0,0-.307.078l-1.079,1.1a2.144,2.144,0,0,1-2.709.286l-2.392-1.583a2.132,2.132,0,0,1-.8-.976l-1.4-3.434a2.151,2.151,0,0,1,.143-1.906l2.15-3.605a2.128,2.128,0,0,1,2.509-.937l3.636,1.2a.307.307,0,0,0,.235-.018l5.717-2.945a.305.305,0,0,0,.165-.293l-.173-2.544a.307.307,0,0,0-.144-.239l-1.243-.773a2.136,2.136,0,0,1-.795-2.755l2.288-4.7a.918.918,0,0,1,1.227-.423.918.918,0,0,1,.423,1.227l-2.288,4.7a.305.305,0,0,0,.114.394l1.243.773a2.146,2.146,0,0,1,1.006,1.673l.173,2.544a2.139,2.139,0,0,1-1.156,2.049l-5.717,2.945a2.153,2.153,0,0,1-1.65.13l-3.637-1.2a.3.3,0,0,0-.358.134l-2.151,3.605a.307.307,0,0,0-.021.272l1.4,3.435a.3.3,0,0,0,.114.139l2.392,1.583a.306.306,0,0,0,.387-.041l1.079-1.1a2.134,2.134,0,0,1,2.149-.549l1.917.581a.307.307,0,0,0,.346-.127l2.371-3.694a2.132,2.132,0,0,1,1.8-.984h1.358a2.154,2.154,0,0,1,1.827,1.024l1.712,2.8a2.154,2.154,0,0,1,.079,2.093l-1.591,3.105a2.141,2.141,0,0,1-1.384,1.1l-4.7,1.181a.308.308,0,0,0-.206.174l-.644,1.474a.307.307,0,0,0,.1.373l4.324,3.039a.307.307,0,0,0,.305.027l3.508-1.636A.306.306,0,0,0-308-328.8l1.3-2.016a2.14,2.14,0,0,1,2.477-.873l6.038,2.011a.918.918,0,0,1,.581,1.16.917.917,0,0,1-1.16.581l-6.038-2.011a.306.306,0,0,0-.354.125l-1.3,2.016a2.139,2.139,0,0,1-.9.782l-3.508,1.636A2.138,2.138,0,0,1-311.768-325.194Z" transform="translate(328.635 362.029)"/>
          </g>
          <g id="g9889" transform="translate(43.414 17.873)">
            <path id="path9891" d="M-66.257-74.274a20.614,20.614,0,0,1-1.19,6.924c-2.127-.556-6.142-2.695-5.417-7.7a8.068,8.068,0,0,1,4.993-6.679.613.613,0,0,1,.207-.045,20.572,20.572,0,0,1,1.407,7.5" transform="translate(72.95 81.777)" fill="#8dc637"/>
          </g>
          <g id="g9893" transform="translate(10.658 32.867)">
            <path id="path9895" d="M-105.048-58.4a2.651,2.651,0,0,0-2.667.671c-.618.583-1.233,1.4-2.042,2.051a20.694,20.694,0,0,1-5.9-7.591,6.429,6.429,0,0,1,4.66-.944,8.062,8.062,0,0,1,6.679,4.994.61.61,0,0,1-.727.819" transform="translate(115.66 64.303)" fill="#31a7fb"/>
          </g>
          <g id="g9897" transform="translate(12.023 6.103)">
            <path id="path9899" d="M-77.037-99.169a8.075,8.075,0,0,1-7.782-1.79,20.711,20.711,0,0,1,10.035-8.228q.468.057.964.129a2.176,2.176,0,0,1,.5.132A2.135,2.135,0,0,1-72-107.293c.346,2.1.015,6.852-5.032,8.124" transform="translate(84.82 109.188)" fill="#31a7fb"/>
          </g>
          <g id="g9901" transform="translate(7.904 3.816)">
            <path id="path9903" d="M-352.151-14.735a21.584,21.584,0,0,1-21.56-21.56,21.585,21.585,0,0,1,21.56-21.56,21.343,21.343,0,0,1,13.3,4.586.918.918,0,0,1,.156,1.288.918.918,0,0,1-1.288.156,19.525,19.525,0,0,0-12.163-4.2A19.747,19.747,0,0,0-371.876-36.3a19.747,19.747,0,0,0,19.725,19.725A19.747,19.747,0,0,0-332.426-36.3a19.724,19.724,0,0,0-4.746-12.833.918.918,0,0,1,.1-1.294.918.918,0,0,1,1.294.1A21.56,21.56,0,0,1-330.591-36.3,21.585,21.585,0,0,1-352.151-14.735Z" transform="translate(373.711 57.856)"/>
          </g>
          <g id="g9905" transform="translate(7.517 41.915)">
            <path id="path9907" d="M-494.51-27.16a2.337,2.337,0,0,0-2.881-.823l-7.941,3.521a3.115,3.115,0,0,0-3.079-2.647h-6.718a12.254,12.254,0,0,1-3.891-.634l-5.669-1.9a5.074,5.074,0,0,0-3.03-.06L-531.4-28.63a5.075,5.075,0,0,0-3.085,2.532,10.367,10.367,0,0,1-3.564,3.92l-6.418,4.156,7.922,7.922,8.267-6.32,15.945,1.072a4.818,4.818,0,0,0,2.636-.581l14.375-7.868a2.337,2.337,0,0,0,.811-3.364" transform="translate(544.467 29.903)" fill="#ffcec0"/>
          </g>
          <g id="g9909" transform="translate(12.941 43.663)">
            <path id="path9911" d="M-432.789-43.144l-14.375,7.868a4.82,4.82,0,0,1-2.635.581l-15.946-1.072-8.267,6.32-2.5-2.5,8.631-6.6a.86.86,0,0,1,.579-.175l15.622,1.05a4.824,4.824,0,0,0,2.636-.581l14.375-7.867a2.327,2.327,0,0,0,1.12-1.388,2.341,2.341,0,0,1,1.569,1,2.337,2.337,0,0,1-.812,3.363" transform="translate(476.51 47.503)" fill="#fdb0a0"/>
          </g>
          <g id="g9913" transform="translate(6.599 40.996)">
            <path id="path9915" d="M-9.083-125.8a.917.917,0,0,1-.771-.419.918.918,0,0,1,.271-1.269l6.418-4.156a9.468,9.468,0,0,0,3.248-3.574,6.02,6.02,0,0,1,3.643-2.99l3.681-1.072a5.967,5.967,0,0,1,3.578.071l5.669,1.9a11.316,11.316,0,0,0,3.6.587h6.718A4.036,4.036,0,0,1,31-132.69a4.036,4.036,0,0,1-4.032,4.032H18.878a16.647,16.647,0,0,0-3.884.46.918.918,0,0,1-1.106-.678.918.918,0,0,1,.678-1.106,18.485,18.485,0,0,1,4.313-.511h8.094a2.2,2.2,0,0,0,2.2-2.2,2.2,2.2,0,0,0-2.2-2.2H20.254a13.148,13.148,0,0,1-4.182-.682l-5.669-1.9a4.14,4.14,0,0,0-2.482-.049l-3.681,1.072a4.177,4.177,0,0,0-2.528,2.075A11.306,11.306,0,0,1-2.167-130.1l-6.417,4.156A.913.913,0,0,1-9.083-125.8Z" transform="translate(10.001 139.517)"/>
          </g>
          <g id="g9917" transform="translate(14.521 42.717)">
            <path id="path9919" d="M-349.269-30.648a.916.916,0,0,1-.73-.36.917.917,0,0,1,.172-1.286l8.267-6.32a.918.918,0,0,1,.619-.187L-325-37.729a3.894,3.894,0,0,0,2.134-.47l14.375-7.868a1.4,1.4,0,0,0,.7-.913,1.4,1.4,0,0,0-.206-1.131,1.419,1.419,0,0,0-1.75-.5l-7.94,3.521a.918.918,0,0,1-1.211-.467.918.918,0,0,1,.467-1.211l7.94-3.521a3.253,3.253,0,0,1,4.012,1.146A3.261,3.261,0,0,1-306-46.549a3.261,3.261,0,0,1-1.6,2.092l-14.375,7.868a5.726,5.726,0,0,1-3.138.691l-15.6-1.049-7.993,6.11A.914.914,0,0,1-349.269-30.648Z" transform="translate(350.188 50.568)"/>
          </g>
          <g id="g9921" transform="translate(6.563 30.382)">
            <path id="path9923" d="M-6.451-76.165a2.137,2.137,0,0,1-.6-2.013c.479-2.07,2.6-6.341,7.747-5.6a8.064,8.064,0,0,1,6.679,4.994.61.61,0,0,1-.727.819,2.652,2.652,0,0,0-2.667.671C2.2-75.61.455-72-6.042-75.853a2.185,2.185,0,0,1-.409-.312" transform="translate(7.103 83.859)" fill="#99d53b"/>
          </g>
          <g id="g9925" transform="translate(6.564 33.117)">
            <path id="path9927" d="M-136.136-31.325a2.654,2.654,0,0,0-2.667.67c-1.782,1.68-3.527,5.284-10.025,1.436a2.14,2.14,0,0,1-.409-.312,2.139,2.139,0,0,1-.637-1.78c6.164,3.461,7.873-.026,9.618-1.671a2.65,2.65,0,0,1,2.667-.67.611.611,0,0,0,.727-.82c0-.006-.005-.012-.007-.018a8.136,8.136,0,0,1,1.46,2.345.61.61,0,0,1-.727.82" transform="translate(149.888 34.489)" fill="#8dc637"/>
          </g>
          <g id="g9929" transform="translate(5.647 29.467)">
            <path id="path9931" d="M-73.888,1.554A10.98,10.98,0,0,1-79.363-.289a3.1,3.1,0,0,1-.581-.443A3.07,3.07,0,0,1-80.8-3.609c.539-2.333,2.689-6.3,7.326-6.391a.918.918,0,0,1,.934.9.918.918,0,0,1-.9.934c-3.507.065-5.153,3.154-5.573,4.969a1.225,1.225,0,0,0,.342,1.147,1.265,1.265,0,0,0,.237.18c4.982,2.951,6.593,1.193,8.152-.506.266-.29.521-.567.777-.808a3.581,3.581,0,0,1,2.931-1.009,6.886,6.886,0,0,0-3.289-3.2A.918.918,0,0,1-70.3-8.606a.918.918,0,0,1,1.219-.445,8.747,8.747,0,0,1,4.456,4.7,1.519,1.519,0,0,1-.276,1.6,1.513,1.513,0,0,1-1.55.452,1.746,1.746,0,0,0-1.788.456c-.225.212-.448.457-.683.712C-69.983.021-71.388,1.554-73.888,1.554Z" transform="translate(80.873 10)"/>
          </g>
          <g id="g9933" transform="translate(3.841 33.148)">
            <path id="path9935" d="M-9.084-64.58a.913.913,0,0,1-.514-.158.918.918,0,0,1-.245-1.274,13.527,13.527,0,0,1,11.157-6.1.918.918,0,0,1,.936.9.918.918,0,0,1-.9.936,11.732,11.732,0,0,0-9.675,5.3A.917.917,0,0,1-9.084-64.58Z" transform="translate(10.001 72.115)"/>
          </g>
          <g id="g9937" transform="translate(10.905 3.098)">
            <path id="path9939" d="M-118.468-3.121a2.137,2.137,0,0,1,1.319,1.634c.346,2.1.015,6.852-5.033,8.124a8.064,8.064,0,0,1-8.078-2.074.61.61,0,0,1,.361-1.034,2.653,2.653,0,0,0,2.211-1.636c1.009-2.232,1.251-6.23,8.723-5.145a2.2,2.2,0,0,1,.5.132Z" transform="translate(130.436 3.437)" fill="#a3e440"/>
          </g>
          <g id="g9941" transform="translate(12.198 3.145)">
            <path id="path9943" d="M-68.9-99.242a8.14,8.14,0,0,1-6.961-1.126,8.9,8.9,0,0,0,4.18-.115c5.047-1.272,5.379-6.028,5.032-8.124a2.145,2.145,0,0,0-.225-.66c.375.031.771.075,1.191.136a2.257,2.257,0,0,1,.5.132,2.136,2.136,0,0,1,1.318,1.635c.347,2.1.016,6.851-5.032,8.123" transform="translate(75.865 109.268)" fill="#8dc637"/>
          </g>
          <g id="g9945" transform="translate(9.987 2.181)">
            <path id="path9947" d="M-130.371-13.437a17.21,17.21,0,0,1,2.448.192,3.118,3.118,0,0,1,.7.188,3.071,3.071,0,0,1,1.884,2.337c.454,2.754-.238,7.783-5.714,9.163a10.754,10.754,0,0,1-2.62.339A8.735,8.735,0,0,1-140-3.877a1.519,1.519,0,0,1-.353-1.582,1.513,1.513,0,0,1,1.261-1.008,1.746,1.746,0,0,0,1.48-1.1c.127-.281.24-.593.36-.918C-136.531-10.458-135.439-13.437-130.371-13.437Zm-3.3,10.384a8.921,8.921,0,0,0,2.172-.283c5.239-1.32,4.39-6.85,4.352-7.085a1.225,1.225,0,0,0-.754-.931,1.274,1.274,0,0,0-.289-.076,15.382,15.382,0,0,0-2.184-.173c-3.786,0-4.454,1.82-5.161,3.746-.136.37-.266.723-.41,1.042a3.581,3.581,0,0,1-2.326,2.049A6.89,6.89,0,0,0-133.668-3.053Z" transform="translate(140.444 13.437)"/>
          </g>
          <g id="g9949" transform="translate(16.123 0)">
            <path id="path9951" d="M-90.4,1.069a.918.918,0,0,1-.842-.551A.918.918,0,0,1-90.767-.69a11.731,11.731,0,0,0,6.929-8.581.918.918,0,0,1,1.085-.712A.918.918,0,0,1-82.041-8.9,13.527,13.527,0,0,1-90.034.992.914.914,0,0,1-90.4,1.069Z" transform="translate(91.318 10.002)"/>
          </g>
          <g id="g9953" transform="translate(45.248 15.506)">
            <path id="path9955" d="M-76.166-137.348a2.137,2.137,0,0,1-2.013.6c-2.07-.479-6.341-2.6-5.6-7.747a8.064,8.064,0,0,1,4.994-6.679.61.61,0,0,1,.819.727,2.653,2.653,0,0,0,.671,2.667c1.679,1.783,5.284,3.528,1.436,10.025a2.194,2.194,0,0,1-.312.409" transform="translate(83.86 151.223)" fill="#a3e440"/>
          </g>
          <g id="g9957" transform="translate(47.983 15.506)">
            <path id="path9959" d="M-31.326-7.658a2.654,2.654,0,0,0,.67,2.667c1.68,1.782,5.284,3.527,1.436,10.025a2.141,2.141,0,0,1-.312.409,2.139,2.139,0,0,1-1.78.637c3.461-6.164-.026-7.873-1.671-9.618a2.65,2.65,0,0,1-.67-2.667.611.611,0,0,0-.82-.727l-.018.007a8.135,8.135,0,0,1,2.345-1.46.61.61,0,0,1,.82.727" transform="translate(34.491 8.432)" fill="#99d53b"/>
          </g>
          <g id="g9961" transform="translate(44.332 14.588)">
            <path id="path9963" d="M-16.477-120.978a3,3,0,0,1-.676-.077,9.069,9.069,0,0,1-4.961-3.127.918.918,0,0,1,.174-1.286.918.918,0,0,1,1.286.175,7.151,7.151,0,0,0,3.914,2.451,1.226,1.226,0,0,0,1.148-.343,1.272,1.272,0,0,0,.18-.238c2.951-4.982,1.193-6.593-.507-8.152-.29-.266-.567-.521-.808-.777a3.58,3.58,0,0,1-1.009-2.932,7.139,7.139,0,0,0-3.9,5.719,7.272,7.272,0,0,0-.076.952.917.917,0,0,1-.928.907.918.918,0,0,1-.907-.928,9.114,9.114,0,0,1,.094-1.194,8.979,8.979,0,0,1,5.555-7.4,1.519,1.519,0,0,1,1.6.276,1.513,1.513,0,0,1,.452,1.55,1.746,1.746,0,0,0,.455,1.788c.212.225.457.448.712.683,1.814,1.663,4.555,4.177.845,10.44a3.109,3.109,0,0,1-.442.581A3.079,3.079,0,0,1-16.477-120.978Z" transform="translate(23.544 137.339)"/>
          </g>
          <g id="g9965" transform="translate(48.014 20.504)">
            <path id="path9967" d="M-65.5-111.269a.913.913,0,0,1-.514-.158,13.527,13.527,0,0,1-6.1-11.157.918.918,0,0,1,.9-.936.918.918,0,0,1,.936.9,11.731,11.731,0,0,0,5.3,9.675.918.918,0,0,1,.245,1.274A.917.917,0,0,1-65.5-111.269Z" transform="translate(72.113 123.52)"/>
          </g>
        </g>
      </g>
    </g>
  </g>
</svg>
