<svg xmlns="http://www.w3.org/2000/svg" width="129.063" height="59.035" viewBox="0 0 129.063 59.035">
  <g id="Grupo_1200498" data-name="Grupo 1200498" transform="translate(-735.411 -1384.482)">
    <g id="Grupo_1200402" data-name="Grupo 1200402" transform="translate(-60.371 -620.799)">
      <g id="Rectángulo_410589" data-name="Rectángulo 410589" transform="translate(795.781 2013.422)" fill="#ffe9b5" stroke="#dfab32" stroke-width="1">
        <rect width="129.063" height="43.021" rx="8" stroke="none"/>
        <rect x="0.5" y="0.5" width="128.063" height="42.021" rx="7.5" fill="none"/>
      </g>
    </g>
    <g id="sol" transform="translate(771.483 1384.482)">
      <path id="Trazado_1241454" data-name="Trazado 1241454" d="M58.5,27.748h0a.912.912,0,0,0-.459-.805,8.531,8.531,0,0,1-3.127-11.649.929.929,0,0,0-.8-1.39,8.51,8.51,0,0,1-8.518-8.518.929.929,0,0,0-1.39-.8A8.531,8.531,0,0,1,32.548,1.461a.921.921,0,0,0-1.6,0,8.527,8.527,0,0,1-5.178,3.981A8.527,8.527,0,0,1,19.3,4.591a.929.929,0,0,0-1.391.8,8.51,8.51,0,0,1-8.515,8.515.929.929,0,0,0-.8,1.391A8.529,8.529,0,0,1,5.458,26.947a.912.912,0,0,0-.46.8v0a.912.912,0,0,0,.46.8A8.529,8.529,0,0,1,8.59,40.2a.929.929,0,0,0,.8,1.391,8.51,8.51,0,0,1,8.515,8.515.929.929,0,0,0,1.391.8,8.527,8.527,0,0,1,11.654,3.13.921.921,0,0,0,1.6,0A8.531,8.531,0,0,1,44.2,50.918a.929.929,0,0,0,1.39-.8A8.51,8.51,0,0,1,54.112,41.6a.929.929,0,0,0,.8-1.39,8.531,8.531,0,0,1,3.127-11.649.912.912,0,0,0,.459-.805h0v0Z" transform="translate(-0.388 -0.078)" fill="#ffc839"/>
      <circle id="Elipse_12347" data-name="Elipse 12347" cx="17.5" cy="17.5" r="17.5" transform="translate(13.517 10.518)" fill="#ffffaf"/>
      <path id="Trazado_1241455" data-name="Trazado 1241455" d="M35.526,14A17.514,17.514,0,0,0,21.835,42.45,17.514,17.514,0,0,0,46.45,17.834,17.439,17.439,0,0,0,35.526,14Z" transform="translate(-1.396 -1.086)" fill="#fff055"/>
      <circle id="Elipse_12348" data-name="Elipse 12348" cx="15" cy="15" r="15" transform="translate(0.517 28.518)" fill="#87aaff"/>
      <path id="Trazado_1241456" data-name="Trazado 1241456" d="M24.4,33.87A14.749,14.749,0,0,1,3.87,54.4,14.753,14.753,0,1,0,24.4,33.87Z" transform="translate(-0.3 -2.628)" fill="#7f8cf0"/>
      <g id="Grupo_1200464" data-name="Grupo 1200464" transform="translate(1.487 29.219)">
        <path id="Trazado_1241457" data-name="Trazado 1241457" d="M18.514,50.077l-1.685-.337-.877-2.193a1.3,1.3,0,0,0-1.2-.814H10.813a1.689,1.689,0,0,0-2.62-.965l-1.249.892a2.255,2.255,0,0,0-.776,2.689l1.637,4,1.511.378a1.682,1.682,0,0,1,.842,2.756l-.718.8a1.3,1.3,0,0,0-.309,1.114l.315,1.624a14.637,14.637,0,0,0,4.015,1.364l2.765-3.221V56.689a1.3,1.3,0,0,1,.886-1.229l.919-.306,1.57-2.617a1.645,1.645,0,0,0-1.088-2.46Z" transform="translate(-1.953 -32.745)" fill="#b2f439"/>
        <path id="Trazado_1241458" data-name="Trazado 1241458" d="M31.811,46.224A14.682,14.682,0,0,0,30.132,39.4l-2.1.9-4.4-1.651-1.036-1.036A2.1,2.1,0,0,0,21.108,37h-.02a2.151,2.151,0,0,0-1.35.471l-1.62,1.3a1.185,1.185,0,0,0-.429,1.12l.436,2.616,2.866,1.91a1.185,1.185,0,0,0,.945.164l.863-.215a1.185,1.185,0,0,1,1.288.514l2.293,3.609v4.955a1.712,1.712,0,0,0,.4,1.1l1.265,1.518a14.685,14.685,0,0,0,3.77-9.828Z" transform="translate(-2.858 -32.089)" fill="#b2f439"/>
        <path id="Trazado_1241459" data-name="Trazado 1241459" d="M1.612,41.807H5.26l6.116-3.835V35.021L13.1,35a1.149,1.149,0,0,0,.546-2.147l-2.07-1.175A14.774,14.774,0,0,0,1.612,41.807Z" transform="translate(-1.612 -31.676)" fill="#b2f439"/>
      </g>
      <path id="Trazado_1241460" data-name="Trazado 1241460" d="M9.5,58.6a1.291,1.291,0,0,0-.111.807l.315,1.624a14.637,14.637,0,0,0,4.015,1.364l2.765-3.221v-.717A14.4,14.4,0,0,1,9.5,58.6Z" transform="translate(-0.727 -4.535)" fill="#8fe543"/>
      <path id="Trazado_1241461" data-name="Trazado 1241461" d="M30.864,39.6l-2.1.9-.1-.038a14.431,14.431,0,0,1-1.55,9.224v3.95a1.712,1.712,0,0,0,.4,1.1l1.265,1.518A14.7,14.7,0,0,0,30.863,39.6Z" transform="translate(-2.103 -3.072)" fill="#8fe543"/>
      <path id="Trazado_1241462" data-name="Trazado 1241462" d="M59.035,27.639a1.843,1.843,0,0,0-.926-1.576,7.609,7.609,0,0,1-2.787-10.38,1.846,1.846,0,0,0,0-1.855,1.9,1.9,0,0,0-1.607-.925,7.378,7.378,0,0,1-5.366-2.222,7.465,7.465,0,0,1-2.222-5.366,1.851,1.851,0,0,0-2.779-1.606,7.493,7.493,0,0,1-5.773.756A7.477,7.477,0,0,1,32.961.927a1.843,1.843,0,0,0-3.2,0,7.488,7.488,0,0,1-4.624,3.547,7.462,7.462,0,0,1-5.76-.757A1.851,1.851,0,0,0,16.6,5.323a7.587,7.587,0,0,1-7.585,7.585,1.851,1.851,0,0,0-1.606,2.781,7.454,7.454,0,0,1,.755,5.748,7.5,7.5,0,0,1-3.548,4.631,1.854,1.854,0,0,0,0,3.21,7.308,7.308,0,0,1,1.8,1.453A15.662,15.662,0,1,0,28.308,52.613a7.278,7.278,0,0,1,1.453,1.8,1.847,1.847,0,0,0,1.606.929,1.824,1.824,0,0,0,1.594-.928,7.609,7.609,0,0,1,10.387-2.782,1.851,1.851,0,0,0,2.78-1.606,7.587,7.587,0,0,1,7.532-7.588h.07a1.852,1.852,0,0,0,1.592-2.78,7.609,7.609,0,0,1,2.787-10.379,1.846,1.846,0,0,0,.927-1.609ZM11.348,30.222l1.713.973a.226.226,0,0,1-.1.423l-1.721.023a.922.922,0,0,0-.91.922V35L4.869,38.427h-2.1a13.887,13.887,0,0,1,8.58-8.2ZM9.8,55.858l-.226-1.165a.378.378,0,0,1,.089-.322l.717-.8a2.6,2.6,0,0,0-1.3-4.268l-1.057-.265-1.46-3.568a1.334,1.334,0,0,1,.458-1.591l1.249-.891a.766.766,0,0,1,1.189.438.922.922,0,0,0,.895.7h3.936a.371.371,0,0,1,.346.234l.877,2.193a.923.923,0,0,0,.676.562l1.685.337a.723.723,0,0,1,.478,1.081L16.95,50.861l-.6.2a2.215,2.215,0,0,0-1.516,2.1v1.13l-2.19,2.551A13.7,13.7,0,0,1,9.8,55.859Zm5.884,1.332c-.29,0-.574-.026-.86-.044l1.64-1.91a.922.922,0,0,0,.222-.6V53.164a.374.374,0,0,1,.255-.355l.919-.306a.923.923,0,0,0,.5-.4l1.57-2.617a2.568,2.568,0,0,0-1.7-3.839l-1.2-.239-.692-1.73a2.206,2.206,0,0,0-2.06-1.394H10.955a2.611,2.611,0,0,0-3.763-.793l-1.248.891a3.179,3.179,0,0,0-1.094,3.79l1.637,4a.924.924,0,0,0,.631.545l1.51.377a.76.76,0,0,1,.381,1.245l-.718.8a2.224,2.224,0,0,0-.556,1.523A13.735,13.735,0,0,1,2.2,40.271H5.135a.924.924,0,0,0,.49-.14L11.741,36.3a.924.924,0,0,0,.432-.782V33.474l.816-.011a2.066,2.066,0,0,0,1.032-3.836,13.676,13.676,0,0,1,13.416,6.467l-.8.344-3.868-1.45-.895-.9a3.014,3.014,0,0,0-2.157-.885,3.094,3.094,0,0,0-1.925.673l-1.62,1.3a2.11,2.11,0,0,0-.762,1.992l.436,2.616a.922.922,0,0,0,.4.616l2.864,1.909a2.112,2.112,0,0,0,1.681.291l.862-.215a.261.261,0,0,1,.286.113l2.149,3.383v4.686a2.644,2.644,0,0,0,.611,1.687l.746.895a13.791,13.791,0,0,1-9.76,4.041Zm0-29.518c-.311,0-.614.029-.92.046,0-.016,0-.031,0-.046a16.6,16.6,0,1,1,16.6,16.6l-.047,0c.018-.306.047-.61.047-.92A15.7,15.7,0,0,0,15.681,27.673ZM26.664,51.735l-.551-.661a.794.794,0,0,1-.183-.506V45.613a.925.925,0,0,0-.144-.495l-2.293-3.61A2.108,2.108,0,0,0,21.2,40.6l-.862.216a.273.273,0,0,1-.209-.037L17.6,39.087l-.37-2.222a.261.261,0,0,1,.1-.248l1.62-1.3a1.262,1.262,0,0,1,1.625.076L21.6,36.433a.937.937,0,0,0,.329.212l4.4,1.65a.921.921,0,0,0,.687-.016l1.287-.552a13.728,13.728,0,0,1-1.645,14.008ZM57.2,27.678A9.455,9.455,0,0,0,53.729,40.6h-.073a9.435,9.435,0,0,0-9.375,9.449,9.441,9.441,0,0,0-12.916,3.462,9.128,9.128,0,0,0-2.04-2.453A15.553,15.553,0,0,0,31.1,46.11c.086,0,.171.011.258.011A18.448,18.448,0,1,0,12.914,27.673c0,.087.008.172.011.258a15.556,15.556,0,0,0-4.95,1.782,9.215,9.215,0,0,0-2.449-2.042,9.332,9.332,0,0,0,4.417-5.757A9.3,9.3,0,0,0,9,14.753h.069a9.294,9.294,0,0,0,6.611-2.762,9.3,9.3,0,0,0,2.764-6.683,9.3,9.3,0,0,0,7.172.949,9.28,9.28,0,0,0,5.742-4.418A9.307,9.307,0,0,0,37.1,6.248,9.316,9.316,0,0,0,44.283,5.3a9.3,9.3,0,0,0,2.762,6.685,9.282,9.282,0,0,0,6.686,2.765A9.462,9.462,0,0,0,57.19,27.67H57.2Z" transform="translate(0 0)"/>
    </g>
  </g>
</svg>
