<svg xmlns="http://www.w3.org/2000/svg" width="129.063" height="55.218" viewBox="0 0 129.063 55.218">
  <g id="Grupo_1200465" data-name="Grupo 1200465" transform="translate(-1049.411 -1386.525)">
    <g id="Grupo_1200403" data-name="Grupo 1200403" transform="translate(253.629 -620.799)">
      <g id="Rectángulo_410589" data-name="Rectángulo 410589" transform="translate(795.781 2013.422)" fill="#ffe9b5" stroke="#dfab32" stroke-width="1">
        <rect width="129.063" height="43.021" rx="8" stroke="none"/>
        <rect x="0.5" y="0.5" width="128.063" height="42.021" rx="7.5" fill="none"/>
      </g>
    </g>
    <g id="tierra" transform="translate(1083.598 1354.233)">
      <path id="Trazado_1241463" data-name="Trazado 1241463" d="M107.826,54.271V44.048a3.917,3.917,0,0,0-2.849-3.767l-1.247-.352a3.915,3.915,0,0,0-4.04,1.218l-1.234,1.44a3.86,3.86,0,0,1-5.66.217l-.126-.126a3.862,3.862,0,0,0-6,.684,3.415,3.415,0,0,1-5.082.814l-.136-.114a3.469,3.469,0,0,0-4.672.212l-.664.664a3.006,3.006,0,0,1-4.675-.532l-1.228-1.964a4.823,4.823,0,0,0-6.084-1.834l-6.256,2.844c-7.028,4.221-7.911,10.819-1.877,14.062l48.985-.195Z" transform="translate(-45.563 -6.565)" fill="#eaaa83"/>
      <path id="Trazado_1241464" data-name="Trazado 1241464" d="M18.88,48.564l-.477.217a3.585,3.585,0,0,1-4.281-1.025l-.72-.9a3.314,3.314,0,0,0-5.9,2.069V59.148l3.313,3.5L17,62.626A46.865,46.865,0,0,1,18.88,48.564Z" transform="translate(-6.574 -11.677)" fill="#e4996d"/>
      <path id="Trazado_1241465" data-name="Trazado 1241465" d="M99.752,144.934V126.881a3.917,3.917,0,0,0-2.849-3.767l-1.247-.352a3.915,3.915,0,0,0-4.04,1.218l-1.234,1.44a3.86,3.86,0,0,1-5.66.217l-.126-.126a3.862,3.862,0,0,0-6,.684,3.415,3.415,0,0,1-5.082.814l-.136-.114a3.468,3.468,0,0,0-4.672.212l-.664.664a3.006,3.006,0,0,1-4.675-.532l-1.228-1.964a4.823,4.823,0,0,0-6.084-1.834L49.318,126.5a3.573,3.573,0,0,1-1.341.315c-7.146,6.167-7.827,18.5,3.587,22.015L96.9,148.6Z" transform="translate(-37.489 -79.175)" fill="#e8a881"/>
      <path id="Trazado_1241466" data-name="Trazado 1241466" d="M17.062,131.927a3.582,3.582,0,0,1-2.94-1.34l-.72-.9a3.314,3.314,0,0,0-5.9,2.069V149.81l2.675,4.185,10.474-.053a54.279,54.279,0,0,1-3.587-22.015Z" transform="translate(-6.574 -84.285)" fill="#dd8857"/>
      <path id="Trazado_1241467" data-name="Trazado 1241467" d="M130.881,282.153V273.16a3.914,3.914,0,0,0-2.849-3.766l-1.247-.353a3.913,3.913,0,0,0-4.04,1.219l-1.234,1.439a3.86,3.86,0,0,1-5.66.217l-.126-.126a3.862,3.862,0,0,0-6,.684,3.415,3.415,0,0,1-5.082.814l-.136-.114a3.468,3.468,0,0,0-4.672.212l-.664.665a3.007,3.007,0,0,1-4.675-.533l-1.228-1.964a4.823,4.823,0,0,0-6.084-1.834l-6.022,2.737c-7.464,8.711.632,20.268,12.266,21.528h25.625A11.833,11.833,0,0,0,130.881,282.153Z" transform="translate(-68.617 -207.401)" fill="#eaaa83"/>
      <path id="Trazado_1241468" data-name="Trazado 1241468" d="M18.4,277.9a3.586,3.586,0,0,1-4.281-1.023l-.72-.9a3.314,3.314,0,0,0-5.9,2.069v9.227A11.832,11.832,0,0,0,19.333,299.1H31.38a50.231,50.231,0,0,1-12.266-21.528Z" transform="translate(-6.574 -212.52)" fill="#e4996d"/>
      <path id="Trazado_1241469" data-name="Trazado 1241469" d="M397.585,391.021a1.5,1.5,0,0,0,.332-1.616l-.766-1.913a1.514,1.514,0,0,0-.114-.223c-.674-.126-1.234-.121-2.506.819a1.5,1.5,0,0,0-.523,1.673c.781,2.3,1.282,2.752,1.824,2.872a1.5,1.5,0,0,0,.449-.308Z" transform="translate(-345.315 -311.117)" fill="#e8a881"/>
      <path id="Trazado_1241470" data-name="Trazado 1241470" d="M388.128,385.377a1.5,1.5,0,0,1,.523-1.673l1.287-.966a1.52,1.52,0,0,1,.288-.168,1.5,1.5,0,0,0-2.177-.42l-1.287.967a1.5,1.5,0,0,0-.523,1.673l.75,2.25a1.5,1.5,0,0,0,2.033.894,1.516,1.516,0,0,1-.144-.306Z" transform="translate(-338.503 -306.418)" fill="#dd8857"/>
      <path id="Trazado_1241471" data-name="Trazado 1241471" d="M276.246,348.133l-.373-2.608a1.549,1.549,0,0,0-2.227-1.167l-.181.091c-1.719,1.108-2.207,1.767-1.847,2.727l.737,1.968c.126.337.6.641,1.833.758h.524A1.549,1.549,0,0,0,276.246,348.133Z" transform="translate(-237.999 -273.408)" fill="#e8a881"/>
      <path id="Trazado_1241472" data-name="Trazado 1241472" d="M266.65,350.906l-.737-1.968a2.49,2.49,0,0,1,.559-2.674l-2.085,1.043a1.55,1.55,0,0,0-.694,2.079l.737,1.475a1.549,1.549,0,0,0,1.387.856h1.378A1.977,1.977,0,0,1,266.65,350.906Z" transform="translate(-231.005 -275.224)" fill="#dd8857"/>
      <path id="Trazado_1241473" data-name="Trazado 1241473" d="M176.844,387.192l.289-1.735a2.169,2.169,0,0,0-1.669-2.475l-1.591-.354c-2.383-.25-3.217.794-3.217,1.907V387.1c0,.671.413,1.68,2.146,1.907h1.9A2.17,2.17,0,0,0,176.844,387.192Z" transform="translate(-149.594 -307.068)" fill="#e8a881"/>
      <path id="Trazado_1241474" data-name="Trazado 1241474" d="M161.018,383.871v-2.561a2.17,2.17,0,0,1,1.854-2.147l-2.126-.473a2.169,2.169,0,0,0-2.639,2.118v2.561a2.17,2.17,0,0,0,2.17,2.17H161.8A2.164,2.164,0,0,1,161.018,383.871Z" transform="translate(-138.593 -303.601)" fill="#dd8857"/>
      <path id="Trazado_1241475" data-name="Trazado 1241475" d="M79.777,366.107l.642-1.606a1.525,1.525,0,0,0-.933-2.014l-.913-.3c-1.426-.391-2.045.384-2.045,1.2v1.764c0,.6.48,1.318,1.632,1.9A1.526,1.526,0,0,0,79.777,366.107Z" transform="translate(-67.083 -289.087)" fill="#e8a881"/>
      <path id="Trazado_1241476" data-name="Trazado 1241476" d="M69.706,363.115v-1.764a1.665,1.665,0,0,1,1.167-1.645l-1.122-.374a1.525,1.525,0,0,0-2.007,1.447v1.589a1.523,1.523,0,0,0,.843,1.363l1.393.7a1.518,1.518,0,0,0,.481.147A1.734,1.734,0,0,1,69.706,363.115Z" transform="translate(-59.382 -286.609)" fill="#dd8857"/>
      <path id="Trazado_1241477" data-name="Trazado 1241477" d="M59.666,32.825l-1.246-.352a4.856,4.856,0,0,0-4.995,1.506l-1.234,1.44a2.934,2.934,0,0,1-4.3.165,4.792,4.792,0,0,0-7.57.722,2.489,2.489,0,0,1-3.7.594l-.138-.115a4.373,4.373,0,0,0-5.918.269l-.664.664a2.08,2.08,0,0,1-3.236-.368l-1.227-1.963A5.75,5.75,0,0,0,18.179,33.2l-6.733,3.06A2.657,2.657,0,0,1,8.27,35.5l-.721-.9A4.24,4.24,0,0,0,0,37.249v37.5A12.773,12.773,0,0,0,12.758,87.509H27.691a.926.926,0,0,0,0-1.851H12.758A10.919,10.919,0,0,1,1.851,74.751V65.525A2.389,2.389,0,0,1,6.1,64.033l.72.9a4.508,4.508,0,0,0,5.387,1.288l6.734-3.061a3.9,3.9,0,0,1,4.916,1.482l1.228,1.964a3.932,3.932,0,0,0,6.115.7l.664-.665a2.53,2.53,0,0,1,3.423-.156l.138.116a4.341,4.341,0,0,0,6.459-1.035,2.936,2.936,0,0,1,4.564-.521l.127.127A4.786,4.786,0,0,0,53.6,64.9l1.235-1.439a3,3,0,0,1,3.084-.931l1.247.353a3,3,0,0,1,2.176,2.875v8.992A10.919,10.919,0,0,1,50.431,85.658h-18.4a.926.926,0,1,0,0,1.851h18.4A12.773,12.773,0,0,0,63.189,74.751V56.844a.926.926,0,0,0-1.851,0v5.113a4.806,4.806,0,0,0-1.671-.855l-1.247-.353a4.855,4.855,0,0,0-4.994,1.507L52.191,63.7a2.935,2.935,0,0,1-4.3.165l-.127-.127a4.787,4.787,0,0,0-7.443.848,2.49,2.49,0,0,1-3.7.594l-.138-.115a4.373,4.373,0,0,0-5.919.269L29.9,66a2.081,2.081,0,0,1-3.236-.369l-1.227-1.963a5.749,5.749,0,0,0-7.253-2.187l-6.733,3.061a2.658,2.658,0,0,1-3.176-.759l-.72-.9a4.237,4.237,0,0,0-5.7-.851V47.472A2.388,2.388,0,0,1,6.1,45.981l.72.9a4.506,4.506,0,0,0,5.387,1.289l6.734-3.061a3.9,3.9,0,0,1,4.916,1.482l1.228,1.964a3.931,3.931,0,0,0,6.115.7l.664-.664a2.53,2.53,0,0,1,3.423-.156l.138.115a4.341,4.341,0,0,0,6.459-1.035,2.936,2.936,0,0,1,4.564-.521l.127.127a4.786,4.786,0,0,0,7.018-.269l1.234-1.44a3,3,0,0,1,3.085-.93l1.245.352a3,3,0,0,1,2.176,2.876v4.8a.926.926,0,0,0,1.851,0V37.483a4.862,4.862,0,0,0-3.523-4.658Zm0,10.223L58.42,42.7A4.856,4.856,0,0,0,53.425,44.2l-1.234,1.44a2.935,2.935,0,0,1-4.3.165,4.792,4.792,0,0,0-7.57.721,2.49,2.49,0,0,1-3.7.594l-.138-.115a4.372,4.372,0,0,0-5.918.269l-.664.664a2.08,2.08,0,0,1-3.236-.368L25.432,45.61a5.749,5.749,0,0,0-7.253-2.187l-6.733,3.06a2.657,2.657,0,0,1-3.176-.76l-.721-.9a4.233,4.233,0,0,0-5.7-.851V37.249A2.388,2.388,0,0,1,6.1,35.758l.72.9a4.506,4.506,0,0,0,5.387,1.289l6.734-3.061a3.9,3.9,0,0,1,4.916,1.482l1.228,1.964a3.931,3.931,0,0,0,6.115.7l.664-.664a2.53,2.53,0,0,1,3.423-.156l.138.115a4.34,4.34,0,0,0,6.459-1.035,2.935,2.935,0,0,1,4.564-.52l.126.127a4.786,4.786,0,0,0,7.018-.269l1.234-1.44a3,3,0,0,1,3.085-.93l1.245.352a3,3,0,0,1,2.176,2.876V43.9A4.81,4.81,0,0,0,59.666,43.048Z"/>
      <path id="Trazado_1241478" data-name="Trazado 1241478" d="M153.7,379.888h3.428a3.086,3.086,0,0,0,3.053-2.586l.289-1.735a3.1,3.1,0,0,0-2.381-3.53l-3.718-.827a3.094,3.094,0,0,0-3.766,3.021v2.561A3.1,3.1,0,0,0,153.7,379.888Zm-1.244-5.657a1.244,1.244,0,0,1,1.513-1.214l3.718.827a1.244,1.244,0,0,1,.957,1.419L158.356,377a1.241,1.241,0,0,1-1.227,1.04H153.7a1.245,1.245,0,0,1-1.244-1.244Z" transform="translate(-132.019 -297.026)"/>
      <path id="Trazado_1241479" data-name="Trazado 1241479" d="M263.589,341.441l-.373-2.608a2.475,2.475,0,0,0-3.557-1.865h0l-2.266,1.134a2.474,2.474,0,0,0-1.108,3.321l.737,1.474a2.462,2.462,0,0,0,2.214,1.368h1.9A2.476,2.476,0,0,0,263.589,341.441Zm-2.45.974h-1.9a.621.621,0,0,1-.559-.345l-.737-1.475a.624.624,0,0,1,.28-.838l2.266-1.134a.623.623,0,0,1,.9.471l.373,2.609a.624.624,0,0,1-.618.711Z" transform="translate(-224.426 -266.847)"/>
      <path id="Trazado_1241480" data-name="Trazado 1241480" d="M380.915,374.824l-1.287.966a2.418,2.418,0,0,0-.847,2.706l.75,2.25a2.425,2.425,0,0,0,4.015.948l1.3-1.3a2.423,2.423,0,0,0,.537-2.614l-.765-1.913a2.425,2.425,0,0,0-3.706-1.041Zm2.625,4.259-1.3,1.3a.574.574,0,0,1-.95-.224l-.75-2.251a.571.571,0,0,1,.2-.639l1.287-.966a.574.574,0,0,1,.877.246l.765,1.912A.573.573,0,0,1,383.54,379.083Z" transform="translate(-331.924 -299.833)"/>
      <path id="Trazado_1241481" data-name="Trazado 1241481" d="M67,355.806a2.451,2.451,0,0,0-1.5-3.236l-2.034-.678a2.451,2.451,0,0,0-3.226,2.325v1.589A2.434,2.434,0,0,0,61.6,358l1.393.7a2.452,2.452,0,0,0,3.371-1.282Zm-1.719-.688-.642,1.605a.6.6,0,0,1-.825.314l-1.394-.7a.594.594,0,0,1-.33-.535v-1.588a.6.6,0,0,1,.789-.569l2.034.678a.6.6,0,0,1,.366.792Z" transform="translate(-52.807 -280.048)"/>
      <path id="Trazado_1241482" data-name="Trazado 1241482" d="M98.82,193.618a.926.926,0,1,0,0,1.851h2.788a.926.926,0,1,0,0-1.851Z" transform="translate(-85.812 -141.417)"/>
      <path id="Trazado_1241483" data-name="Trazado 1241483" d="M204.244,231.269a.926.926,0,1,0,0,1.851H206.1a.926.926,0,1,0,0-1.851Z" transform="translate(-178.225 -174.421)"/>
      <path id="Trazado_1241484" data-name="Trazado 1241484" d="M309.668,216.209a.926.926,0,0,0,0,1.851h5.576a.926.926,0,0,0,0-1.851Z" transform="translate(-270.638 -161.219)"/>
      <path id="Trazado_1241485" data-name="Trazado 1241485" d="M430.154,186.088a.926.926,0,0,0,0,1.851h1.859a.926.926,0,0,0,0-1.851Z" transform="translate(-376.255 -134.816)"/>
      <path id="Trazado_1241486" data-name="Trazado 1241486" d="M400.032,231.269a.926.926,0,1,0,0,1.851h.929a.926.926,0,1,0,0-1.851Z" transform="translate(-349.85 -174.421)"/>
      <path id="Trazado_1241487" data-name="Trazado 1241487" d="M46.108,231.269a.926.926,0,1,0,0,1.851h4.647a.926.926,0,1,0,0-1.851Z" transform="translate(-39.606 -174.421)"/>
      <path id="Trazado_1241488" data-name="Trazado 1241488" d="M131.725,322.559a.925.925,0,0,0-.926-.926h-1.859a.926.926,0,0,0,0,1.851H130.8A.925.925,0,0,0,131.725,322.559Z" transform="translate(-112.216 -253.633)"/>
      <path id="Trazado_1241489" data-name="Trazado 1241489" d="M272.017,419.527a.926.926,0,1,0,0,1.851H274.8a.926.926,0,1,0,0-1.851Z" transform="translate(-237.634 -339.445)"/>
      <path id="Trazado_1241490" data-name="Trazado 1241490" d="M374.557,336.694h-4.647a.926.926,0,1,0,0,1.851h4.647a.926.926,0,1,0,0-1.851Z" transform="translate(-323.446 -266.835)"/>
      <path id="Trazado_1241491" data-name="Trazado 1241491" d="M84.688,427.057h-.929a.926.926,0,0,0,0,1.851h.929a.926.926,0,0,0,0-1.851Z" transform="translate(-72.61 -346.046)"/>
      <path id="Trazado_1241492" data-name="Trazado 1241492" d="M454.6,361.136a.926.926,0,0,0,0-1.851h-1.859a.926.926,0,1,0,0,1.851Z" transform="translate(-396.057 -286.638)"/>
    </g>
  </g>
</svg>
