<svg xmlns="http://www.w3.org/2000/svg" width="129.063" height="61.479" viewBox="0 0 129.063 61.479">
  <g id="Grupo_1200475" data-name="Grupo 1200475" transform="translate(-7878.411 10227.74)">
    <g id="Grupo_1200405" data-name="Grupo 1200405" transform="translate(7082.629 -12228.799)">
      <g id="Rectángulo_410589" data-name="Rectángulo 410589" transform="translate(795.781 2013.422)" fill="#ffe9b5" stroke="#dfab32" stroke-width="1">
        <rect width="129.063" height="43.021" rx="8" stroke="none"/>
        <rect x="0.5" y="0.5" width="128.063" height="42.021" rx="7.5" fill="none"/>
      </g>
    </g>
    <g id="huevo" transform="translate(7901.091 -10233.409)">
      <g id="Grupo_1200466" data-name="Grupo 1200466" transform="translate(51.847 17.712)">
        <path id="Trazado_1241497" data-name="Trazado 1241497" d="M69.614,27.6l5.177,4.538-.049-.363L80.9,27.7l.477-.314-7.237-4.352Z" transform="translate(-69.614 -23.036)" fill="#ffc561" fill-rule="evenodd"/>
      </g>
      <g id="Grupo_1200467" data-name="Grupo 1200467" transform="translate(26.437 6.887)">
        <path id="Trazado_1241498" data-name="Trazado 1241498" d="M35.879,26.735c-.035,1.589-2.032,5.23-2.91,6.153l13.68,5.778L58.7,32.193l5.734,2.7q-.046-1.182-.211-2.447l-.67-5.091L58.38,22.817l4.527-4.566C62.829,6.619,36.483-1.813,35.879,26.735Zm14.865-5.717a2.58,2.58,0,1,1,.543-5.1,1.3,1.3,0,0,0-.536,1.057,1.277,1.277,0,0,0,1.265,1.288,1.262,1.262,0,0,0,1.116-.681,2.6,2.6,0,0,1,.146.857,2.559,2.559,0,0,1-2.534,2.58Z" transform="translate(-32.969 -7.426)" fill="#ffff87" fill-rule="evenodd"/>
      </g>
      <g id="Grupo_1200468" data-name="Grupo 1200468" transform="translate(25.218 5.669)">
        <path id="Trazado_1241499" data-name="Trazado 1241499" d="M63.9,35.679A1.218,1.218,0,0,1,62.684,34.5c-.027-.8-.1-1.619-.2-2.434l-.72-5.456a1.218,1.218,0,0,1,.536-1.175l5.024-3.324-5.582-3.357a1.218,1.218,0,0,1-.591-1.036A8.87,8.87,0,0,0,57.476,11.1a13.733,13.733,0,0,0-8.323-2.994,10.583,10.583,0,0,0-8.375,3.823c-2.665,3.143-4.086,7.951-4.22,14.293-.043,1.953-2.2,5.87-3.245,6.965a1.219,1.219,0,0,1-1.766-1.679c.791-.83,2.55-4.182,2.576-5.339.146-6.915,1.76-12.237,4.8-15.817A13.1,13.1,0,0,1,49.171,5.67,16.214,16.214,0,0,1,59,9.2,11.527,11.527,0,0,1,63.552,17l6.68,4.016a1.218,1.218,0,0,1,.044,2.06l-6,3.97.619,4.7c.119.892.195,1.792.223,2.672a1.218,1.218,0,0,1-1.176,1.259H63.9Z" transform="translate(-31.211 -5.669)" fill="#333"/>
      </g>
      <g id="Grupo_1200469" data-name="Grupo 1200469" transform="translate(11.662 30.212)">
        <path id="Trazado_1241500" data-name="Trazado 1241500" d="M13.42,48.18l11.385-5.361,15.849,6.7,12.055-6.473L64.093,48.4C64.34,86.088,13.268,87.9,13.42,48.18Z" transform="translate(-12.201 -41.602)" fill="#dbdbdb" fill-rule="evenodd"/>
        <path id="Trazado_1241501" data-name="Trazado 1241501" d="M37.863,78a25.022,25.022,0,0,1-17.878-7.327c-5.481-5.5-8.359-13.467-8.322-23.035a1.219,1.219,0,0,1,.7-1.1l11.385-5.36a1.219,1.219,0,0,1,.994-.02l15.313,6.472,11.542-6.2a1.217,1.217,0,0,1,1.1-.029l11.384,5.357a1.217,1.217,0,0,1,.7,1.094C64.832,57,61.96,64.761,56.463,70.293a25.89,25.89,0,0,1-8.675,5.769A26.266,26.266,0,0,1,37.863,78ZM14.1,48.413c.116,8.562,2.74,15.651,7.608,20.54a22.6,22.6,0,0,0,16.151,6.61,23.921,23.921,0,0,0,16.871-6.988c4.878-4.909,7.5-11.792,7.6-19.941L52.207,43.869,40.692,50.052a1.222,1.222,0,0,1-1.051.049L24.292,43.614Z" transform="translate(-11.662 -41.064)" fill="#333"/>
      </g>
      <g id="Grupo_1200470" data-name="Grupo 1200470" transform="translate(20.179 36.91)">
        <path id="Trazado_1241502" data-name="Trazado 1241502" d="M32.286,62.079a1.267,1.267,0,0,1-.2-.016l-7.123-1.172a1.219,1.219,0,0,1,.4-2.4l6.563,1.08,3.641-3.125a1.212,1.212,0,0,1,.461-.248l3.364-.951,4.2-4.167A1.218,1.218,0,1,1,45.307,52.8l-4.423,4.389a1.2,1.2,0,0,1-.527.307l-3.408.964-3.868,3.319a1.218,1.218,0,0,1-.795.295Z" transform="translate(-23.945 -50.722)" fill="#333"/>
      </g>
      <g id="Grupo_1200471" data-name="Grupo 1200471" transform="translate(35.04 41.3)">
        <path id="Trazado_1241503" data-name="Trazado 1241503" d="M47.721,73.149A1.218,1.218,0,0,1,46.7,71.261L49.313,67.3l.543-4.083-4.118-4.077a1.218,1.218,0,1,1,1.714-1.731L52,61.909a1.221,1.221,0,0,1,.35,1.026l-.66,4.96a1.206,1.206,0,0,1-.191.509l-2.761,4.2A1.216,1.216,0,0,1,47.721,73.149Z" transform="translate(-45.377 -57.053)" fill="#333"/>
      </g>
      <g id="Grupo_1200472" data-name="Grupo 1200472" transform="translate(39.661 45.249)">
        <path id="Trazado_1241504" data-name="Trazado 1241504" d="M60.662,67.65a1.217,1.217,0,0,1-.813-.311l-2.3-2.057-4.319-.1a1.218,1.218,0,0,1,.026-2.437h.028l4.77.107a1.21,1.21,0,0,1,.784.31l2.634,2.357a1.219,1.219,0,0,1-.811,2.127Z" transform="translate(-52.041 -62.748)" fill="#333"/>
      </g>
      <g id="Grupo_1200473" data-name="Grupo 1200473" transform="translate(41.679 15.32)">
        <path id="Trazado_1241505" data-name="Trazado 1241505" d="M57.483,19.587a2.559,2.559,0,0,1,.543.059A1.3,1.3,0,0,0,57.49,20.7a1.277,1.277,0,0,0,1.265,1.288,1.262,1.262,0,0,0,1.116-.681,2.6,2.6,0,0,1,.146.857,2.534,2.534,0,1,1-2.534-2.581Z" transform="translate(-54.95 -19.587)" fill="#333" fill-rule="evenodd"/>
      </g>
      <g id="Grupo_1200474" data-name="Grupo 1200474" transform="translate(50.628 16.493)">
        <path id="Trazado_1241506" data-name="Trazado 1241506" d="M74.251,32.819a1.212,1.212,0,0,1-.8-.3l-5.178-4.538a1.22,1.22,0,0,1-.062-1.774l4.527-4.565a1.218,1.218,0,1,1,1.73,1.716L70.851,27l4.2,3.684a1.219,1.219,0,0,1-.8,2.135Z" transform="translate(-67.856 -21.278)" fill="#333"/>
      </g>
    </g>
  </g>
</svg>
