<svg xmlns="http://www.w3.org/2000/svg" width="129.063" height="57.199" viewBox="0 0 129.063 57.199">
  <g id="Grupo_1200489" data-name="Grupo 1200489" transform="translate(-8203.41 10222.466)">
    <g id="Grupo_1200406" data-name="Grupo 1200406" transform="translate(7407.629 -12228.799)">
      <g id="Rectángulo_410589" data-name="Rectángulo 410589" transform="translate(795.781 2013.422)" fill="#ffe9b5" stroke="#dfab32" stroke-width="1">
        <rect width="129.063" height="43.021" rx="8" stroke="none"/>
        <rect x="0.5" y="0.5" width="128.063" height="42.021" rx="7.5" fill="none"/>
      </g>
    </g>
    <g id="tiempo" transform="translate(8236.732 -10243.971)">
      <g id="Grupo_1200488" data-name="Grupo 1200488" transform="translate(-0.014 21.505)">
        <g id="Grupo_1200476" data-name="Grupo 1200476" transform="translate(37.282 0.835)">
          <path id="Trazado_1241507" data-name="Trazado 1241507" d="M324.451,63.517a.915.915,0,0,1-.865-1.212q.228-.665.42-1.347a.915.915,0,1,1,1.761.495q-.206.732-.451,1.447A.915.915,0,0,1,324.451,63.517Zm1.172-4.978a.915.915,0,0,1-.908-1.035q.092-.7.145-1.4a.915.915,0,1,1,1.824.136q-.057.76-.156,1.507A.915.915,0,0,1,325.623,58.539Zm.165-5.112a.915.915,0,0,1-.912-.855q-.046-.708-.132-1.405a.915.915,0,0,1,1.816-.222q.092.748.142,1.508a.915.915,0,0,1-.853.973Zm-.837-5.044a.915.915,0,0,1-.882-.676q-.185-.683-.408-1.351a.915.915,0,0,1,1.736-.578q.239.717.438,1.451a.915.915,0,0,1-.883,1.154ZM323.129,43.6a.915.915,0,0,1-.819-.505q-.317-.632-.668-1.243a.915.915,0,1,1,1.587-.911q.377.656.717,1.335a.915.915,0,0,1-.817,1.325ZM320.4,39.281a.913.913,0,0,1-.722-.352q-.435-.557-.9-1.088a.915.915,0,1,1,1.376-1.205q.5.57.966,1.167a.915.915,0,0,1-.72,1.478Zm-3.53-3.7a.911.911,0,0,1-.6-.221q-.535-.46-1.1-.89a.915.915,0,0,1,1.113-1.452q.6.461,1.176.955a.915.915,0,0,1-.6,1.608Zm-4.188-2.936a.911.911,0,0,1-.448-.118q-.614-.345-1.249-.657a.915.915,0,1,1,.8-1.643q.682.334,1.341.705a.915.915,0,0,1-.449,1.712ZM308,30.593a.914.914,0,0,1-.282-.045q-.669-.216-1.355-.4a.915.915,0,1,1,.462-1.77q.736.192,1.455.425A.915.915,0,0,1,308,30.593Z" transform="translate(-305.676 -28.353)"/>
        </g>
        <path id="Trazado_1241508" data-name="Trazado 1241508" d="M67.9,275.274a26.821,26.821,0,0,1-26.622-24.594.915.915,0,1,1,1.824-.143,24.982,24.982,0,0,0,24.8,22.907.915.915,0,1,1,0,1.829Z" transform="translate(-36.241 -221.864)"/>
        <path id="Trazado_1241509" data-name="Trazado 1241509" d="M107.31,30.432a.915.915,0,0,1-.63-1.578,26.59,26.59,0,0,1,18.4-7.35.915.915,0,0,1,0,1.829A24.768,24.768,0,0,0,107.94,30.18.912.912,0,0,1,107.31,30.432Z" transform="translate(-93.417 -21.505)"/>
        <path id="Trazado_1241510" data-name="Trazado 1241510" d="M116.278,107.552a11.318,11.318,0,0,1,12.7-11.231,20.983,20.983,0,0,0-34.893-21.5l7.352,12.735a2.515,2.515,0,0,1-2.178,3.773H88.268a21,21,0,0,0,28.118,17.787A11.353,11.353,0,0,1,116.278,107.552Z" transform="translate(-77.501 -62.707)" fill="#fe646f"/>
        <path id="Trazado_1241511" data-name="Trazado 1241511" d="M391.911,148.61a.915.915,0,0,1-.866-1.211,20.1,20.1,0,0,0-3.176-18.846.915.915,0,1,1,1.441-1.127,21.927,21.927,0,0,1,3.466,20.565A.915.915,0,0,1,391.911,148.61Z" transform="translate(-340.392 -114.199)"/>
        <path id="Trazado_1241512" data-name="Trazado 1241512" d="M102.655,104.723A21.8,21.8,0,0,1,80.861,84.954a.915.915,0,0,1,.91-1h10.98a1.723,1.723,0,0,0,1.492-2.584L86.874,68.6a.915.915,0,0,1,.139-1.1,21.892,21.892,0,0,1,29.813-1.37.915.915,0,1,1-1.185,1.394,20.063,20.063,0,0,0-26.83.771l7.016,12.153a3.552,3.552,0,0,1-3.076,5.328H82.8a20.083,20.083,0,0,0,26.648,15.931.915.915,0,0,1,.62,1.721A21.834,21.834,0,0,1,102.655,104.723Z" transform="translate(-70.994 -56.122)"/>
        <g id="Grupo_1200477" data-name="Grupo 1200477" transform="translate(37.74 32.493)">
          <path id="Trazado_1241513" data-name="Trazado 1241513" d="M328.368,295.426a11.43,11.43,0,0,0-3.455.532,16.745,16.745,0,0,1-7.5,7.624,11.439,11.439,0,1,0,10.959-8.156Z" transform="translate(-316.015 -294.511)" fill="#05e39c"/>
          <path id="Trazado_1241514" data-name="Trazado 1241514" d="M392.307,295.426a11.469,11.469,0,0,0-2.557.287,11.441,11.441,0,0,1,0,22.3,11.439,11.439,0,1,0,2.557-22.589Z" transform="translate(-379.954 -294.511)" fill="#0ed290"/>
          <path id="Trazado_1241515" data-name="Trazado 1241515" d="M321.783,312.631a12.3,12.3,0,0,1-6.868-2.084.915.915,0,1,1,1.018-1.52,10.521,10.521,0,1,0,3.2-18.935,17.8,17.8,0,0,1-7.578,7.7,10.566,10.566,0,0,0-.3,2.487,10.459,10.459,0,0,0,1.873,5.993.915.915,0,1,1-1.5,1.043,12.376,12.376,0,0,1-1.735-10.4.915.915,0,0,1,.474-.571,15.946,15.946,0,0,0,7.3-7.414.915.915,0,0,1,.563-.483,12.354,12.354,0,1,1,3.553,24.186Z" transform="translate(-309.43 -287.925)"/>
          <path id="Trazado_1241516" data-name="Trazado 1241516" d="M364.838,358.589a.915.915,0,0,1-.672-.294l-4.515-4.891a.915.915,0,0,1,1.344-1.241l3.82,4.139,6.028-6.976a.915.915,0,0,1,1.384,1.2l-6.7,7.751a.915.915,0,0,1-.677.317Z" transform="translate(-353.313 -341.559)"/>
        </g>
        <g id="Grupo_1200478" data-name="Grupo 1200478" transform="translate(14.113 9.034)">
          <path id="Trazado_1241517" data-name="Trazado 1241517" d="M139.74,103.077a16.72,16.72,0,0,0-12.857,6.011l5.132,8.89a2.515,2.515,0,0,1-2.178,3.773h-6.743a16.757,16.757,0,1,0,16.646-18.674Z" transform="translate(-122.192 -102.162)" fill="#fff"/>
          <path id="Línea_573" data-name="Línea 573" d="M-.9-5.671H-6.585A.915.915,0,0,1-7.5-6.585.915.915,0,0,1-6.585-7.5H-.9a.915.915,0,0,1,.915.915A.915.915,0,0,1-.9-5.671Z" transform="translate(26.173 24.256)"/>
          <path id="Trazado_1241518" data-name="Trazado 1241518" d="M241.156,103.077a16.884,16.884,0,0,0-2.56.194,16.759,16.759,0,0,1,0,33.124,16.757,16.757,0,1,0,2.56-33.318Z" transform="translate(-223.608 -102.162)" fill="#f3f0f3"/>
          <path id="Trazado_1241519" data-name="Trazado 1241519" d="M133.254,95.577A17.671,17.671,0,1,1,115.714,115.4a.915.915,0,0,1,.908-1.025h6.729a1.723,1.723,0,0,0,1.492-2.584l-5.154-8.928a.915.915,0,0,1,.1-1.05A17.651,17.651,0,0,1,133.254,95.577Zm0,33.513A15.842,15.842,0,1,0,121.6,102.517l4.825,8.357a3.552,3.552,0,0,1-3.076,5.328h-5.663A15.849,15.849,0,0,0,133.254,129.09Z" transform="translate(-115.707 -95.577)"/>
        </g>
        <g id="Grupo_1200485" data-name="Grupo 1200485" transform="translate(19.074 12.312)">
          <g id="Grupo_1200479" data-name="Grupo 1200479" transform="translate(11.672)">
            <path id="Línea_574" data-name="Línea 574" d="M-6.585-4.942A.915.915,0,0,1-7.5-5.857v-.729A.915.915,0,0,1-6.585-7.5a.915.915,0,0,1,.915.915v.729A.915.915,0,0,1-6.585-4.942Z" transform="translate(7.5 7.5)"/>
            <path id="Línea_575" data-name="Línea 575" d="M-6.585-4.942A.915.915,0,0,1-7.5-5.857v-.729A.915.915,0,0,1-6.585-7.5a.915.915,0,0,1,.915.915v.729A.915.915,0,0,1-6.585-4.942Z" transform="translate(7.5 33.727)"/>
          </g>
          <g id="Grupo_1200480" data-name="Grupo 1200480" transform="translate(24.422 13.478)">
            <path id="Línea_576" data-name="Línea 576" d="M-5.857-5.671h-.729A.915.915,0,0,1-7.5-6.585.915.915,0,0,1-6.585-7.5h.729a.915.915,0,0,1,.915.915A.915.915,0,0,1-5.857-5.671Z" transform="translate(7.5 7.5)"/>
          </g>
          <g id="Grupo_1200481" data-name="Grupo 1200481" transform="translate(4.933 1.806)">
            <path id="Línea_577" data-name="Línea 577" d="M-6.221-5.041A.914.914,0,0,1-7.014-5.5l-.364-.631a.915.915,0,0,1,.335-1.249.915.915,0,0,1,1.249.335l.364.631a.915.915,0,0,1-.335,1.249A.911.911,0,0,1-6.221-5.041Z" transform="translate(7.501 7.501)"/>
            <path id="Línea_578" data-name="Línea 578" d="M-6.221-5.041A.914.914,0,0,1-7.014-5.5l-.364-.631a.915.915,0,0,1,.335-1.249.915.915,0,0,1,1.249.335l.364.631a.915.915,0,0,1-.335,1.249A.911.911,0,0,1-6.221-5.041Z" transform="translate(20.615 30.215)"/>
          </g>
          <g id="Grupo_1200482" data-name="Grupo 1200482" transform="translate(0 6.739)">
            <path id="Línea_579" data-name="Línea 579" d="M-6.586-5.307a.914.914,0,0,1-.793-.457.915.915,0,0,1,.335-1.25l.631-.364a.915.915,0,0,1,1.25.335A.915.915,0,0,1-5.5-5.794l-.631.364A.911.911,0,0,1-6.586-5.307Z" transform="translate(7.501 20.615)"/>
            <path id="Línea_580" data-name="Línea 580" d="M-6.586-5.307a.914.914,0,0,1-.793-.457.915.915,0,0,1,.335-1.25l.631-.364a.915.915,0,0,1,1.25.335A.915.915,0,0,1-5.5-5.794l-.631.364A.911.911,0,0,1-6.586-5.307Z" transform="translate(30.215 7.501)"/>
          </g>
          <g id="Grupo_1200483" data-name="Grupo 1200483" transform="translate(22.714 19.852)">
            <path id="Línea_581" data-name="Línea 581" d="M-5.956-5.307a.91.91,0,0,1-.457-.123l-.631-.364a.915.915,0,0,1-.335-1.25.915.915,0,0,1,1.25-.335l.631.364a.915.915,0,0,1,.335,1.25A.914.914,0,0,1-5.956-5.307Z" transform="translate(7.501 7.501)"/>
          </g>
          <g id="Grupo_1200484" data-name="Grupo 1200484" transform="translate(4.933 1.806)">
            <path id="Línea_582" data-name="Línea 582" d="M-6.587-5.041a.91.91,0,0,1-.456-.123.915.915,0,0,1-.335-1.249l.364-.631a.915.915,0,0,1,1.249-.335A.915.915,0,0,1-5.43-6.129l-.364.631A.914.914,0,0,1-6.587-5.041Z" transform="translate(7.501 30.215)"/>
            <path id="Línea_583" data-name="Línea 583" d="M-6.587-5.041a.91.91,0,0,1-.456-.123.915.915,0,0,1-.335-1.249l.364-.631a.915.915,0,0,1,1.249-.335A.915.915,0,0,1-5.43-6.129l-.364.631A.914.914,0,0,1-6.587-5.041Z" transform="translate(20.615 7.501)"/>
          </g>
        </g>
        <circle id="Elipse_12349" data-name="Elipse 12349" cx="2.04" cy="2.04" r="2.04" transform="translate(29.621 24.665)" fill="#fe646f"/>
        <path id="Elipse_12350" data-name="Elipse 12350" d="M-4.545-7.5A2.958,2.958,0,0,1-1.591-4.545,2.958,2.958,0,0,1-4.545-1.591,2.958,2.958,0,0,1-7.5-4.545,2.958,2.958,0,0,1-4.545-7.5Zm0,4.08A1.126,1.126,0,0,0-3.42-4.545,1.126,1.126,0,0,0-4.545-5.671,1.126,1.126,0,0,0-5.671-4.545,1.126,1.126,0,0,0-4.545-3.42Z" transform="translate(36.206 31.25)"/>
        <g id="Grupo_1200487" data-name="Grupo 1200487" transform="translate(0 6.794)">
          <path id="Trazado_1241520" data-name="Trazado 1241520" d="M16.957,86.028l-9.1,15.761a2.638,2.638,0,0,0,2.284,3.956h18.2a2.638,2.638,0,0,0,2.284-3.956l-9.1-15.761A2.638,2.638,0,0,0,16.957,86.028Z" transform="translate(-6.584 -83.795)" fill="#ffd15b"/>
          <path id="Trazado_1241521" data-name="Trazado 1241521" d="M96.937,101.789l-9.1-15.761a2.637,2.637,0,0,0-4.568,0l-.246.427,8.853,15.334a2.638,2.638,0,0,1-2.284,3.956h5.061A2.637,2.637,0,0,0,96.937,101.789Z" transform="translate(-72.895 -83.795)" fill="#ffc344"/>
          <path id="Trazado_1241522" data-name="Trazado 1241522" d="M21.744,100.075H3.544A3.552,3.552,0,0,1,.468,94.747l3.5-6.059A.915.915,0,0,1,5.55,89.6l-3.5,6.059a1.723,1.723,0,0,0,1.492,2.584h18.2a1.723,1.723,0,0,0,1.492-2.584L14.136,79.9a1.723,1.723,0,0,0-2.984,0L7.685,85.905A.915.915,0,1,1,6.1,84.99l3.467-6.005a3.552,3.552,0,0,1,6.153,0l9.1,15.761a3.552,3.552,0,0,1-3.076,5.328Z" transform="translate(0.014 -77.209)"/>
          <g id="Grupo_1200486" data-name="Grupo 1200486" transform="translate(11.743 5.387)">
            <path id="Línea_584" data-name="Línea 584" d="M-6.585,1.239A.915.915,0,0,1-7.5.324v-6.91A.915.915,0,0,1-6.585-7.5a.915.915,0,0,1,.915.915V.324A.915.915,0,0,1-6.585,1.239Z" transform="translate(7.5 7.5)"/>
            <path id="Línea_585" data-name="Línea 585" d="M-6.585-4.829A.915.915,0,0,1-7.5-5.743v-.842A.915.915,0,0,1-6.585-7.5a.915.915,0,0,1,.915.915v.842A.915.915,0,0,1-6.585-4.829Z" transform="translate(7.5 18.018)"/>
          </g>
        </g>
      </g>
      <path id="Línea_586" data-name="Línea 586" d="M-6.585,1.906A.915.915,0,0,1-7.5.992V-6.585A.915.915,0,0,1-6.585-7.5a.915.915,0,0,1,.915.915V.992A.915.915,0,0,1-6.585,1.906Z" transform="translate(38.232 45.179)"/>
    </g>
  </g>
</svg>
