<svg xmlns="http://www.w3.org/2000/svg" width="129.063" height="57.096" viewBox="0 0 129.063 57.096">
  <g id="Grupo_1200491" data-name="Grupo 1200491" transform="translate(-8867.41 10222.414)">
    <g id="Grupo_1200408" data-name="Grupo 1200408" transform="translate(8071.629 -12228.799)">
      <g id="Rectángulo_410589" data-name="Rectángulo 410589" transform="translate(795.781 2013.422)" fill="#ffe9b5" stroke="#dfab32" stroke-width="1">
        <rect width="129.063" height="43.021" rx="8" stroke="none"/>
        <rect x="0.5" y="0.5" width="128.063" height="42.021" rx="7.5" fill="none"/>
      </g>
    </g>
    <g id="human" transform="translate(8904.377 -10222.914)">
      <path id="Trazado_1241522" data-name="Trazado 1241522" d="M272.431,18.914c-2.862,1.334-13.328,3.389-14.662.527S264.736,9.885,267.6,8.55a5.718,5.718,0,1,1,4.834,10.364Zm0,0" transform="translate(-228.628 -6.667)" fill="#50e199"/>
      <path id="Trazado_1241523" data-name="Trazado 1241523" d="M274.612,23.36a5.669,5.669,0,0,1-2.179,1.779c-2.861,1.334-13.327,3.389-14.661.527a1.676,1.676,0,0,1-.139-.827c3.5.827,10.508-.678,12.769-1.731a5.716,5.716,0,0,0,2.766-7.6c-.078-.166-.162-.327-.255-.483a5.719,5.719,0,0,1,1.7,8.333Zm0,0" transform="translate(-228.631 -12.892)" fill="#3ad391"/>
      <path id="Trazado_1241524" data-name="Trazado 1241524" d="M184.529,187.765c1.08.5,5.032,1.28,5.536.2s-2.631-3.608-3.711-4.112a2.159,2.159,0,1,0-1.825,3.913Zm0,0" transform="translate(-162.653 -162.535)" fill="#50e199"/>
      <path id="Trazado_1241525" data-name="Trazado 1241525" d="M190.065,198.706c-.5,1.08-4.456.305-5.536-.2a2.156,2.156,0,0,1-1.094-2.753,2.21,2.21,0,0,0,.271.488,2.14,2.14,0,0,0,.823.671c.937.438,4.034,1.079,5.168.536C190.042,197.935,190.214,198.384,190.065,198.706Zm0,0" transform="translate(-162.652 -173.277)" fill="#3ad391"/>
      <path id="Trazado_1241526" data-name="Trazado 1241526" d="M48.86,382.235a16.139,16.139,0,0,0-3.612.41,20.113,20.113,0,0,0-25.8,3.6,10.626,10.626,0,0,0-11.757,4.969,1.259,1.259,0,0,0,1.09,1.888H62.193a1.259,1.259,0,0,0,1.133-1.809A16.077,16.077,0,0,0,48.86,382.235Zm0,0" transform="translate(-6.669 -336.348)" fill="#c87c5b"/>
      <path id="Trazado_1241527" data-name="Trazado 1241527" d="M62.194,393.1h-.175a16.083,16.083,0,0,0-16.3-6.528,1.245,1.245,0,0,1-.885-.154,20.111,20.111,0,0,0-24.917,3.337,1.257,1.257,0,0,1-1.134.373A10.627,10.627,0,0,0,9.327,393.1h-.55a1.259,1.259,0,0,1-1.09-1.889,10.624,10.624,0,0,1,11.757-4.968,20.111,20.111,0,0,1,25.8-3.6,16.088,16.088,0,0,1,18.079,8.644A1.26,1.26,0,0,1,62.194,393.1Zm0,0" transform="translate(-6.67 -336.348)" fill="#a46243"/>
      <path id="Trazado_1241528" data-name="Trazado 1241528" d="M162.2,254.619v-1.372a2.9,2.9,0,0,1,2.9-2.9h6.362v4.275Zm0,0" transform="translate(-143.94 -221.722)" fill="#eea97b"/>
      <path id="Trazado_1241529" data-name="Trazado 1241529" d="M276.766,254.619v-1.372a2.9,2.9,0,0,0-2.9-2.9H267.5v4.275Zm0,0" transform="translate(-237.391 -221.722)" fill="#f4bb91"/>
      <path id="Trazado_1241530" data-name="Trazado 1241530" d="M245.549,67.968h-3.038v-37.3a1.519,1.519,0,1,1,3.038,0Zm0,0" transform="translate(-215.216 -25.424)" fill="#a46243"/>
      <path id="Trazado_1241531" data-name="Trazado 1241531" d="M52.682,283.883H36.035v9.8h16.6Zm0,0" transform="translate(-31.98 -251.486)" fill="#eea97b"/>
      <path id="Trazado_1241532" data-name="Trazado 1241532" d="M161.66,280.732a2.212,2.212,0,0,1-.74,4.3h-.005a2.212,2.212,0,0,1-.784,4.281h-.006a2.212,2.212,0,0,1,1.427,2.131,2.242,2.242,0,0,1-2.257,2.15h-5.325a5.453,5.453,0,0,1-5.453-5.453v-8.584a3.229,3.229,0,0,1,3.229-3.229h9.649a2.212,2.212,0,0,1,.266,4.408Zm0,0" transform="translate(-131.8 -244.778)" fill="#f4bb91"/>
      <path id="Trazado_1241533" data-name="Trazado 1241533" d="M328.078,283.883h16.647v9.8h-16.6Zm0,0" transform="translate(-291.151 -251.486)" fill="#f4bb91"/>
      <path id="Trazado_1241534" data-name="Trazado 1241534" d="M231.372,280.732a2.212,2.212,0,0,0,.74,4.3h.005a2.212,2.212,0,0,0,.785,4.281h.005a2.212,2.212,0,0,0-1.426,2.131,2.242,2.242,0,0,0,2.257,2.15h5.325a5.453,5.453,0,0,0,5.452-5.453v-8.584a3.229,3.229,0,0,0-3.229-3.229h-9.65a2.212,2.212,0,0,0-.266,4.408Zm0,0" transform="translate(-203.603 -244.778)" fill="#fedbbc"/>
      <path id="Trazado_1241535" data-name="Trazado 1241535" d="M132.5,64.633c2.115.986,9.85,2.5,10.836.39s-5.149-7.063-7.264-8.049a4.226,4.226,0,1,0-3.572,7.66Zm0,0" transform="translate(-115.419 -49.765)" fill="#50e199"/>
      <path id="Trazado_1241536" data-name="Trazado 1241536" d="M143.332,68.865c-.986,2.115-8.721.6-10.836-.39a4.225,4.225,0,0,1-.181-7.569c-.032.06-.062.12-.09.181a4.226,4.226,0,0,0,2.044,5.616c1.61.751,6.472,1.809,9.14,1.341A1.345,1.345,0,0,1,143.332,68.865Zm0,0" transform="translate(-115.417 -53.607)" fill="#3ad391"/>
      <path id="Trazado_1241537" data-name="Trazado 1241537" d="M267.955,159.427c-1.081.5-5.032,1.279-5.536.2s2.631-3.608,3.711-4.112a2.159,2.159,0,1,1,1.825,3.913Zm0,0" transform="translate(-232.834 -137.386)" fill="#50e199"/>
      <path id="Trazado_1241538" data-name="Trazado 1241538" d="M268.777,169.5a2.126,2.126,0,0,1-.822.671c-1.08.5-5.032,1.279-5.536.2-.15-.322.022-.771.368-1.258,1.134.543,4.231-.1,5.168-.535a2.14,2.14,0,0,0,.822-.672,2.183,2.183,0,0,0,.271-.488A2.157,2.157,0,0,1,268.777,169.5Zm0,0" transform="translate(-232.834 -148.127)" fill="#3ad391"/>
      <path id="Trazado_1241539" data-name="Trazado 1241539" d="M57.416,54.574a16.89,16.89,0,0,0-3.871-5.155.844.844,0,1,0-1.133,1.251A15.216,15.216,0,0,1,55.9,55.312a.4.4,0,0,1-.022.4.41.41,0,0,1-.352.2H2.107a.409.409,0,0,1-.361-.209.4.4,0,0,1,0-.411A9.783,9.783,0,0,1,12.57,50.713a.846.846,0,0,0,.835-.257,19.353,19.353,0,0,1,3.772-3.265,6.289,6.289,0,0,0,4.992,2.465h5.325a3.121,3.121,0,0,0,1.322-.3,3.093,3.093,0,0,0,1.319.3h5.325A6.3,6.3,0,0,0,40.729,46.8c.485-.047.976-.072,1.462-.072a15.25,15.25,0,0,1,7.2,1.806.844.844,0,0,0,.8-1.487,16.952,16.952,0,0,0-8-2.007c-.222,0-.445.006-.668.015a6.28,6.28,0,0,0,.234-1.7v-.313H53.574a.844.844,0,0,0,0-1.688H41.757V34.775a4.049,4.049,0,0,0-.3-1.534H53.574a.844.844,0,0,0,0-1.688H40.218v-.027a3.752,3.752,0,0,0-3.748-3.748H31.178V23.629h.058a9.764,9.764,0,0,0,.988-.055,11.977,11.977,0,0,0,3.254-.769,3,3,0,0,0-2.538-5.443,9.616,9.616,0,0,0-1.761,1.186V14.87a12.7,12.7,0,0,0,2.318.19,34.723,34.723,0,0,0,8.209-1.2.844.844,0,0,0-.446-1.629c-3.291.9-7.774,1.485-10.081.918V9.431a30.176,30.176,0,0,1,8.149-6.782,4.873,4.873,0,0,1,5.145,8.189.844.844,0,1,0,1.068,1.308A6.562,6.562,0,0,0,38.614,1.118a31.244,31.244,0,0,0-7.436,5.751V5.244a2.363,2.363,0,1,0-4.726,0v5.378q-.2-.206-.419-.417a22.929,22.929,0,0,0-5.026-3.76,5.069,5.069,0,1,0-4.285,9.189,22.931,22.931,0,0,0,6.111,1.433,18.182,18.182,0,0,0,1.843.1,9.442,9.442,0,0,0,1.775-.149v5.263a11.605,11.605,0,0,0-2.394-1.73A3,3,0,1,0,21.52,26a12.257,12.257,0,0,0,4.2.824,6.16,6.16,0,0,0,.735-.042v1H21.16a3.752,3.752,0,0,0-3.748,3.748v.027H4.056a.844.844,0,1,0,0,1.688H16.173a4.048,4.048,0,0,0-.3,1.534v6.582h-3.04a.844.844,0,1,0,0,1.688h3.04v.313a6.255,6.255,0,0,0,.463,2.365,21.012,21.012,0,0,0-3.853,3.239A11.47,11.47,0,0,0,.287,54.439,2.1,2.1,0,0,0,2.107,57.6H55.524a2.1,2.1,0,0,0,1.892-3.022ZM17.56,43.359V34.775a2.387,2.387,0,0,1,2.385-2.385H25.3a3.048,3.048,0,0,0-.009,2.719H23.454a.844.844,0,1,0,0,1.688h2.264a3.039,3.039,0,0,0,.061,2.609H22.526a.844.844,0,0,0,0,1.688H26.5a3.02,3.02,0,0,0,.064,2.592h-4.7a.844.844,0,0,0,0,1.688h5.424a3.049,3.049,0,0,0-.258,1.31,2.971,2.971,0,0,0,.332,1.283h-5.2A4.614,4.614,0,0,1,17.56,43.359Zm17.9,4.609H30.135a1.4,1.4,0,0,1-1.414-1.329,1.371,1.371,0,0,1,.759-1.263h6.28a.844.844,0,1,0,0-1.688H29.3a1.367,1.367,0,0,1-.609-2.592H35.1a.844.844,0,1,0,0-1.688H28.51a1.367,1.367,0,0,1-.575-2.608h6.242a.844.844,0,1,0,0-1.688H27.834a1.367,1.367,0,0,1,.2-2.719h9.65a2.387,2.387,0,0,1,2.384,2.384v8.584A4.614,4.614,0,0,1,35.461,47.968Zm1.009-18.5a2.062,2.062,0,0,1,1.912,1.3,4.1,4.1,0,0,0-.7-.061H31.178V29.466Zm-4.823-9.093a10.243,10.243,0,0,1,2.006-1.48,1.315,1.315,0,0,1,1.111,2.383,10.266,10.266,0,0,1-2.423.585,5.068,5.068,0,0,1-1.928-.007A5.08,5.08,0,0,1,31.647,20.373Zm-8.641-4.987a21.234,21.234,0,0,1-5.57-1.283,3.381,3.381,0,1,1,2.858-6.129,21.22,21.22,0,0,1,4.563,3.442c1.979,1.919,2.455,3.136,2.292,3.485S25.748,15.668,23.006,15.386Zm5.673.229a3.062,3.062,0,0,0-.539-2.92V5.244a.675.675,0,1,1,1.349,0V20.2c-.758.944-.979,1.735-.669,2.4a1.5,1.5,0,0,0,.669.692V30.7H28.14v-14.4A2,2,0,0,0,28.679,15.615Zm-6.446,8.85a1.314,1.314,0,1,1,1.111-2.382A10.293,10.293,0,0,1,26.452,24.8v.278A9.972,9.972,0,0,1,22.233,24.465Zm-1.074,5h5.292V30.7H19.945a4.1,4.1,0,0,0-.7.061A2.062,2.062,0,0,1,21.159,29.466Zm0,0" transform="translate(0)"/>
      <path id="Trazado_1241540" data-name="Trazado 1241540" d="M384.131,458.848h-.006a.844.844,0,0,0-.006,1.688h.021a.844.844,0,0,0,.006-1.688Zm0,0" transform="translate(-340.14 -406.757)"/>
      <path id="Trazado_1241541" data-name="Trazado 1241541" d="M365.572,449.9h-.006a.844.844,0,0,0-.006,1.688h.021a.844.844,0,0,0,.006-1.688Zm0,0" transform="translate(-323.671 -398.819)"/>
      <path id="Trazado_1241542" data-name="Trazado 1241542" d="M157.3,449.9h-.006a.844.844,0,0,0-.006,1.688h.022a.844.844,0,0,0,.006-1.688Zm0,0" transform="translate(-138.84 -398.819)"/>
      <path id="Trazado_1241543" data-name="Trazado 1241543" d="M33.992,365.181a.844.844,0,1,0,0-1.688H29.379a.844.844,0,1,0,0,1.688Zm0,0" transform="translate(-25.324 -322.135)"/>
    </g>
  </g>
</svg>
